%FSLAX45Y45*%
G04 Gerber Fmt 4.5, Leading zero omitted, Abs format (unit mm)*
G04 Created by KiCad (PCBNEW (6.0.2)) date 2022-03-08 19:39:57*
%MOMM*%
%LPD*%
G01*
G04 APERTURE LIST*
%TA.AperFunction,Profile*%
%ADD10C,0.100000*%
%TD*%
%ADD11C,0.200000*%
%ADD12C,0.065000*%
%ADD13C,0.090000*%
G04 APERTURE END LIST*
D10*
X9779000Y-16192500D02*
X9779000Y-7035800D01*
X15036800Y-10693400D02*
X17043400Y-10693400D01*
X10820400Y-6934200D02*
X9880600Y-6934200D01*
X11430000Y-12268200D02*
X10820400Y-12268200D01*
X13411200Y-11303000D02*
X16281400Y-11303000D01*
X12446000Y-14325600D02*
X15697200Y-14325600D01*
X16002000Y-14325600D02*
X16002000Y-14935200D01*
X16281400Y-14325600D02*
G75*
G03*
X16433800Y-14173200I0J152400D01*
G01*
X16281400Y-14325600D02*
X16002000Y-14325600D01*
X11430000Y-14173200D02*
G75*
G03*
X11582400Y-14325600I152400J0D01*
G01*
X11226800Y-6934200D02*
X11150600Y-7010400D01*
X14630400Y-10693400D02*
X13411200Y-10693400D01*
X14630400Y-10693400D02*
X14706600Y-10617200D01*
X9779000Y-16192500D02*
G75*
G03*
X9880600Y-16294100I101600J0D01*
G01*
X17043400Y-10693400D02*
X17043400Y-12674600D01*
X16002000Y-14935200D02*
X17043400Y-14935200D01*
X11430000Y-11963400D02*
X11430000Y-11455400D01*
X10896600Y-10617200D02*
X11150600Y-10617200D01*
X11582400Y-11303000D02*
G75*
G03*
X11430000Y-11455400I0J-152400D01*
G01*
X10896600Y-7010400D02*
X10820400Y-6934200D01*
X11150600Y-10617200D02*
X11226800Y-10693400D01*
X17043400Y-12979400D02*
X16433800Y-12979400D01*
X15697200Y-14935200D02*
X12446000Y-14935200D01*
X10820400Y-14935200D02*
X12141200Y-14935200D01*
X13411200Y-11303000D02*
X13411200Y-10693400D01*
X17043400Y-14935200D02*
X17043400Y-12979400D01*
X18338800Y-16294100D02*
X9880600Y-16294100D01*
X15697200Y-14325600D02*
X15697200Y-14935200D01*
X17043400Y-12674600D02*
X16433800Y-12674600D01*
X10820400Y-10693400D02*
X10896600Y-10617200D01*
X11582400Y-11303000D02*
X13106400Y-11303000D01*
X12141200Y-14325600D02*
X12141200Y-14935200D01*
X11430000Y-12268200D02*
X11430000Y-14173200D01*
X14960600Y-10617200D02*
X15036800Y-10693400D01*
X15036800Y-6934200D02*
X18338800Y-6934200D01*
X9880600Y-6934200D02*
G75*
G03*
X9779000Y-7035800I0J-101600D01*
G01*
X11430000Y-11963400D02*
X10820400Y-11963400D01*
X13106400Y-11303000D02*
X13106400Y-10693400D01*
X12446000Y-14325600D02*
X12446000Y-14935200D01*
X18338800Y-16294100D02*
G75*
G03*
X18440400Y-16192500I0J101600D01*
G01*
X16433800Y-12979400D02*
X16433800Y-14173200D01*
X16433800Y-11455400D02*
G75*
G03*
X16281400Y-11303000I-152400J0D01*
G01*
X10820400Y-11963400D02*
X10820400Y-10693400D01*
X18440400Y-7035800D02*
X18440400Y-16192500D01*
X18440400Y-7035800D02*
G75*
G03*
X18338800Y-6934200I-101600J0D01*
G01*
X14960600Y-7010400D02*
X14706600Y-7010400D01*
X14706600Y-10617200D02*
X14960600Y-10617200D01*
X11226800Y-10693400D02*
X13106400Y-10693400D01*
X16433800Y-12674600D02*
X16433800Y-11455400D01*
X14630400Y-6934200D02*
X11226800Y-6934200D01*
X10820400Y-12268200D02*
X10820400Y-14935200D01*
X12141200Y-14325600D02*
X11582400Y-14325600D01*
X15036800Y-6934200D02*
X14960600Y-7010400D01*
X14706600Y-7010400D02*
X14630400Y-6934200D01*
X11150600Y-7010400D02*
X10896600Y-7010400D01*
D11*
D12*
X15777600Y-11556500D02*
X15842600Y-11621500D01*
X15842600Y-11556500D02*
X15777600Y-11621500D01*
X15777600Y-12134500D02*
X15842600Y-12199500D01*
X15842600Y-12134500D02*
X15777600Y-12199500D01*
X16887000Y-7534820D02*
X16952000Y-7599820D01*
X16952000Y-7534820D02*
X16887000Y-7599820D01*
X17465000Y-7534820D02*
X17530000Y-7599820D01*
X17530000Y-7534820D02*
X17465000Y-7599820D01*
D13*
X14690500Y-11486100D02*
G75*
G03*
X14690500Y-11486100I-45000J0D01*
G01*
X14990500Y-11486100D02*
G75*
G03*
X14990500Y-11486100I-45000J0D01*
G01*
D11*
X10031619Y-16609576D02*
X10031619Y-16409576D01*
X10079238Y-16409576D01*
X10107810Y-16419100D01*
X10126857Y-16438148D01*
X10136381Y-16457195D01*
X10145905Y-16495290D01*
X10145905Y-16523862D01*
X10136381Y-16561957D01*
X10126857Y-16581005D01*
X10107810Y-16600052D01*
X10079238Y-16609576D01*
X10031619Y-16609576D01*
X10231619Y-16609576D02*
X10231619Y-16476243D01*
X10231619Y-16514338D02*
X10241143Y-16495290D01*
X10250667Y-16485767D01*
X10269714Y-16476243D01*
X10288762Y-16476243D01*
X10355429Y-16609576D02*
X10355429Y-16476243D01*
X10355429Y-16409576D02*
X10345905Y-16419100D01*
X10355429Y-16428624D01*
X10364952Y-16419100D01*
X10355429Y-16409576D01*
X10355429Y-16428624D01*
X10479238Y-16609576D02*
X10460190Y-16600052D01*
X10450667Y-16581005D01*
X10450667Y-16409576D01*
X10584000Y-16609576D02*
X10564952Y-16600052D01*
X10555429Y-16581005D01*
X10555429Y-16409576D01*
X10812571Y-16609576D02*
X10812571Y-16409576D01*
X10879238Y-16552433D01*
X10945905Y-16409576D01*
X10945905Y-16609576D01*
X11126857Y-16609576D02*
X11126857Y-16504814D01*
X11117333Y-16485767D01*
X11098286Y-16476243D01*
X11060190Y-16476243D01*
X11041143Y-16485767D01*
X11126857Y-16600052D02*
X11107810Y-16609576D01*
X11060190Y-16609576D01*
X11041143Y-16600052D01*
X11031619Y-16581005D01*
X11031619Y-16561957D01*
X11041143Y-16542909D01*
X11060190Y-16533386D01*
X11107810Y-16533386D01*
X11126857Y-16523862D01*
X11222095Y-16476243D02*
X11222095Y-16676243D01*
X11222095Y-16485767D02*
X11241143Y-16476243D01*
X11279238Y-16476243D01*
X11298286Y-16485767D01*
X11307809Y-16495290D01*
X11317333Y-16514338D01*
X11317333Y-16571481D01*
X11307809Y-16590528D01*
X11298286Y-16600052D01*
X11279238Y-16609576D01*
X11241143Y-16609576D01*
X11222095Y-16600052D01*
X11403048Y-16590528D02*
X11412571Y-16600052D01*
X11403048Y-16609576D01*
X11393524Y-16600052D01*
X11403048Y-16590528D01*
X11403048Y-16609576D01*
X11403048Y-16485767D02*
X11412571Y-16495290D01*
X11403048Y-16504814D01*
X11393524Y-16495290D01*
X11403048Y-16485767D01*
X11403048Y-16504814D01*
D12*
X9709000Y-16906600D02*
X9774000Y-16971600D01*
X9774000Y-16906600D02*
X9709000Y-16971600D01*
D11*
X10069714Y-16829576D02*
X10088762Y-16829576D01*
X10107810Y-16839100D01*
X10117333Y-16848624D01*
X10126857Y-16867671D01*
X10136381Y-16905767D01*
X10136381Y-16953386D01*
X10126857Y-16991481D01*
X10117333Y-17010529D01*
X10107810Y-17020052D01*
X10088762Y-17029576D01*
X10069714Y-17029576D01*
X10050667Y-17020052D01*
X10041143Y-17010529D01*
X10031619Y-16991481D01*
X10022095Y-16953386D01*
X10022095Y-16905767D01*
X10031619Y-16867671D01*
X10041143Y-16848624D01*
X10050667Y-16839100D01*
X10069714Y-16829576D01*
X10222095Y-17010529D02*
X10231619Y-17020052D01*
X10222095Y-17029576D01*
X10212571Y-17020052D01*
X10222095Y-17010529D01*
X10222095Y-17029576D01*
X10403048Y-16829576D02*
X10364952Y-16829576D01*
X10345905Y-16839100D01*
X10336381Y-16848624D01*
X10317333Y-16877195D01*
X10307810Y-16915290D01*
X10307810Y-16991481D01*
X10317333Y-17010529D01*
X10326857Y-17020052D01*
X10345905Y-17029576D01*
X10384000Y-17029576D01*
X10403048Y-17020052D01*
X10412571Y-17010529D01*
X10422095Y-16991481D01*
X10422095Y-16943862D01*
X10412571Y-16924814D01*
X10403048Y-16915290D01*
X10384000Y-16905767D01*
X10345905Y-16905767D01*
X10326857Y-16915290D01*
X10317333Y-16924814D01*
X10307810Y-16943862D01*
X10603048Y-16829576D02*
X10507810Y-16829576D01*
X10498286Y-16924814D01*
X10507810Y-16915290D01*
X10526857Y-16905767D01*
X10574476Y-16905767D01*
X10593524Y-16915290D01*
X10603048Y-16924814D01*
X10612571Y-16943862D01*
X10612571Y-16991481D01*
X10603048Y-17010529D01*
X10593524Y-17020052D01*
X10574476Y-17029576D01*
X10526857Y-17029576D01*
X10507810Y-17020052D01*
X10498286Y-17010529D01*
X10736381Y-16829576D02*
X10755429Y-16829576D01*
X10774476Y-16839100D01*
X10784000Y-16848624D01*
X10793524Y-16867671D01*
X10803048Y-16905767D01*
X10803048Y-16953386D01*
X10793524Y-16991481D01*
X10784000Y-17010529D01*
X10774476Y-17020052D01*
X10755429Y-17029576D01*
X10736381Y-17029576D01*
X10717333Y-17020052D01*
X10707810Y-17010529D01*
X10698286Y-16991481D01*
X10688762Y-16953386D01*
X10688762Y-16905767D01*
X10698286Y-16867671D01*
X10707810Y-16848624D01*
X10717333Y-16839100D01*
X10736381Y-16829576D01*
X10888762Y-17029576D02*
X10888762Y-16896243D01*
X10888762Y-16915290D02*
X10898286Y-16905767D01*
X10917333Y-16896243D01*
X10945905Y-16896243D01*
X10964952Y-16905767D01*
X10974476Y-16924814D01*
X10974476Y-17029576D01*
X10974476Y-16924814D02*
X10984000Y-16905767D01*
X11003048Y-16896243D01*
X11031619Y-16896243D01*
X11050667Y-16905767D01*
X11060190Y-16924814D01*
X11060190Y-17029576D01*
X11155429Y-17029576D02*
X11155429Y-16896243D01*
X11155429Y-16915290D02*
X11164952Y-16905767D01*
X11184000Y-16896243D01*
X11212571Y-16896243D01*
X11231619Y-16905767D01*
X11241143Y-16924814D01*
X11241143Y-17029576D01*
X11241143Y-16924814D02*
X11250667Y-16905767D01*
X11269714Y-16896243D01*
X11298286Y-16896243D01*
X11317333Y-16905767D01*
X11326857Y-16924814D01*
X11326857Y-17029576D01*
X11717333Y-16820052D02*
X11545905Y-17077195D01*
X11974476Y-16829576D02*
X11993524Y-16829576D01*
X12012571Y-16839100D01*
X12022095Y-16848624D01*
X12031619Y-16867671D01*
X12041143Y-16905767D01*
X12041143Y-16953386D01*
X12031619Y-16991481D01*
X12022095Y-17010529D01*
X12012571Y-17020052D01*
X11993524Y-17029576D01*
X11974476Y-17029576D01*
X11955428Y-17020052D01*
X11945905Y-17010529D01*
X11936381Y-16991481D01*
X11926857Y-16953386D01*
X11926857Y-16905767D01*
X11936381Y-16867671D01*
X11945905Y-16848624D01*
X11955428Y-16839100D01*
X11974476Y-16829576D01*
X12126857Y-17010529D02*
X12136381Y-17020052D01*
X12126857Y-17029576D01*
X12117333Y-17020052D01*
X12126857Y-17010529D01*
X12126857Y-17029576D01*
X12260190Y-16829576D02*
X12279238Y-16829576D01*
X12298286Y-16839100D01*
X12307809Y-16848624D01*
X12317333Y-16867671D01*
X12326857Y-16905767D01*
X12326857Y-16953386D01*
X12317333Y-16991481D01*
X12307809Y-17010529D01*
X12298286Y-17020052D01*
X12279238Y-17029576D01*
X12260190Y-17029576D01*
X12241143Y-17020052D01*
X12231619Y-17010529D01*
X12222095Y-16991481D01*
X12212571Y-16953386D01*
X12212571Y-16905767D01*
X12222095Y-16867671D01*
X12231619Y-16848624D01*
X12241143Y-16839100D01*
X12260190Y-16829576D01*
X12403048Y-16848624D02*
X12412571Y-16839100D01*
X12431619Y-16829576D01*
X12479238Y-16829576D01*
X12498286Y-16839100D01*
X12507809Y-16848624D01*
X12517333Y-16867671D01*
X12517333Y-16886719D01*
X12507809Y-16915290D01*
X12393524Y-17029576D01*
X12517333Y-17029576D01*
X12698286Y-16829576D02*
X12603048Y-16829576D01*
X12593524Y-16924814D01*
X12603048Y-16915290D01*
X12622095Y-16905767D01*
X12669714Y-16905767D01*
X12688762Y-16915290D01*
X12698286Y-16924814D01*
X12707809Y-16943862D01*
X12707809Y-16991481D01*
X12698286Y-17010529D01*
X12688762Y-17020052D01*
X12669714Y-17029576D01*
X12622095Y-17029576D01*
X12603048Y-17020052D01*
X12593524Y-17010529D01*
X12879238Y-16829576D02*
X12841143Y-16829576D01*
X12822095Y-16839100D01*
X12812571Y-16848624D01*
X12793524Y-16877195D01*
X12784000Y-16915290D01*
X12784000Y-16991481D01*
X12793524Y-17010529D01*
X12803048Y-17020052D01*
X12822095Y-17029576D01*
X12860190Y-17029576D01*
X12879238Y-17020052D01*
X12888762Y-17010529D01*
X12898286Y-16991481D01*
X12898286Y-16943862D01*
X12888762Y-16924814D01*
X12879238Y-16915290D01*
X12860190Y-16905767D01*
X12822095Y-16905767D01*
X12803048Y-16915290D01*
X12793524Y-16924814D01*
X12784000Y-16943862D01*
X12974476Y-16829576D02*
X12974476Y-16867671D01*
X13050667Y-16829576D02*
X13050667Y-16867671D01*
X13345905Y-17105767D02*
X13336381Y-17096243D01*
X13317333Y-17067671D01*
X13307809Y-17048624D01*
X13298286Y-17020052D01*
X13288762Y-16972433D01*
X13288762Y-16934338D01*
X13298286Y-16886719D01*
X13307809Y-16858148D01*
X13317333Y-16839100D01*
X13336381Y-16810529D01*
X13345905Y-16801005D01*
X13507809Y-16896243D02*
X13507809Y-17029576D01*
X13460190Y-16820052D02*
X13412571Y-16962910D01*
X13536381Y-16962910D01*
X13764952Y-17029576D02*
X13764952Y-16829576D01*
X13850667Y-17029576D02*
X13850667Y-16924814D01*
X13841143Y-16905767D01*
X13822095Y-16896243D01*
X13793524Y-16896243D01*
X13774476Y-16905767D01*
X13764952Y-16915290D01*
X13974476Y-17029576D02*
X13955428Y-17020052D01*
X13945905Y-17010529D01*
X13936381Y-16991481D01*
X13936381Y-16934338D01*
X13945905Y-16915290D01*
X13955428Y-16905767D01*
X13974476Y-16896243D01*
X14003048Y-16896243D01*
X14022095Y-16905767D01*
X14031619Y-16915290D01*
X14041143Y-16934338D01*
X14041143Y-16991481D01*
X14031619Y-17010529D01*
X14022095Y-17020052D01*
X14003048Y-17029576D01*
X13974476Y-17029576D01*
X14155428Y-17029576D02*
X14136381Y-17020052D01*
X14126857Y-17001005D01*
X14126857Y-16829576D01*
X14307809Y-17020052D02*
X14288762Y-17029576D01*
X14250667Y-17029576D01*
X14231619Y-17020052D01*
X14222095Y-17001005D01*
X14222095Y-16924814D01*
X14231619Y-16905767D01*
X14250667Y-16896243D01*
X14288762Y-16896243D01*
X14307809Y-16905767D01*
X14317333Y-16924814D01*
X14317333Y-16943862D01*
X14222095Y-16962910D01*
X14393524Y-17020052D02*
X14412571Y-17029576D01*
X14450667Y-17029576D01*
X14469714Y-17020052D01*
X14479238Y-17001005D01*
X14479238Y-16991481D01*
X14469714Y-16972433D01*
X14450667Y-16962910D01*
X14422095Y-16962910D01*
X14403048Y-16953386D01*
X14393524Y-16934338D01*
X14393524Y-16924814D01*
X14403048Y-16905767D01*
X14422095Y-16896243D01*
X14450667Y-16896243D01*
X14469714Y-16905767D01*
X14545905Y-17105767D02*
X14555428Y-17096243D01*
X14574476Y-17067671D01*
X14584000Y-17048624D01*
X14593524Y-17020052D01*
X14603048Y-16972433D01*
X14603048Y-16934338D01*
X14593524Y-16886719D01*
X14584000Y-16858148D01*
X14574476Y-16839100D01*
X14555428Y-16810529D01*
X14545905Y-16801005D01*
X14907809Y-17105767D02*
X14898286Y-17096243D01*
X14879238Y-17067671D01*
X14869714Y-17048624D01*
X14860190Y-17020052D01*
X14850667Y-16972433D01*
X14850667Y-16934338D01*
X14860190Y-16886719D01*
X14869714Y-16858148D01*
X14879238Y-16839100D01*
X14898286Y-16810529D01*
X14907809Y-16801005D01*
X14984000Y-16896243D02*
X14984000Y-17029576D01*
X14984000Y-16915290D02*
X14993524Y-16905767D01*
X15012571Y-16896243D01*
X15041143Y-16896243D01*
X15060190Y-16905767D01*
X15069714Y-16924814D01*
X15069714Y-17029576D01*
X15193524Y-17029576D02*
X15174476Y-17020052D01*
X15164952Y-17010529D01*
X15155428Y-16991481D01*
X15155428Y-16934338D01*
X15164952Y-16915290D01*
X15174476Y-16905767D01*
X15193524Y-16896243D01*
X15222095Y-16896243D01*
X15241143Y-16905767D01*
X15250667Y-16915290D01*
X15260190Y-16934338D01*
X15260190Y-16991481D01*
X15250667Y-17010529D01*
X15241143Y-17020052D01*
X15222095Y-17029576D01*
X15193524Y-17029576D01*
X15317333Y-16896243D02*
X15393524Y-16896243D01*
X15345905Y-16829576D02*
X15345905Y-17001005D01*
X15355428Y-17020052D01*
X15374476Y-17029576D01*
X15393524Y-17029576D01*
X15612571Y-16896243D02*
X15612571Y-17096243D01*
X15612571Y-16905767D02*
X15631619Y-16896243D01*
X15669714Y-16896243D01*
X15688762Y-16905767D01*
X15698286Y-16915290D01*
X15707809Y-16934338D01*
X15707809Y-16991481D01*
X15698286Y-17010529D01*
X15688762Y-17020052D01*
X15669714Y-17029576D01*
X15631619Y-17029576D01*
X15612571Y-17020052D01*
X15822095Y-17029576D02*
X15803048Y-17020052D01*
X15793524Y-17001005D01*
X15793524Y-16829576D01*
X15984000Y-17029576D02*
X15984000Y-16924814D01*
X15974476Y-16905767D01*
X15955428Y-16896243D01*
X15917333Y-16896243D01*
X15898286Y-16905767D01*
X15984000Y-17020052D02*
X15964952Y-17029576D01*
X15917333Y-17029576D01*
X15898286Y-17020052D01*
X15888762Y-17001005D01*
X15888762Y-16981957D01*
X15898286Y-16962910D01*
X15917333Y-16953386D01*
X15964952Y-16953386D01*
X15984000Y-16943862D01*
X16050667Y-16896243D02*
X16126857Y-16896243D01*
X16079238Y-16829576D02*
X16079238Y-17001005D01*
X16088762Y-17020052D01*
X16107809Y-17029576D01*
X16126857Y-17029576D01*
X16269714Y-17020052D02*
X16250667Y-17029576D01*
X16212571Y-17029576D01*
X16193524Y-17020052D01*
X16184000Y-17001005D01*
X16184000Y-16924814D01*
X16193524Y-16905767D01*
X16212571Y-16896243D01*
X16250667Y-16896243D01*
X16269714Y-16905767D01*
X16279238Y-16924814D01*
X16279238Y-16943862D01*
X16184000Y-16962910D01*
X16450667Y-17029576D02*
X16450667Y-16829576D01*
X16450667Y-17020052D02*
X16431619Y-17029576D01*
X16393524Y-17029576D01*
X16374476Y-17020052D01*
X16364952Y-17010529D01*
X16355428Y-16991481D01*
X16355428Y-16934338D01*
X16364952Y-16915290D01*
X16374476Y-16905767D01*
X16393524Y-16896243D01*
X16431619Y-16896243D01*
X16450667Y-16905767D01*
X16526857Y-17105767D02*
X16536381Y-17096243D01*
X16555428Y-17067671D01*
X16564952Y-17048624D01*
X16574476Y-17020052D01*
X16584000Y-16972433D01*
X16584000Y-16934338D01*
X16574476Y-16886719D01*
X16564952Y-16858148D01*
X16555428Y-16839100D01*
X16536381Y-16810529D01*
X16526857Y-16801005D01*
D13*
X9774000Y-17203100D02*
G75*
G03*
X9774000Y-17203100I-45000J0D01*
G01*
D11*
X10069714Y-17093576D02*
X10088762Y-17093576D01*
X10107810Y-17103100D01*
X10117333Y-17112624D01*
X10126857Y-17131671D01*
X10136381Y-17169767D01*
X10136381Y-17217386D01*
X10126857Y-17255481D01*
X10117333Y-17274529D01*
X10107810Y-17284052D01*
X10088762Y-17293576D01*
X10069714Y-17293576D01*
X10050667Y-17284052D01*
X10041143Y-17274529D01*
X10031619Y-17255481D01*
X10022095Y-17217386D01*
X10022095Y-17169767D01*
X10031619Y-17131671D01*
X10041143Y-17112624D01*
X10050667Y-17103100D01*
X10069714Y-17093576D01*
X10222095Y-17274529D02*
X10231619Y-17284052D01*
X10222095Y-17293576D01*
X10212571Y-17284052D01*
X10222095Y-17274529D01*
X10222095Y-17293576D01*
X10326857Y-17293576D02*
X10364952Y-17293576D01*
X10384000Y-17284052D01*
X10393524Y-17274529D01*
X10412571Y-17245957D01*
X10422095Y-17207862D01*
X10422095Y-17131671D01*
X10412571Y-17112624D01*
X10403048Y-17103100D01*
X10384000Y-17093576D01*
X10345905Y-17093576D01*
X10326857Y-17103100D01*
X10317333Y-17112624D01*
X10307810Y-17131671D01*
X10307810Y-17179290D01*
X10317333Y-17198338D01*
X10326857Y-17207862D01*
X10345905Y-17217386D01*
X10384000Y-17217386D01*
X10403048Y-17207862D01*
X10412571Y-17198338D01*
X10422095Y-17179290D01*
X10545905Y-17093576D02*
X10564952Y-17093576D01*
X10584000Y-17103100D01*
X10593524Y-17112624D01*
X10603048Y-17131671D01*
X10612571Y-17169767D01*
X10612571Y-17217386D01*
X10603048Y-17255481D01*
X10593524Y-17274529D01*
X10584000Y-17284052D01*
X10564952Y-17293576D01*
X10545905Y-17293576D01*
X10526857Y-17284052D01*
X10517333Y-17274529D01*
X10507810Y-17255481D01*
X10498286Y-17217386D01*
X10498286Y-17169767D01*
X10507810Y-17131671D01*
X10517333Y-17112624D01*
X10526857Y-17103100D01*
X10545905Y-17093576D01*
X10736381Y-17093576D02*
X10755429Y-17093576D01*
X10774476Y-17103100D01*
X10784000Y-17112624D01*
X10793524Y-17131671D01*
X10803048Y-17169767D01*
X10803048Y-17217386D01*
X10793524Y-17255481D01*
X10784000Y-17274529D01*
X10774476Y-17284052D01*
X10755429Y-17293576D01*
X10736381Y-17293576D01*
X10717333Y-17284052D01*
X10707810Y-17274529D01*
X10698286Y-17255481D01*
X10688762Y-17217386D01*
X10688762Y-17169767D01*
X10698286Y-17131671D01*
X10707810Y-17112624D01*
X10717333Y-17103100D01*
X10736381Y-17093576D01*
X10888762Y-17293576D02*
X10888762Y-17160243D01*
X10888762Y-17179290D02*
X10898286Y-17169767D01*
X10917333Y-17160243D01*
X10945905Y-17160243D01*
X10964952Y-17169767D01*
X10974476Y-17188814D01*
X10974476Y-17293576D01*
X10974476Y-17188814D02*
X10984000Y-17169767D01*
X11003048Y-17160243D01*
X11031619Y-17160243D01*
X11050667Y-17169767D01*
X11060190Y-17188814D01*
X11060190Y-17293576D01*
X11155429Y-17293576D02*
X11155429Y-17160243D01*
X11155429Y-17179290D02*
X11164952Y-17169767D01*
X11184000Y-17160243D01*
X11212571Y-17160243D01*
X11231619Y-17169767D01*
X11241143Y-17188814D01*
X11241143Y-17293576D01*
X11241143Y-17188814D02*
X11250667Y-17169767D01*
X11269714Y-17160243D01*
X11298286Y-17160243D01*
X11317333Y-17169767D01*
X11326857Y-17188814D01*
X11326857Y-17293576D01*
X11717333Y-17084052D02*
X11545905Y-17341195D01*
X11974476Y-17093576D02*
X11993524Y-17093576D01*
X12012571Y-17103100D01*
X12022095Y-17112624D01*
X12031619Y-17131671D01*
X12041143Y-17169767D01*
X12041143Y-17217386D01*
X12031619Y-17255481D01*
X12022095Y-17274529D01*
X12012571Y-17284052D01*
X11993524Y-17293576D01*
X11974476Y-17293576D01*
X11955428Y-17284052D01*
X11945905Y-17274529D01*
X11936381Y-17255481D01*
X11926857Y-17217386D01*
X11926857Y-17169767D01*
X11936381Y-17131671D01*
X11945905Y-17112624D01*
X11955428Y-17103100D01*
X11974476Y-17093576D01*
X12126857Y-17274529D02*
X12136381Y-17284052D01*
X12126857Y-17293576D01*
X12117333Y-17284052D01*
X12126857Y-17274529D01*
X12126857Y-17293576D01*
X12260190Y-17093576D02*
X12279238Y-17093576D01*
X12298286Y-17103100D01*
X12307809Y-17112624D01*
X12317333Y-17131671D01*
X12326857Y-17169767D01*
X12326857Y-17217386D01*
X12317333Y-17255481D01*
X12307809Y-17274529D01*
X12298286Y-17284052D01*
X12279238Y-17293576D01*
X12260190Y-17293576D01*
X12241143Y-17284052D01*
X12231619Y-17274529D01*
X12222095Y-17255481D01*
X12212571Y-17217386D01*
X12212571Y-17169767D01*
X12222095Y-17131671D01*
X12231619Y-17112624D01*
X12241143Y-17103100D01*
X12260190Y-17093576D01*
X12393524Y-17093576D02*
X12517333Y-17093576D01*
X12450667Y-17169767D01*
X12479238Y-17169767D01*
X12498286Y-17179290D01*
X12507809Y-17188814D01*
X12517333Y-17207862D01*
X12517333Y-17255481D01*
X12507809Y-17274529D01*
X12498286Y-17284052D01*
X12479238Y-17293576D01*
X12422095Y-17293576D01*
X12403048Y-17284052D01*
X12393524Y-17274529D01*
X12698286Y-17093576D02*
X12603048Y-17093576D01*
X12593524Y-17188814D01*
X12603048Y-17179290D01*
X12622095Y-17169767D01*
X12669714Y-17169767D01*
X12688762Y-17179290D01*
X12698286Y-17188814D01*
X12707809Y-17207862D01*
X12707809Y-17255481D01*
X12698286Y-17274529D01*
X12688762Y-17284052D01*
X12669714Y-17293576D01*
X12622095Y-17293576D01*
X12603048Y-17284052D01*
X12593524Y-17274529D01*
X12879238Y-17160243D02*
X12879238Y-17293576D01*
X12831619Y-17084052D02*
X12784000Y-17226910D01*
X12907809Y-17226910D01*
X12974476Y-17093576D02*
X12974476Y-17131671D01*
X13050667Y-17093576D02*
X13050667Y-17131671D01*
X13345905Y-17369767D02*
X13336381Y-17360243D01*
X13317333Y-17331671D01*
X13307809Y-17312624D01*
X13298286Y-17284052D01*
X13288762Y-17236433D01*
X13288762Y-17198338D01*
X13298286Y-17150719D01*
X13307809Y-17122148D01*
X13317333Y-17103100D01*
X13336381Y-17074529D01*
X13345905Y-17065005D01*
X13412571Y-17112624D02*
X13422095Y-17103100D01*
X13441143Y-17093576D01*
X13488762Y-17093576D01*
X13507809Y-17103100D01*
X13517333Y-17112624D01*
X13526857Y-17131671D01*
X13526857Y-17150719D01*
X13517333Y-17179290D01*
X13403048Y-17293576D01*
X13526857Y-17293576D01*
X13764952Y-17293576D02*
X13764952Y-17093576D01*
X13850667Y-17293576D02*
X13850667Y-17188814D01*
X13841143Y-17169767D01*
X13822095Y-17160243D01*
X13793524Y-17160243D01*
X13774476Y-17169767D01*
X13764952Y-17179290D01*
X13974476Y-17293576D02*
X13955428Y-17284052D01*
X13945905Y-17274529D01*
X13936381Y-17255481D01*
X13936381Y-17198338D01*
X13945905Y-17179290D01*
X13955428Y-17169767D01*
X13974476Y-17160243D01*
X14003048Y-17160243D01*
X14022095Y-17169767D01*
X14031619Y-17179290D01*
X14041143Y-17198338D01*
X14041143Y-17255481D01*
X14031619Y-17274529D01*
X14022095Y-17284052D01*
X14003048Y-17293576D01*
X13974476Y-17293576D01*
X14155428Y-17293576D02*
X14136381Y-17284052D01*
X14126857Y-17265005D01*
X14126857Y-17093576D01*
X14307809Y-17284052D02*
X14288762Y-17293576D01*
X14250667Y-17293576D01*
X14231619Y-17284052D01*
X14222095Y-17265005D01*
X14222095Y-17188814D01*
X14231619Y-17169767D01*
X14250667Y-17160243D01*
X14288762Y-17160243D01*
X14307809Y-17169767D01*
X14317333Y-17188814D01*
X14317333Y-17207862D01*
X14222095Y-17226910D01*
X14393524Y-17284052D02*
X14412571Y-17293576D01*
X14450667Y-17293576D01*
X14469714Y-17284052D01*
X14479238Y-17265005D01*
X14479238Y-17255481D01*
X14469714Y-17236433D01*
X14450667Y-17226910D01*
X14422095Y-17226910D01*
X14403048Y-17217386D01*
X14393524Y-17198338D01*
X14393524Y-17188814D01*
X14403048Y-17169767D01*
X14422095Y-17160243D01*
X14450667Y-17160243D01*
X14469714Y-17169767D01*
X14545905Y-17369767D02*
X14555428Y-17360243D01*
X14574476Y-17331671D01*
X14584000Y-17312624D01*
X14593524Y-17284052D01*
X14603048Y-17236433D01*
X14603048Y-17198338D01*
X14593524Y-17150719D01*
X14584000Y-17122148D01*
X14574476Y-17103100D01*
X14555428Y-17074529D01*
X14545905Y-17065005D01*
X14907809Y-17369767D02*
X14898286Y-17360243D01*
X14879238Y-17331671D01*
X14869714Y-17312624D01*
X14860190Y-17284052D01*
X14850667Y-17236433D01*
X14850667Y-17198338D01*
X14860190Y-17150719D01*
X14869714Y-17122148D01*
X14879238Y-17103100D01*
X14898286Y-17074529D01*
X14907809Y-17065005D01*
X14984000Y-17160243D02*
X14984000Y-17293576D01*
X14984000Y-17179290D02*
X14993524Y-17169767D01*
X15012571Y-17160243D01*
X15041143Y-17160243D01*
X15060190Y-17169767D01*
X15069714Y-17188814D01*
X15069714Y-17293576D01*
X15193524Y-17293576D02*
X15174476Y-17284052D01*
X15164952Y-17274529D01*
X15155428Y-17255481D01*
X15155428Y-17198338D01*
X15164952Y-17179290D01*
X15174476Y-17169767D01*
X15193524Y-17160243D01*
X15222095Y-17160243D01*
X15241143Y-17169767D01*
X15250667Y-17179290D01*
X15260190Y-17198338D01*
X15260190Y-17255481D01*
X15250667Y-17274529D01*
X15241143Y-17284052D01*
X15222095Y-17293576D01*
X15193524Y-17293576D01*
X15317333Y-17160243D02*
X15393524Y-17160243D01*
X15345905Y-17093576D02*
X15345905Y-17265005D01*
X15355428Y-17284052D01*
X15374476Y-17293576D01*
X15393524Y-17293576D01*
X15612571Y-17160243D02*
X15612571Y-17360243D01*
X15612571Y-17169767D02*
X15631619Y-17160243D01*
X15669714Y-17160243D01*
X15688762Y-17169767D01*
X15698286Y-17179290D01*
X15707809Y-17198338D01*
X15707809Y-17255481D01*
X15698286Y-17274529D01*
X15688762Y-17284052D01*
X15669714Y-17293576D01*
X15631619Y-17293576D01*
X15612571Y-17284052D01*
X15822095Y-17293576D02*
X15803048Y-17284052D01*
X15793524Y-17265005D01*
X15793524Y-17093576D01*
X15984000Y-17293576D02*
X15984000Y-17188814D01*
X15974476Y-17169767D01*
X15955428Y-17160243D01*
X15917333Y-17160243D01*
X15898286Y-17169767D01*
X15984000Y-17284052D02*
X15964952Y-17293576D01*
X15917333Y-17293576D01*
X15898286Y-17284052D01*
X15888762Y-17265005D01*
X15888762Y-17245957D01*
X15898286Y-17226910D01*
X15917333Y-17217386D01*
X15964952Y-17217386D01*
X15984000Y-17207862D01*
X16050667Y-17160243D02*
X16126857Y-17160243D01*
X16079238Y-17093576D02*
X16079238Y-17265005D01*
X16088762Y-17284052D01*
X16107809Y-17293576D01*
X16126857Y-17293576D01*
X16269714Y-17284052D02*
X16250667Y-17293576D01*
X16212571Y-17293576D01*
X16193524Y-17284052D01*
X16184000Y-17265005D01*
X16184000Y-17188814D01*
X16193524Y-17169767D01*
X16212571Y-17160243D01*
X16250667Y-17160243D01*
X16269714Y-17169767D01*
X16279238Y-17188814D01*
X16279238Y-17207862D01*
X16184000Y-17226910D01*
X16450667Y-17293576D02*
X16450667Y-17093576D01*
X16450667Y-17284052D02*
X16431619Y-17293576D01*
X16393524Y-17293576D01*
X16374476Y-17284052D01*
X16364952Y-17274529D01*
X16355428Y-17255481D01*
X16355428Y-17198338D01*
X16364952Y-17179290D01*
X16374476Y-17169767D01*
X16393524Y-17160243D01*
X16431619Y-17160243D01*
X16450667Y-17169767D01*
X16526857Y-17369767D02*
X16536381Y-17360243D01*
X16555428Y-17331671D01*
X16564952Y-17312624D01*
X16574476Y-17284052D01*
X16584000Y-17236433D01*
X16584000Y-17198338D01*
X16574476Y-17150719D01*
X16564952Y-17122148D01*
X16555428Y-17103100D01*
X16536381Y-17074529D01*
X16526857Y-17065005D01*
M02*
