M48
; DRILL file {KiCad (6.0.2)} date Tue Mar  8 19:39:56 2022
; FORMAT={-:-/ absolute / metric / decimal}
; #@! TF.CreationDate,2022-03-08T19:39:56+11:00
; #@! TF.GenerationSoftware,Kicad,Pcbnew,(6.0.2)
; #@! TF.FileFunction,Plated,1,4,PTH
FMAT,2
METRIC
; #@! TA.AperFunction,Plated,PTH,ViaDrill
T1C0.250
; #@! TA.AperFunction,Plated,PTH,ViaDrill
T2C0.400
; #@! TA.AperFunction,Plated,PTH,ComponentDrill
T3C0.600
; #@! TA.AperFunction,Plated,PTH,ComponentDrill
T4C0.750
; #@! TA.AperFunction,Plated,PTH,ComponentDrill
T5C0.800
; #@! TA.AperFunction,Plated,PTH,ComponentDrill
T6C1.000
; #@! TA.AperFunction,Plated,PTH,ComponentDrill
T7C1.500
; #@! TA.AperFunction,Plated,PTH,ComponentDrill
T8C2.200
%
G90
G05
T1
X115.062Y-123.19
X115.2Y-141.7
X115.316Y-127.508
X115.316Y-129.032
X115.316Y-131.064
X117.856Y-128.016
X117.856Y-129.54
X117.919Y-116.268
X118.466Y-124.968
X119.38Y-125.07
X119.38Y-128.016
X119.38Y-129.54
X119.761Y-119.507
X121.0Y-132.2
X121.285Y-116.078
X121.4Y-132.85
X121.9Y-133.5
X122.301Y-114.808
X124.968Y-139.065
X124.968Y-139.954
X124.968Y-138.23
X126.111Y-139.827
X126.746Y-114.554
X127.9Y-104.5
X128.397Y-139.954
X128.524Y-114.554
X129.032Y-124.257
X129.1Y-142.1
X129.159Y-138.43
X129.21Y-140.919
X129.413Y-139.954
X129.438Y-121.412
X129.667Y-117.602
X129.7Y-134.0
X129.997Y-131.42
X130.15Y-120.701
X130.175Y-136.652
X130.302Y-139.954
X131.445Y-118.364
X131.458Y-134.092
X131.699Y-131.318
X131.826Y-120.904
X132.588Y-131.318
X132.9Y-134.3
X132.969Y-120.904
X133.223Y-119.253
X133.782Y-139.37
X133.985Y-120.904
X134.62Y-127.127
X134.62Y-139.954
X134.747Y-124.968
X135.179Y-134.036
X135.255Y-118.364
X135.255Y-141.351
X135.636Y-115.443
X136.017Y-118.999
X136.652Y-128.473
X138.565Y-119.88
X140.843Y-119.38
X141.5Y-123.1
X141.59Y-125.97
X142.2Y-134.6
X142.545Y-129.232
X143.19Y-122.85
X143.53Y-123.56
X144.145Y-126.746
X144.831Y-131.826
X145.6Y-118.45
X146.66Y-130.251
X146.75Y-150.65
X146.8Y-118.45
X147.32Y-122.936
X147.8Y-135.8
X148.641Y-130.962
X148.742Y-126.898
X148.76Y-123.32
X149.15Y-150.65
X149.403Y-132.182
X149.86Y-120.142
X149.86Y-121.412
X150.35Y-129.5
X150.7Y-123.07
X151.13Y-120.142
X151.2Y-129.5
X151.35Y-150.65
X151.6Y-122.97
X151.892Y-120.904
X152.37Y-122.92
X152.916Y-118.84
X153.2Y-123.2
X153.7Y-150.65
X154.63Y-135.91
X154.75Y-135.05
X154.8Y-132.9
X155.354Y-130.731
X155.8Y-140.799
X155.8Y-142.1
X156.35Y-126.45
X156.45Y-141.45
X156.9Y-124.4
X157.0Y-142.1
X157.2Y-133.9
X157.3Y-127.9
X157.3Y-135.111
X157.75Y-137.6
X157.9Y-138.7
X158.0Y-153.0
X158.75Y-152.5
X159.639Y-139.065
X160.401Y-136.398
X162.052Y-138.811
X163.5Y-134.1
X170.8Y-84.55
X172.95Y-130.1
X173.9Y-134.2
X174.7Y-93.65
X174.9Y-84.0
X176.2Y-82.8
X176.95Y-157.25
X178.65Y-90.4
X180.2Y-134.2
T2
X116.992Y-140.818
X116.992Y-141.783
X117.297Y-124.663
X117.483Y-120.491
X118.258Y-131.28
X120.955Y-140.064
X121.375Y-141.986
X122.225Y-121.818
X122.681Y-124.219
X124.112Y-124.276
X124.333Y-114.465
X128.321Y-133.198
X128.321Y-134.341
X129.032Y-122.428
X132.08Y-127.381
X136.703Y-136.754
X136.707Y-135.787
X137.636Y-123.117
X137.973Y-122.022
X138.379Y-139.294
X139.141Y-121.971
X139.959Y-123.571
X140.31Y-121.92
X142.46Y-126.57
X144.069Y-117.373
X144.069Y-122.123
X145.593Y-133.615
X146.058Y-121.126
X146.058Y-122.212
X147.269Y-134.366
X148.128Y-133.615
X148.6Y-117.55
X149.2Y-133.147
X151.79Y-137.0
X151.951Y-134.182
X151.997Y-135.253
X154.186Y-122.142
X155.448Y-114.808
X159.309Y-124.054
X160.325Y-124.054
X161.392Y-128.27
X162.763Y-131.013
X163.45Y-124.2
X171.004Y-80.645
X171.835Y-81.401
X172.593Y-80.645
X173.482Y-81.407
T4
X121.109Y-127.018
X121.109Y-129.018
X159.774Y-132.88
X161.774Y-132.88
X161.957Y-104.648
X163.957Y-104.648
T6
X100.076Y-108.966
X100.076Y-111.506
X100.076Y-114.046
X100.076Y-116.586
X100.076Y-119.126
X100.076Y-121.666
X100.203Y-127.0
X100.203Y-129.54
X100.203Y-132.08
X100.203Y-134.62
X100.203Y-137.16
X100.203Y-139.7
X100.235Y-144.1
X102.616Y-108.966
X102.616Y-111.506
X102.616Y-114.046
X102.616Y-116.586
X102.616Y-119.126
X102.616Y-121.666
X102.743Y-127.0
X102.743Y-129.54
X102.743Y-132.08
X102.743Y-134.62
X102.743Y-137.16
X102.743Y-139.7
X102.775Y-144.1
X105.791Y-155.067
X105.791Y-157.607
X108.331Y-155.067
X108.331Y-157.607
X110.871Y-155.067
X110.871Y-157.607
X113.411Y-155.067
X113.411Y-157.607
X115.951Y-155.067
X115.951Y-157.607
X118.491Y-155.067
X118.491Y-157.607
X125.009Y-126.743
X125.009Y-129.283
X127.254Y-155.062
X127.254Y-157.602
X129.794Y-155.062
X129.794Y-157.602
X132.334Y-155.062
X132.334Y-157.602
X134.874Y-155.062
X134.874Y-157.602
X137.414Y-155.062
X137.414Y-157.602
X139.954Y-155.062
X139.954Y-157.602
X144.526Y-155.067
X144.526Y-157.607
X147.066Y-155.067
X147.066Y-157.607
X149.606Y-155.067
X149.606Y-157.607
X152.146Y-155.067
X152.146Y-157.607
X154.686Y-155.067
X154.686Y-157.607
X157.226Y-155.067
X157.226Y-157.607
X161.5Y-155.0
X161.5Y-157.54
X164.04Y-155.0
X164.04Y-157.54
X166.58Y-155.0
X166.58Y-157.54
X169.12Y-155.0
X169.12Y-157.54
X171.45Y-97.775
X171.45Y-100.315
X171.66Y-155.0
X171.66Y-157.54
X174.2Y-155.0
X174.2Y-157.54
X175.438Y-97.79
X175.438Y-100.33
X175.884Y-107.09
X175.884Y-111.332
X175.884Y-113.872
X175.884Y-116.412
X175.884Y-118.952
X175.884Y-121.492
X175.884Y-124.032
X175.935Y-136.85
X175.935Y-139.39
X175.935Y-141.93
X175.935Y-144.47
X175.935Y-147.01
X175.935Y-149.55
X178.424Y-107.09
X178.424Y-111.332
X178.424Y-113.872
X178.424Y-116.412
X178.424Y-118.952
X178.424Y-121.492
X178.424Y-124.032
X178.475Y-136.85
X178.475Y-139.39
X178.475Y-141.93
X178.475Y-144.47
X178.475Y-147.01
X178.475Y-149.55
X179.273Y-97.81
X179.273Y-100.35
T8
X100.965Y-72.598
X100.965Y-160.02
X181.102Y-72.598
X181.102Y-160.02
T3
X157.021Y-114.46G85X158.121Y-114.46
G05
X157.021Y-123.1G85X158.121Y-123.1
G05
X161.451Y-114.46G85X162.051Y-114.46
G05
X161.451Y-123.1G85X162.051Y-123.1
G05
X167.765Y-72.323G85X167.765Y-71.723
G05
X167.765Y-76.753G85X167.765Y-75.653
G05
X176.405Y-72.323G85X176.405Y-71.723
G05
X176.405Y-76.753G85X176.405Y-75.653
G05
T5
X162.671Y-141.351G85X160.671Y-141.351
G05
T7
X116.661Y-137.083G85X117.661Y-137.083
G05
T8
X158.75Y-90.735G85X158.75Y-88.335
G05
X163.83Y-90.735G85X163.83Y-88.335
G05
T0
M30
