%FSLAX45Y45*%
G04 Gerber Fmt 4.5, Leading zero omitted, Abs format (unit mm)*
G04 Created by KiCad (PCBNEW (6.0.2)) date 2022-03-08 19:39:57*
%MOMM*%
%LPD*%
G01*
G04 APERTURE LIST*
%TA.AperFunction,Profile*%
%ADD10C,0.100000*%
%TD*%
%ADD11C,0.200000*%
%ADD12C,0.025000*%
%ADD13C,0.040000*%
%ADD14C,0.060000*%
%ADD15C,0.075000*%
%ADD16C,0.080000*%
%ADD17C,0.100000*%
%ADD18C,0.150000*%
%ADD19C,0.220000*%
G04 APERTURE END LIST*
D10*
X9779000Y-16192500D02*
X9779000Y-7035800D01*
X15036800Y-10693400D02*
X17043400Y-10693400D01*
X10820400Y-6934200D02*
X9880600Y-6934200D01*
X11430000Y-12268200D02*
X10820400Y-12268200D01*
X13411200Y-11303000D02*
X16281400Y-11303000D01*
X12446000Y-14325600D02*
X15697200Y-14325600D01*
X16002000Y-14325600D02*
X16002000Y-14935200D01*
X16281400Y-14325600D02*
G75*
G03*
X16433800Y-14173200I0J152400D01*
G01*
X16281400Y-14325600D02*
X16002000Y-14325600D01*
X11430000Y-14173200D02*
G75*
G03*
X11582400Y-14325600I152400J0D01*
G01*
X11226800Y-6934200D02*
X11150600Y-7010400D01*
X14630400Y-10693400D02*
X13411200Y-10693400D01*
X14630400Y-10693400D02*
X14706600Y-10617200D01*
X9779000Y-16192500D02*
G75*
G03*
X9880600Y-16294100I101600J0D01*
G01*
X17043400Y-10693400D02*
X17043400Y-12674600D01*
X16002000Y-14935200D02*
X17043400Y-14935200D01*
X11430000Y-11963400D02*
X11430000Y-11455400D01*
X10896600Y-10617200D02*
X11150600Y-10617200D01*
X11582400Y-11303000D02*
G75*
G03*
X11430000Y-11455400I0J-152400D01*
G01*
X10896600Y-7010400D02*
X10820400Y-6934200D01*
X11150600Y-10617200D02*
X11226800Y-10693400D01*
X17043400Y-12979400D02*
X16433800Y-12979400D01*
X15697200Y-14935200D02*
X12446000Y-14935200D01*
X10820400Y-14935200D02*
X12141200Y-14935200D01*
X13411200Y-11303000D02*
X13411200Y-10693400D01*
X17043400Y-14935200D02*
X17043400Y-12979400D01*
X18338800Y-16294100D02*
X9880600Y-16294100D01*
X15697200Y-14325600D02*
X15697200Y-14935200D01*
X17043400Y-12674600D02*
X16433800Y-12674600D01*
X10820400Y-10693400D02*
X10896600Y-10617200D01*
X11582400Y-11303000D02*
X13106400Y-11303000D01*
X12141200Y-14325600D02*
X12141200Y-14935200D01*
X11430000Y-12268200D02*
X11430000Y-14173200D01*
X14960600Y-10617200D02*
X15036800Y-10693400D01*
X15036800Y-6934200D02*
X18338800Y-6934200D01*
X9880600Y-6934200D02*
G75*
G03*
X9779000Y-7035800I0J-101600D01*
G01*
X11430000Y-11963400D02*
X10820400Y-11963400D01*
X13106400Y-11303000D02*
X13106400Y-10693400D01*
X12446000Y-14325600D02*
X12446000Y-14935200D01*
X18338800Y-16294100D02*
G75*
G03*
X18440400Y-16192500I0J101600D01*
G01*
X16433800Y-12979400D02*
X16433800Y-14173200D01*
X16433800Y-11455400D02*
G75*
G03*
X16281400Y-11303000I-152400J0D01*
G01*
X10820400Y-11963400D02*
X10820400Y-10693400D01*
X18440400Y-7035800D02*
X18440400Y-16192500D01*
X18440400Y-7035800D02*
G75*
G03*
X18338800Y-6934200I-101600J0D01*
G01*
X14960600Y-7010400D02*
X14706600Y-7010400D01*
X14706600Y-10617200D02*
X14960600Y-10617200D01*
X11226800Y-10693400D02*
X13106400Y-10693400D01*
X16433800Y-12674600D02*
X16433800Y-11455400D01*
X14630400Y-6934200D02*
X11226800Y-6934200D01*
X10820400Y-12268200D02*
X10820400Y-14935200D01*
X12141200Y-14325600D02*
X11582400Y-14325600D01*
X15036800Y-6934200D02*
X14960600Y-7010400D01*
X14706600Y-7010400D02*
X14630400Y-6934200D01*
X11150600Y-7010400D02*
X10896600Y-7010400D01*
D11*
D12*
X11493700Y-12306500D02*
X11518700Y-12331500D01*
X11518700Y-12306500D02*
X11493700Y-12331500D01*
X11507500Y-14157500D02*
X11532500Y-14182500D01*
X11532500Y-14157500D02*
X11507500Y-14182500D01*
X11519100Y-12738300D02*
X11544100Y-12763300D01*
X11544100Y-12738300D02*
X11519100Y-12763300D01*
X11519100Y-12890700D02*
X11544100Y-12915700D01*
X11544100Y-12890700D02*
X11519100Y-12915700D01*
X11519100Y-13093900D02*
X11544100Y-13118900D01*
X11544100Y-13093900D02*
X11519100Y-13118900D01*
X11773100Y-12789100D02*
X11798100Y-12814100D01*
X11798100Y-12789100D02*
X11773100Y-12814100D01*
X11773100Y-12941500D02*
X11798100Y-12966500D01*
X11798100Y-12941500D02*
X11773100Y-12966500D01*
X11779450Y-11614350D02*
X11804450Y-11639350D01*
X11804450Y-11614350D02*
X11779450Y-11639350D01*
X11834060Y-12484300D02*
X11859060Y-12509300D01*
X11859060Y-12484300D02*
X11834060Y-12509300D01*
X11925500Y-12494460D02*
X11950500Y-12519460D01*
X11950500Y-12494460D02*
X11925500Y-12519460D01*
X11925500Y-12789100D02*
X11950500Y-12814100D01*
X11950500Y-12789100D02*
X11925500Y-12814100D01*
X11925500Y-12941500D02*
X11950500Y-12966500D01*
X11950500Y-12941500D02*
X11925500Y-12966500D01*
X11963600Y-11938200D02*
X11988600Y-11963200D01*
X11988600Y-11938200D02*
X11963600Y-11963200D01*
X12087500Y-13207500D02*
X12112500Y-13232500D01*
X12112500Y-13207500D02*
X12087500Y-13232500D01*
X12116000Y-11595300D02*
X12141000Y-11620300D01*
X12141000Y-11595300D02*
X12116000Y-11620300D01*
X12127500Y-13272500D02*
X12152500Y-13297500D01*
X12152500Y-13272500D02*
X12127500Y-13297500D01*
X12177500Y-13337500D02*
X12202500Y-13362500D01*
X12202500Y-13337500D02*
X12177500Y-13362500D01*
X12217600Y-11468300D02*
X12242600Y-11493300D01*
X12242600Y-11468300D02*
X12217600Y-11493300D01*
X12484300Y-13894000D02*
X12509300Y-13919000D01*
X12509300Y-13894000D02*
X12484300Y-13919000D01*
X12484300Y-13982900D02*
X12509300Y-14007900D01*
X12509300Y-13982900D02*
X12484300Y-14007900D01*
X12484300Y-13810500D02*
X12509300Y-13835500D01*
X12509300Y-13810500D02*
X12484300Y-13835500D01*
X12598600Y-13970200D02*
X12623600Y-13995200D01*
X12623600Y-13970200D02*
X12598600Y-13995200D01*
X12662100Y-11442900D02*
X12687100Y-11467900D01*
X12687100Y-11442900D02*
X12662100Y-11467900D01*
X12777500Y-10437500D02*
X12802500Y-10462500D01*
X12802500Y-10437500D02*
X12777500Y-10462500D01*
X12827200Y-13982900D02*
X12852200Y-14007900D01*
X12852200Y-13982900D02*
X12827200Y-14007900D01*
X12839900Y-11442900D02*
X12864900Y-11467900D01*
X12864900Y-11442900D02*
X12839900Y-11467900D01*
X12890700Y-12413180D02*
X12915700Y-12438180D01*
X12915700Y-12413180D02*
X12890700Y-12438180D01*
X12897500Y-14197500D02*
X12922500Y-14222500D01*
X12922500Y-14197500D02*
X12897500Y-14222500D01*
X12903400Y-13830500D02*
X12928400Y-13855500D01*
X12928400Y-13830500D02*
X12903400Y-13855500D01*
X12908480Y-14079420D02*
X12933480Y-14104420D01*
X12933480Y-14079420D02*
X12908480Y-14104420D01*
X12928800Y-13982900D02*
X12953800Y-14007900D01*
X12953800Y-13982900D02*
X12928800Y-14007900D01*
X12931340Y-12128700D02*
X12956340Y-12153700D01*
X12956340Y-12128700D02*
X12931340Y-12153700D01*
X12954200Y-11747700D02*
X12979200Y-11772700D01*
X12979200Y-11747700D02*
X12954200Y-11772700D01*
X12957500Y-13387500D02*
X12982500Y-13412500D01*
X12982500Y-13387500D02*
X12957500Y-13412500D01*
X12987220Y-13129460D02*
X13012220Y-13154460D01*
X13012220Y-13129460D02*
X12987220Y-13154460D01*
X13002460Y-12057580D02*
X13027460Y-12082580D01*
X13027460Y-12057580D02*
X13002460Y-12082580D01*
X13005000Y-13652700D02*
X13030000Y-13677700D01*
X13030000Y-13652700D02*
X13005000Y-13677700D01*
X13017700Y-13982900D02*
X13042700Y-14007900D01*
X13042700Y-13982900D02*
X13017700Y-14007900D01*
X13132000Y-11823900D02*
X13157000Y-11848900D01*
X13157000Y-11823900D02*
X13132000Y-11848900D01*
X13133300Y-13396700D02*
X13158300Y-13421700D01*
X13158300Y-13396700D02*
X13133300Y-13421700D01*
X13157400Y-13119300D02*
X13182400Y-13144300D01*
X13182400Y-13119300D02*
X13157400Y-13144300D01*
X13170100Y-12077900D02*
X13195100Y-12102900D01*
X13195100Y-12077900D02*
X13170100Y-12102900D01*
X13246300Y-13119300D02*
X13271300Y-13144300D01*
X13271300Y-13119300D02*
X13246300Y-13144300D01*
X13277500Y-13417500D02*
X13302500Y-13442500D01*
X13302500Y-13417500D02*
X13277500Y-13442500D01*
X13284400Y-12077900D02*
X13309400Y-12102900D01*
X13309400Y-12077900D02*
X13284400Y-12102900D01*
X13309800Y-11912800D02*
X13334800Y-11937800D01*
X13334800Y-11912800D02*
X13309800Y-11937800D01*
X13365680Y-13924480D02*
X13390680Y-13949480D01*
X13390680Y-13924480D02*
X13365680Y-13949480D01*
X13386000Y-12077900D02*
X13411000Y-12102900D01*
X13411000Y-12077900D02*
X13386000Y-12102900D01*
X13449500Y-12700200D02*
X13474500Y-12725200D01*
X13474500Y-12700200D02*
X13449500Y-12725200D01*
X13449500Y-13982900D02*
X13474500Y-14007900D01*
X13474500Y-13982900D02*
X13449500Y-14007900D01*
X13462200Y-12484300D02*
X13487200Y-12509300D01*
X13487200Y-12484300D02*
X13462200Y-12509300D01*
X13505380Y-13391080D02*
X13530380Y-13416080D01*
X13530380Y-13391080D02*
X13505380Y-13416080D01*
X13513000Y-11823900D02*
X13538000Y-11848900D01*
X13538000Y-11823900D02*
X13513000Y-11848900D01*
X13513000Y-14122600D02*
X13538000Y-14147600D01*
X13538000Y-14122600D02*
X13513000Y-14147600D01*
X13551100Y-11531800D02*
X13576100Y-11556800D01*
X13576100Y-11531800D02*
X13551100Y-11556800D01*
X13589200Y-11887400D02*
X13614200Y-11912400D01*
X13614200Y-11887400D02*
X13589200Y-11912400D01*
X13652700Y-12834820D02*
X13677700Y-12859820D01*
X13677700Y-12834820D02*
X13652700Y-12859820D01*
X13844000Y-11975500D02*
X13869000Y-12000500D01*
X13869000Y-11975500D02*
X13844000Y-12000500D01*
X14071800Y-11925500D02*
X14096800Y-11950500D01*
X14096800Y-11925500D02*
X14071800Y-11950500D01*
X14137500Y-12297500D02*
X14162500Y-12322500D01*
X14162500Y-12297500D02*
X14137500Y-12322500D01*
X14146500Y-12584500D02*
X14171500Y-12609500D01*
X14171500Y-12584500D02*
X14146500Y-12609500D01*
X14207500Y-13447500D02*
X14232500Y-13472500D01*
X14232500Y-13447500D02*
X14207500Y-13472500D01*
X14241980Y-12910699D02*
X14266980Y-12935699D01*
X14266980Y-12910699D02*
X14241980Y-12935699D01*
X14306500Y-12272500D02*
X14331500Y-12297500D01*
X14331500Y-12272500D02*
X14306500Y-12297500D01*
X14340500Y-12343500D02*
X14365500Y-12368500D01*
X14365500Y-12343500D02*
X14340500Y-12368500D01*
X14402000Y-12662100D02*
X14427000Y-12687100D01*
X14427000Y-12662100D02*
X14402000Y-12687100D01*
X14470580Y-13170100D02*
X14495580Y-13195100D01*
X14495580Y-13170100D02*
X14470580Y-13195100D01*
X14547500Y-11832500D02*
X14572500Y-11857500D01*
X14572500Y-11832500D02*
X14547500Y-11857500D01*
X14653460Y-13012620D02*
X14678460Y-13037620D01*
X14678460Y-13012620D02*
X14653460Y-13037620D01*
X14662500Y-15052500D02*
X14687500Y-15077500D01*
X14687500Y-15052500D02*
X14662500Y-15077500D01*
X14667500Y-11832500D02*
X14692500Y-11857500D01*
X14692500Y-11832500D02*
X14667500Y-11857500D01*
X14719500Y-12281100D02*
X14744500Y-12306100D01*
X14744500Y-12281100D02*
X14719500Y-12306100D01*
X14767500Y-13567500D02*
X14792500Y-13592500D01*
X14792500Y-13567500D02*
X14767500Y-13592500D01*
X14851580Y-13083740D02*
X14876580Y-13108740D01*
X14876580Y-13083740D02*
X14851580Y-13108740D01*
X14861740Y-12677340D02*
X14886740Y-12702340D01*
X14886740Y-12677340D02*
X14861740Y-12702340D01*
X14863500Y-12319500D02*
X14888500Y-12344500D01*
X14888500Y-12319500D02*
X14863500Y-12344500D01*
X14902500Y-15052500D02*
X14927500Y-15077500D01*
X14927500Y-15052500D02*
X14902500Y-15077500D01*
X14927780Y-13205660D02*
X14952780Y-13230660D01*
X14952780Y-13205660D02*
X14927780Y-13230660D01*
X14973500Y-12001700D02*
X14998500Y-12026700D01*
X14998500Y-12001700D02*
X14973500Y-12026700D01*
X14973500Y-12128700D02*
X14998500Y-12153700D01*
X14998500Y-12128700D02*
X14973500Y-12153700D01*
X15022500Y-12937500D02*
X15047500Y-12962500D01*
X15047500Y-12937500D02*
X15022500Y-12962500D01*
X15057500Y-12294500D02*
X15082500Y-12319500D01*
X15082500Y-12294500D02*
X15057500Y-12319500D01*
X15100500Y-12001700D02*
X15125500Y-12026700D01*
X15125500Y-12001700D02*
X15100500Y-12026700D01*
X15107500Y-12937500D02*
X15132500Y-12962500D01*
X15132500Y-12937500D02*
X15107500Y-12962500D01*
X15122500Y-15052500D02*
X15147500Y-15077500D01*
X15147500Y-15052500D02*
X15122500Y-15077500D01*
X15147500Y-12284500D02*
X15172500Y-12309500D01*
X15172500Y-12284500D02*
X15147500Y-12309500D01*
X15176700Y-12077900D02*
X15201700Y-12102900D01*
X15201700Y-12077900D02*
X15176700Y-12102900D01*
X15224500Y-12279500D02*
X15249500Y-12304500D01*
X15249500Y-12279500D02*
X15224500Y-12304500D01*
X15279100Y-11871500D02*
X15304100Y-11896500D01*
X15304100Y-11871500D02*
X15279100Y-11896500D01*
X15307500Y-12307500D02*
X15332500Y-12332500D01*
X15332500Y-12307500D02*
X15307500Y-12332500D01*
X15357500Y-15052500D02*
X15382500Y-15077500D01*
X15382500Y-15052500D02*
X15357500Y-15077500D01*
X15450500Y-13578500D02*
X15475500Y-13603500D01*
X15475500Y-13578500D02*
X15450500Y-13603500D01*
X15462500Y-13492500D02*
X15487500Y-13517500D01*
X15487500Y-13492500D02*
X15462500Y-13517500D01*
X15467500Y-13277500D02*
X15492500Y-13302500D01*
X15492500Y-13277500D02*
X15467500Y-13302500D01*
X15522911Y-13060622D02*
X15547911Y-13085622D01*
X15547911Y-13060622D02*
X15522911Y-13085622D01*
X15567500Y-14067450D02*
X15592500Y-14092450D01*
X15592500Y-14067450D02*
X15567500Y-14092450D01*
X15567500Y-14197500D02*
X15592500Y-14222500D01*
X15592500Y-14197500D02*
X15567500Y-14222500D01*
X15622500Y-12632500D02*
X15647500Y-12657500D01*
X15647500Y-12632500D02*
X15622500Y-12657500D01*
X15632500Y-14132500D02*
X15657500Y-14157500D01*
X15657500Y-14132500D02*
X15632500Y-14157500D01*
X15677500Y-12427500D02*
X15702500Y-12452500D01*
X15702500Y-12427500D02*
X15677500Y-12452500D01*
X15687500Y-14197500D02*
X15712500Y-14222500D01*
X15712500Y-14197500D02*
X15687500Y-14222500D01*
X15707500Y-13377500D02*
X15732500Y-13402500D01*
X15732500Y-13377500D02*
X15707500Y-13402500D01*
X15717500Y-12777500D02*
X15742500Y-12802500D01*
X15742500Y-12777500D02*
X15717500Y-12802500D01*
X15717501Y-13498647D02*
X15742501Y-13523647D01*
X15742501Y-13498647D02*
X15717501Y-13523647D01*
X15762500Y-13747500D02*
X15787500Y-13772500D01*
X15787500Y-13747500D02*
X15762500Y-13772500D01*
X15777500Y-13857500D02*
X15802500Y-13882500D01*
X15802500Y-13857500D02*
X15777500Y-13882500D01*
X15787500Y-15287500D02*
X15812500Y-15312500D01*
X15812500Y-15287500D02*
X15787500Y-15312500D01*
X15862500Y-15237500D02*
X15887500Y-15262500D01*
X15887500Y-15237500D02*
X15862500Y-15262500D01*
X15951400Y-13894000D02*
X15976400Y-13919000D01*
X15976400Y-13894000D02*
X15951400Y-13919000D01*
X16027600Y-13627300D02*
X16052600Y-13652300D01*
X16052600Y-13627300D02*
X16027600Y-13652300D01*
X16192700Y-13868600D02*
X16217700Y-13893600D01*
X16217700Y-13868600D02*
X16192700Y-13893600D01*
X16337500Y-13397500D02*
X16362500Y-13422500D01*
X16362500Y-13397500D02*
X16337500Y-13422500D01*
X17067500Y-8442500D02*
X17092500Y-8467500D01*
X17092500Y-8442500D02*
X17067500Y-8467500D01*
X17282500Y-12997500D02*
X17307500Y-13022500D01*
X17307500Y-12997500D02*
X17282500Y-13022500D01*
X17377500Y-13407500D02*
X17402500Y-13432500D01*
X17402500Y-13407500D02*
X17377500Y-13432500D01*
X17457500Y-9352500D02*
X17482500Y-9377500D01*
X17482500Y-9352500D02*
X17457500Y-9377500D01*
X17477500Y-8387500D02*
X17502500Y-8412500D01*
X17502500Y-8387500D02*
X17477500Y-8412500D01*
X17607500Y-8267500D02*
X17632500Y-8292500D01*
X17632500Y-8267500D02*
X17607500Y-8292500D01*
X17682500Y-15712500D02*
X17707500Y-15737500D01*
X17707500Y-15712500D02*
X17682500Y-15737500D01*
X17852500Y-9027500D02*
X17877500Y-9052500D01*
X17877500Y-9027500D02*
X17852500Y-9052500D01*
X18007500Y-13407500D02*
X18032500Y-13432500D01*
X18032500Y-13407500D02*
X18007500Y-13432500D01*
D13*
X11719240Y-14081760D02*
G75*
G03*
X11719240Y-14081760I-20000J0D01*
G01*
X11719240Y-14178280D02*
G75*
G03*
X11719240Y-14178280I-20000J0D01*
G01*
X11749720Y-12466320D02*
G75*
G03*
X11749720Y-12466320I-20000J0D01*
G01*
X11768300Y-12049100D02*
G75*
G03*
X11768300Y-12049100I-20000J0D01*
G01*
X11845779Y-13128050D02*
G75*
G03*
X11845779Y-13128050I-20000J0D01*
G01*
X12115480Y-14006450D02*
G75*
G03*
X12115480Y-14006450I-20000J0D01*
G01*
X12157550Y-14198600D02*
G75*
G03*
X12157550Y-14198600I-20000J0D01*
G01*
X12242480Y-12181840D02*
G75*
G03*
X12242480Y-12181840I-20000J0D01*
G01*
X12288075Y-12421930D02*
G75*
G03*
X12288075Y-12421930I-20000J0D01*
G01*
X12431240Y-12427560D02*
G75*
G03*
X12431240Y-12427560I-20000J0D01*
G01*
X12453300Y-11446450D02*
G75*
G03*
X12453300Y-11446450I-20000J0D01*
G01*
X12852080Y-13319760D02*
G75*
G03*
X12852080Y-13319760I-20000J0D01*
G01*
X12852080Y-13434060D02*
G75*
G03*
X12852080Y-13434060I-20000J0D01*
G01*
X12923200Y-12242800D02*
G75*
G03*
X12923200Y-12242800I-20000J0D01*
G01*
X13228000Y-12738100D02*
G75*
G03*
X13228000Y-12738100I-20000J0D01*
G01*
X13690280Y-13675360D02*
G75*
G03*
X13690280Y-13675360I-20000J0D01*
G01*
X13690687Y-13578678D02*
G75*
G03*
X13690687Y-13578678I-20000J0D01*
G01*
X13783611Y-12311735D02*
G75*
G03*
X13783611Y-12311735I-20000J0D01*
G01*
X13817280Y-12202160D02*
G75*
G03*
X13817280Y-12202160I-20000J0D01*
G01*
X13857920Y-13929360D02*
G75*
G03*
X13857920Y-13929360I-20000J0D01*
G01*
X13934120Y-12197080D02*
G75*
G03*
X13934120Y-12197080I-20000J0D01*
G01*
X14015935Y-12357118D02*
G75*
G03*
X14015935Y-12357118I-20000J0D01*
G01*
X14050960Y-12192000D02*
G75*
G03*
X14050960Y-12192000I-20000J0D01*
G01*
X14266000Y-12657000D02*
G75*
G03*
X14266000Y-12657000I-20000J0D01*
G01*
X14426880Y-11737340D02*
G75*
G03*
X14426880Y-11737340I-20000J0D01*
G01*
X14426880Y-12212320D02*
G75*
G03*
X14426880Y-12212320I-20000J0D01*
G01*
X14579280Y-13361522D02*
G75*
G03*
X14579280Y-13361522I-20000J0D01*
G01*
X14625800Y-12112600D02*
G75*
G03*
X14625800Y-12112600I-20000J0D01*
G01*
X14625800Y-12221150D02*
G75*
G03*
X14625800Y-12221150I-20000J0D01*
G01*
X14746920Y-13436600D02*
G75*
G03*
X14746920Y-13436600I-20000J0D01*
G01*
X14832766Y-13361522D02*
G75*
G03*
X14832766Y-13361522I-20000J0D01*
G01*
X14880000Y-11755000D02*
G75*
G03*
X14880000Y-11755000I-20000J0D01*
G01*
X14939960Y-13314680D02*
G75*
G03*
X14939960Y-13314680I-20000J0D01*
G01*
X15199040Y-13700000D02*
G75*
G03*
X15199040Y-13700000I-20000J0D01*
G01*
X15215080Y-13418160D02*
G75*
G03*
X15215080Y-13418160I-20000J0D01*
G01*
X15219730Y-13525270D02*
G75*
G03*
X15219730Y-13525270I-20000J0D01*
G01*
X15438600Y-12214200D02*
G75*
G03*
X15438600Y-12214200I-20000J0D01*
G01*
X15564800Y-11480800D02*
G75*
G03*
X15564800Y-11480800I-20000J0D01*
G01*
X15950880Y-12405360D02*
G75*
G03*
X15950880Y-12405360I-20000J0D01*
G01*
X16052480Y-12405360D02*
G75*
G03*
X16052480Y-12405360I-20000J0D01*
G01*
X16159160Y-12827000D02*
G75*
G03*
X16159160Y-12827000I-20000J0D01*
G01*
X16296320Y-13101320D02*
G75*
G03*
X16296320Y-13101320I-20000J0D01*
G01*
X16365000Y-12420000D02*
G75*
G03*
X16365000Y-12420000I-20000J0D01*
G01*
X17120350Y-8064500D02*
G75*
G03*
X17120350Y-8064500I-20000J0D01*
G01*
X17203500Y-8140100D02*
G75*
G03*
X17203500Y-8140100I-20000J0D01*
G01*
X17279300Y-8064500D02*
G75*
G03*
X17279300Y-8064500I-20000J0D01*
G01*
X17368200Y-8140700D02*
G75*
G03*
X17368200Y-8140700I-20000J0D01*
G01*
D14*
X15757100Y-11416000D02*
X15757100Y-11476000D01*
X15727100Y-11446000D02*
X15787100Y-11446000D01*
D11*
X15702100Y-11466000D02*
X15812100Y-11466000D01*
X15702100Y-11426000D02*
X15812100Y-11426000D01*
X15812100Y-11466000D02*
G75*
G03*
X15812100Y-11426000I0J20000D01*
G01*
X15702100Y-11426000D02*
G75*
G03*
X15702100Y-11466000I0J-20000D01*
G01*
D14*
X15757100Y-12280000D02*
X15757100Y-12340000D01*
X15727100Y-12310000D02*
X15787100Y-12310000D01*
D11*
X15702100Y-12330000D02*
X15812100Y-12330000D01*
X15702100Y-12290000D02*
X15812100Y-12290000D01*
X15812100Y-12330000D02*
G75*
G03*
X15812100Y-12290000I0J20000D01*
G01*
X15702100Y-12290000D02*
G75*
G03*
X15702100Y-12330000I0J-20000D01*
G01*
D14*
X16175100Y-11416000D02*
X16175100Y-11476000D01*
X16145100Y-11446000D02*
X16205100Y-11446000D01*
D11*
X16145100Y-11466000D02*
X16205100Y-11466000D01*
X16145100Y-11426000D02*
X16205100Y-11426000D01*
X16205100Y-11466000D02*
G75*
G03*
X16205100Y-11426000I0J20000D01*
G01*
X16145100Y-11426000D02*
G75*
G03*
X16145100Y-11466000I0J-20000D01*
G01*
D14*
X16175100Y-12280000D02*
X16175100Y-12340000D01*
X16145100Y-12310000D02*
X16205100Y-12310000D01*
D11*
X16145100Y-12330000D02*
X16205100Y-12330000D01*
X16145100Y-12290000D02*
X16205100Y-12290000D01*
X16205100Y-12330000D02*
G75*
G03*
X16205100Y-12290000I0J20000D01*
G01*
X16145100Y-12290000D02*
G75*
G03*
X16145100Y-12330000I0J-20000D01*
G01*
D14*
X16776500Y-7172320D02*
X16776500Y-7232320D01*
X16746500Y-7202320D02*
X16806500Y-7202320D01*
D11*
X16796500Y-7232320D02*
X16796500Y-7172320D01*
X16756500Y-7232320D02*
X16756500Y-7172320D01*
X16796500Y-7172320D02*
G75*
G03*
X16756500Y-7172320I-20000J0D01*
G01*
X16756500Y-7232320D02*
G75*
G03*
X16796500Y-7232320I20000J0D01*
G01*
D14*
X16776500Y-7590320D02*
X16776500Y-7650320D01*
X16746500Y-7620320D02*
X16806500Y-7620320D01*
D11*
X16796500Y-7675320D02*
X16796500Y-7565320D01*
X16756500Y-7675320D02*
X16756500Y-7565320D01*
X16796500Y-7565320D02*
G75*
G03*
X16756500Y-7565320I-20000J0D01*
G01*
X16756500Y-7675320D02*
G75*
G03*
X16796500Y-7675320I20000J0D01*
G01*
D14*
X17640500Y-7172320D02*
X17640500Y-7232320D01*
X17610500Y-7202320D02*
X17670500Y-7202320D01*
D11*
X17660500Y-7232320D02*
X17660500Y-7172320D01*
X17620500Y-7232320D02*
X17620500Y-7172320D01*
X17660500Y-7172320D02*
G75*
G03*
X17620500Y-7172320I-20000J0D01*
G01*
X17620500Y-7232320D02*
G75*
G03*
X17660500Y-7232320I20000J0D01*
G01*
D14*
X17640500Y-7590320D02*
X17640500Y-7650320D01*
X17610500Y-7620320D02*
X17670500Y-7620320D01*
D11*
X17660500Y-7675320D02*
X17660500Y-7565320D01*
X17620500Y-7675320D02*
X17620500Y-7565320D01*
X17660500Y-7565320D02*
G75*
G03*
X17620500Y-7565320I-20000J0D01*
G01*
X17620500Y-7675320D02*
G75*
G03*
X17660500Y-7675320I20000J0D01*
G01*
D15*
X12137417Y-12728317D02*
X12137417Y-12675283D01*
X12084383Y-12675283D01*
X12084383Y-12728317D01*
X12137417Y-12728317D01*
X12137417Y-12928317D02*
X12137417Y-12875283D01*
X12084383Y-12875283D01*
X12084383Y-12928317D01*
X12137417Y-12928317D01*
X16003917Y-13314517D02*
X16003917Y-13261483D01*
X15950883Y-13261483D01*
X15950883Y-13314517D01*
X16003917Y-13314517D01*
X16203917Y-13314517D02*
X16203917Y-13261483D01*
X16150883Y-13261483D01*
X16150883Y-13314517D01*
X16203917Y-13314517D01*
X16222217Y-10491317D02*
X16222217Y-10438283D01*
X16169183Y-10438283D01*
X16169183Y-10491317D01*
X16222217Y-10491317D01*
X16422217Y-10491317D02*
X16422217Y-10438283D01*
X16369183Y-10438283D01*
X16369183Y-10491317D01*
X16422217Y-10491317D01*
D16*
X16167100Y-14175100D02*
X16207100Y-14135100D01*
X16167100Y-14095100D01*
X16127100Y-14135100D01*
X16167100Y-14175100D01*
D11*
X16267100Y-14105100D02*
X16067100Y-14105100D01*
X16267100Y-14165100D02*
X16067100Y-14165100D01*
X16067100Y-14105100D02*
G75*
G03*
X16067100Y-14165100I0J-30000D01*
G01*
X16267100Y-14165100D02*
G75*
G03*
X16267100Y-14105100I0J30000D01*
G01*
D17*
X9957600Y-10846600D02*
X10057600Y-10946600D01*
X10057600Y-10846600D02*
X9957600Y-10946600D01*
X10057600Y-10896600D02*
G75*
G03*
X10057600Y-10896600I-50000J0D01*
G01*
X9957600Y-11100600D02*
X10057600Y-11200600D01*
X10057600Y-11100600D02*
X9957600Y-11200600D01*
X10057600Y-11150600D02*
G75*
G03*
X10057600Y-11150600I-50000J0D01*
G01*
X9957600Y-11354600D02*
X10057600Y-11454600D01*
X10057600Y-11354600D02*
X9957600Y-11454600D01*
X10057600Y-11404600D02*
G75*
G03*
X10057600Y-11404600I-50000J0D01*
G01*
X9957600Y-11608600D02*
X10057600Y-11708600D01*
X10057600Y-11608600D02*
X9957600Y-11708600D01*
X10057600Y-11658600D02*
G75*
G03*
X10057600Y-11658600I-50000J0D01*
G01*
X9957600Y-11862600D02*
X10057600Y-11962600D01*
X10057600Y-11862600D02*
X9957600Y-11962600D01*
X10057600Y-11912600D02*
G75*
G03*
X10057600Y-11912600I-50000J0D01*
G01*
X9957600Y-12116600D02*
X10057600Y-12216600D01*
X10057600Y-12116600D02*
X9957600Y-12216600D01*
X10057600Y-12166600D02*
G75*
G03*
X10057600Y-12166600I-50000J0D01*
G01*
X9970300Y-12650000D02*
X10070300Y-12750000D01*
X10070300Y-12650000D02*
X9970300Y-12750000D01*
X10070300Y-12700000D02*
G75*
G03*
X10070300Y-12700000I-50000J0D01*
G01*
X9970300Y-12904000D02*
X10070300Y-13004000D01*
X10070300Y-12904000D02*
X9970300Y-13004000D01*
X10070300Y-12954000D02*
G75*
G03*
X10070300Y-12954000I-50000J0D01*
G01*
X9970300Y-13158000D02*
X10070300Y-13258000D01*
X10070300Y-13158000D02*
X9970300Y-13258000D01*
X10070300Y-13208000D02*
G75*
G03*
X10070300Y-13208000I-50000J0D01*
G01*
X9970300Y-13412000D02*
X10070300Y-13512000D01*
X10070300Y-13412000D02*
X9970300Y-13512000D01*
X10070300Y-13462000D02*
G75*
G03*
X10070300Y-13462000I-50000J0D01*
G01*
X9970300Y-13666000D02*
X10070300Y-13766000D01*
X10070300Y-13666000D02*
X9970300Y-13766000D01*
X10070300Y-13716000D02*
G75*
G03*
X10070300Y-13716000I-50000J0D01*
G01*
X9970300Y-13920000D02*
X10070300Y-14020000D01*
X10070300Y-13920000D02*
X9970300Y-14020000D01*
X10070300Y-13970000D02*
G75*
G03*
X10070300Y-13970000I-50000J0D01*
G01*
X9973500Y-14360000D02*
X10073500Y-14460000D01*
X10073500Y-14360000D02*
X9973500Y-14460000D01*
X10073500Y-14410000D02*
G75*
G03*
X10073500Y-14410000I-50000J0D01*
G01*
X10211600Y-10846600D02*
X10311600Y-10946600D01*
X10311600Y-10846600D02*
X10211600Y-10946600D01*
X10311600Y-10896600D02*
G75*
G03*
X10311600Y-10896600I-50000J0D01*
G01*
X10211600Y-11100600D02*
X10311600Y-11200600D01*
X10311600Y-11100600D02*
X10211600Y-11200600D01*
X10311600Y-11150600D02*
G75*
G03*
X10311600Y-11150600I-50000J0D01*
G01*
X10211600Y-11354600D02*
X10311600Y-11454600D01*
X10311600Y-11354600D02*
X10211600Y-11454600D01*
X10311600Y-11404600D02*
G75*
G03*
X10311600Y-11404600I-50000J0D01*
G01*
X10211600Y-11608600D02*
X10311600Y-11708600D01*
X10311600Y-11608600D02*
X10211600Y-11708600D01*
X10311600Y-11658600D02*
G75*
G03*
X10311600Y-11658600I-50000J0D01*
G01*
X10211600Y-11862600D02*
X10311600Y-11962600D01*
X10311600Y-11862600D02*
X10211600Y-11962600D01*
X10311600Y-11912600D02*
G75*
G03*
X10311600Y-11912600I-50000J0D01*
G01*
X10211600Y-12116600D02*
X10311600Y-12216600D01*
X10311600Y-12116600D02*
X10211600Y-12216600D01*
X10311600Y-12166600D02*
G75*
G03*
X10311600Y-12166600I-50000J0D01*
G01*
X10224300Y-12650000D02*
X10324300Y-12750000D01*
X10324300Y-12650000D02*
X10224300Y-12750000D01*
X10324300Y-12700000D02*
G75*
G03*
X10324300Y-12700000I-50000J0D01*
G01*
X10224300Y-12904000D02*
X10324300Y-13004000D01*
X10324300Y-12904000D02*
X10224300Y-13004000D01*
X10324300Y-12954000D02*
G75*
G03*
X10324300Y-12954000I-50000J0D01*
G01*
X10224300Y-13158000D02*
X10324300Y-13258000D01*
X10324300Y-13158000D02*
X10224300Y-13258000D01*
X10324300Y-13208000D02*
G75*
G03*
X10324300Y-13208000I-50000J0D01*
G01*
X10224300Y-13412000D02*
X10324300Y-13512000D01*
X10324300Y-13412000D02*
X10224300Y-13512000D01*
X10324300Y-13462000D02*
G75*
G03*
X10324300Y-13462000I-50000J0D01*
G01*
X10224300Y-13666000D02*
X10324300Y-13766000D01*
X10324300Y-13666000D02*
X10224300Y-13766000D01*
X10324300Y-13716000D02*
G75*
G03*
X10324300Y-13716000I-50000J0D01*
G01*
X10224300Y-13920000D02*
X10324300Y-14020000D01*
X10324300Y-13920000D02*
X10224300Y-14020000D01*
X10324300Y-13970000D02*
G75*
G03*
X10324300Y-13970000I-50000J0D01*
G01*
X10227500Y-14360000D02*
X10327500Y-14460000D01*
X10327500Y-14360000D02*
X10227500Y-14460000D01*
X10327500Y-14410000D02*
G75*
G03*
X10327500Y-14410000I-50000J0D01*
G01*
X10529100Y-15456700D02*
X10629100Y-15556700D01*
X10629100Y-15456700D02*
X10529100Y-15556700D01*
X10629100Y-15506700D02*
G75*
G03*
X10629100Y-15506700I-50000J0D01*
G01*
X10529100Y-15710700D02*
X10629100Y-15810700D01*
X10629100Y-15710700D02*
X10529100Y-15810700D01*
X10629100Y-15760700D02*
G75*
G03*
X10629100Y-15760700I-50000J0D01*
G01*
X10783100Y-15456700D02*
X10883100Y-15556700D01*
X10883100Y-15456700D02*
X10783100Y-15556700D01*
X10883100Y-15506700D02*
G75*
G03*
X10883100Y-15506700I-50000J0D01*
G01*
X10783100Y-15710700D02*
X10883100Y-15810700D01*
X10883100Y-15710700D02*
X10783100Y-15810700D01*
X10883100Y-15760700D02*
G75*
G03*
X10883100Y-15760700I-50000J0D01*
G01*
X11037100Y-15456700D02*
X11137100Y-15556700D01*
X11137100Y-15456700D02*
X11037100Y-15556700D01*
X11137100Y-15506700D02*
G75*
G03*
X11137100Y-15506700I-50000J0D01*
G01*
X11037100Y-15710700D02*
X11137100Y-15810700D01*
X11137100Y-15710700D02*
X11037100Y-15810700D01*
X11137100Y-15760700D02*
G75*
G03*
X11137100Y-15760700I-50000J0D01*
G01*
X11291100Y-15456700D02*
X11391100Y-15556700D01*
X11391100Y-15456700D02*
X11291100Y-15556700D01*
X11391100Y-15506700D02*
G75*
G03*
X11391100Y-15506700I-50000J0D01*
G01*
X11291100Y-15710700D02*
X11391100Y-15810700D01*
X11391100Y-15710700D02*
X11291100Y-15810700D01*
X11391100Y-15760700D02*
G75*
G03*
X11391100Y-15760700I-50000J0D01*
G01*
X11545100Y-15456700D02*
X11645100Y-15556700D01*
X11645100Y-15456700D02*
X11545100Y-15556700D01*
X11645100Y-15506700D02*
G75*
G03*
X11645100Y-15506700I-50000J0D01*
G01*
X11545100Y-15710700D02*
X11645100Y-15810700D01*
X11645100Y-15710700D02*
X11545100Y-15810700D01*
X11645100Y-15760700D02*
G75*
G03*
X11645100Y-15760700I-50000J0D01*
G01*
X11799100Y-15456700D02*
X11899100Y-15556700D01*
X11899100Y-15456700D02*
X11799100Y-15556700D01*
X11899100Y-15506700D02*
G75*
G03*
X11899100Y-15506700I-50000J0D01*
G01*
X11799100Y-15710700D02*
X11899100Y-15810700D01*
X11899100Y-15710700D02*
X11799100Y-15810700D01*
X11899100Y-15760700D02*
G75*
G03*
X11899100Y-15760700I-50000J0D01*
G01*
X12450900Y-12624300D02*
X12550900Y-12724300D01*
X12550900Y-12624300D02*
X12450900Y-12724300D01*
X12550900Y-12674300D02*
G75*
G03*
X12550900Y-12674300I-50000J0D01*
G01*
X12450900Y-12878300D02*
X12550900Y-12978300D01*
X12550900Y-12878300D02*
X12450900Y-12978300D01*
X12550900Y-12928300D02*
G75*
G03*
X12550900Y-12928300I-50000J0D01*
G01*
X12675400Y-15456200D02*
X12775400Y-15556200D01*
X12775400Y-15456200D02*
X12675400Y-15556200D01*
X12775400Y-15506200D02*
G75*
G03*
X12775400Y-15506200I-50000J0D01*
G01*
X12675400Y-15710200D02*
X12775400Y-15810200D01*
X12775400Y-15710200D02*
X12675400Y-15810200D01*
X12775400Y-15760200D02*
G75*
G03*
X12775400Y-15760200I-50000J0D01*
G01*
X12929400Y-15456200D02*
X13029400Y-15556200D01*
X13029400Y-15456200D02*
X12929400Y-15556200D01*
X13029400Y-15506200D02*
G75*
G03*
X13029400Y-15506200I-50000J0D01*
G01*
X12929400Y-15710200D02*
X13029400Y-15810200D01*
X13029400Y-15710200D02*
X12929400Y-15810200D01*
X13029400Y-15760200D02*
G75*
G03*
X13029400Y-15760200I-50000J0D01*
G01*
X13183400Y-15456200D02*
X13283400Y-15556200D01*
X13283400Y-15456200D02*
X13183400Y-15556200D01*
X13283400Y-15506200D02*
G75*
G03*
X13283400Y-15506200I-50000J0D01*
G01*
X13183400Y-15710200D02*
X13283400Y-15810200D01*
X13283400Y-15710200D02*
X13183400Y-15810200D01*
X13283400Y-15760200D02*
G75*
G03*
X13283400Y-15760200I-50000J0D01*
G01*
X13437400Y-15456200D02*
X13537400Y-15556200D01*
X13537400Y-15456200D02*
X13437400Y-15556200D01*
X13537400Y-15506200D02*
G75*
G03*
X13537400Y-15506200I-50000J0D01*
G01*
X13437400Y-15710200D02*
X13537400Y-15810200D01*
X13537400Y-15710200D02*
X13437400Y-15810200D01*
X13537400Y-15760200D02*
G75*
G03*
X13537400Y-15760200I-50000J0D01*
G01*
X13691400Y-15456200D02*
X13791400Y-15556200D01*
X13791400Y-15456200D02*
X13691400Y-15556200D01*
X13791400Y-15506200D02*
G75*
G03*
X13791400Y-15506200I-50000J0D01*
G01*
X13691400Y-15710200D02*
X13791400Y-15810200D01*
X13791400Y-15710200D02*
X13691400Y-15810200D01*
X13791400Y-15760200D02*
G75*
G03*
X13791400Y-15760200I-50000J0D01*
G01*
X13945400Y-15456200D02*
X14045400Y-15556200D01*
X14045400Y-15456200D02*
X13945400Y-15556200D01*
X14045400Y-15506200D02*
G75*
G03*
X14045400Y-15506200I-50000J0D01*
G01*
X13945400Y-15710200D02*
X14045400Y-15810200D01*
X14045400Y-15710200D02*
X13945400Y-15810200D01*
X14045400Y-15760200D02*
G75*
G03*
X14045400Y-15760200I-50000J0D01*
G01*
X14402600Y-15456700D02*
X14502600Y-15556700D01*
X14502600Y-15456700D02*
X14402600Y-15556700D01*
X14502600Y-15506700D02*
G75*
G03*
X14502600Y-15506700I-50000J0D01*
G01*
X14402600Y-15710700D02*
X14502600Y-15810700D01*
X14502600Y-15710700D02*
X14402600Y-15810700D01*
X14502600Y-15760700D02*
G75*
G03*
X14502600Y-15760700I-50000J0D01*
G01*
X14656600Y-15456700D02*
X14756600Y-15556700D01*
X14756600Y-15456700D02*
X14656600Y-15556700D01*
X14756600Y-15506700D02*
G75*
G03*
X14756600Y-15506700I-50000J0D01*
G01*
X14656600Y-15710700D02*
X14756600Y-15810700D01*
X14756600Y-15710700D02*
X14656600Y-15810700D01*
X14756600Y-15760700D02*
G75*
G03*
X14756600Y-15760700I-50000J0D01*
G01*
X14910600Y-15456700D02*
X15010600Y-15556700D01*
X15010600Y-15456700D02*
X14910600Y-15556700D01*
X15010600Y-15506700D02*
G75*
G03*
X15010600Y-15506700I-50000J0D01*
G01*
X14910600Y-15710700D02*
X15010600Y-15810700D01*
X15010600Y-15710700D02*
X14910600Y-15810700D01*
X15010600Y-15760700D02*
G75*
G03*
X15010600Y-15760700I-50000J0D01*
G01*
X15164600Y-15456700D02*
X15264600Y-15556700D01*
X15264600Y-15456700D02*
X15164600Y-15556700D01*
X15264600Y-15506700D02*
G75*
G03*
X15264600Y-15506700I-50000J0D01*
G01*
X15164600Y-15710700D02*
X15264600Y-15810700D01*
X15264600Y-15710700D02*
X15164600Y-15810700D01*
X15264600Y-15760700D02*
G75*
G03*
X15264600Y-15760700I-50000J0D01*
G01*
X15418600Y-15456700D02*
X15518600Y-15556700D01*
X15518600Y-15456700D02*
X15418600Y-15556700D01*
X15518600Y-15506700D02*
G75*
G03*
X15518600Y-15506700I-50000J0D01*
G01*
X15418600Y-15710700D02*
X15518600Y-15810700D01*
X15518600Y-15710700D02*
X15418600Y-15810700D01*
X15518600Y-15760700D02*
G75*
G03*
X15518600Y-15760700I-50000J0D01*
G01*
X15672600Y-15456700D02*
X15772600Y-15556700D01*
X15772600Y-15456700D02*
X15672600Y-15556700D01*
X15772600Y-15506700D02*
G75*
G03*
X15772600Y-15506700I-50000J0D01*
G01*
X15672600Y-15710700D02*
X15772600Y-15810700D01*
X15772600Y-15710700D02*
X15672600Y-15810700D01*
X15772600Y-15760700D02*
G75*
G03*
X15772600Y-15760700I-50000J0D01*
G01*
X16100000Y-15450000D02*
X16200000Y-15550000D01*
X16200000Y-15450000D02*
X16100000Y-15550000D01*
X16200000Y-15500000D02*
G75*
G03*
X16200000Y-15500000I-50000J0D01*
G01*
X16100000Y-15704000D02*
X16200000Y-15804000D01*
X16200000Y-15704000D02*
X16100000Y-15804000D01*
X16200000Y-15754000D02*
G75*
G03*
X16200000Y-15754000I-50000J0D01*
G01*
X16354000Y-15450000D02*
X16454000Y-15550000D01*
X16454000Y-15450000D02*
X16354000Y-15550000D01*
X16454000Y-15500000D02*
G75*
G03*
X16454000Y-15500000I-50000J0D01*
G01*
X16354000Y-15704000D02*
X16454000Y-15804000D01*
X16454000Y-15704000D02*
X16354000Y-15804000D01*
X16454000Y-15754000D02*
G75*
G03*
X16454000Y-15754000I-50000J0D01*
G01*
X16608000Y-15450000D02*
X16708000Y-15550000D01*
X16708000Y-15450000D02*
X16608000Y-15550000D01*
X16708000Y-15500000D02*
G75*
G03*
X16708000Y-15500000I-50000J0D01*
G01*
X16608000Y-15704000D02*
X16708000Y-15804000D01*
X16708000Y-15704000D02*
X16608000Y-15804000D01*
X16708000Y-15754000D02*
G75*
G03*
X16708000Y-15754000I-50000J0D01*
G01*
X16862000Y-15450000D02*
X16962000Y-15550000D01*
X16962000Y-15450000D02*
X16862000Y-15550000D01*
X16962000Y-15500000D02*
G75*
G03*
X16962000Y-15500000I-50000J0D01*
G01*
X16862000Y-15704000D02*
X16962000Y-15804000D01*
X16962000Y-15704000D02*
X16862000Y-15804000D01*
X16962000Y-15754000D02*
G75*
G03*
X16962000Y-15754000I-50000J0D01*
G01*
X17095000Y-9727500D02*
X17195000Y-9827500D01*
X17195000Y-9727500D02*
X17095000Y-9827500D01*
X17195000Y-9777500D02*
G75*
G03*
X17195000Y-9777500I-50000J0D01*
G01*
X17095000Y-9981500D02*
X17195000Y-10081500D01*
X17195000Y-9981500D02*
X17095000Y-10081500D01*
X17195000Y-10031500D02*
G75*
G03*
X17195000Y-10031500I-50000J0D01*
G01*
X17116000Y-15450000D02*
X17216000Y-15550000D01*
X17216000Y-15450000D02*
X17116000Y-15550000D01*
X17216000Y-15500000D02*
G75*
G03*
X17216000Y-15500000I-50000J0D01*
G01*
X17116000Y-15704000D02*
X17216000Y-15804000D01*
X17216000Y-15704000D02*
X17116000Y-15804000D01*
X17216000Y-15754000D02*
G75*
G03*
X17216000Y-15754000I-50000J0D01*
G01*
X17370000Y-15450000D02*
X17470000Y-15550000D01*
X17470000Y-15450000D02*
X17370000Y-15550000D01*
X17470000Y-15500000D02*
G75*
G03*
X17470000Y-15500000I-50000J0D01*
G01*
X17370000Y-15704000D02*
X17470000Y-15804000D01*
X17470000Y-15704000D02*
X17370000Y-15804000D01*
X17470000Y-15754000D02*
G75*
G03*
X17470000Y-15754000I-50000J0D01*
G01*
X17493780Y-9729000D02*
X17593780Y-9829000D01*
X17593780Y-9729000D02*
X17493780Y-9829000D01*
X17593780Y-9779000D02*
G75*
G03*
X17593780Y-9779000I-50000J0D01*
G01*
X17493780Y-9983000D02*
X17593780Y-10083000D01*
X17593780Y-9983000D02*
X17493780Y-10083000D01*
X17593780Y-10033000D02*
G75*
G03*
X17593780Y-10033000I-50000J0D01*
G01*
X17538400Y-10658980D02*
X17638400Y-10758980D01*
X17638400Y-10658980D02*
X17538400Y-10758980D01*
X17638400Y-10708980D02*
G75*
G03*
X17638400Y-10708980I-50000J0D01*
G01*
X17538400Y-11083160D02*
X17638400Y-11183160D01*
X17638400Y-11083160D02*
X17538400Y-11183160D01*
X17638400Y-11133160D02*
G75*
G03*
X17638400Y-11133160I-50000J0D01*
G01*
X17538400Y-11337160D02*
X17638400Y-11437160D01*
X17638400Y-11337160D02*
X17538400Y-11437160D01*
X17638400Y-11387160D02*
G75*
G03*
X17638400Y-11387160I-50000J0D01*
G01*
X17538400Y-11591160D02*
X17638400Y-11691160D01*
X17638400Y-11591160D02*
X17538400Y-11691160D01*
X17638400Y-11641160D02*
G75*
G03*
X17638400Y-11641160I-50000J0D01*
G01*
X17538400Y-11845160D02*
X17638400Y-11945160D01*
X17638400Y-11845160D02*
X17538400Y-11945160D01*
X17638400Y-11895160D02*
G75*
G03*
X17638400Y-11895160I-50000J0D01*
G01*
X17538400Y-12099160D02*
X17638400Y-12199160D01*
X17638400Y-12099160D02*
X17538400Y-12199160D01*
X17638400Y-12149160D02*
G75*
G03*
X17638400Y-12149160I-50000J0D01*
G01*
X17538400Y-12353160D02*
X17638400Y-12453160D01*
X17638400Y-12353160D02*
X17538400Y-12453160D01*
X17638400Y-12403160D02*
G75*
G03*
X17638400Y-12403160I-50000J0D01*
G01*
X17543500Y-13635000D02*
X17643500Y-13735000D01*
X17643500Y-13635000D02*
X17543500Y-13735000D01*
X17643500Y-13685000D02*
G75*
G03*
X17643500Y-13685000I-50000J0D01*
G01*
X17543500Y-13889000D02*
X17643500Y-13989000D01*
X17643500Y-13889000D02*
X17543500Y-13989000D01*
X17643500Y-13939000D02*
G75*
G03*
X17643500Y-13939000I-50000J0D01*
G01*
X17543500Y-14143000D02*
X17643500Y-14243000D01*
X17643500Y-14143000D02*
X17543500Y-14243000D01*
X17643500Y-14193000D02*
G75*
G03*
X17643500Y-14193000I-50000J0D01*
G01*
X17543500Y-14397000D02*
X17643500Y-14497000D01*
X17643500Y-14397000D02*
X17543500Y-14497000D01*
X17643500Y-14447000D02*
G75*
G03*
X17643500Y-14447000I-50000J0D01*
G01*
X17543500Y-14651000D02*
X17643500Y-14751000D01*
X17643500Y-14651000D02*
X17543500Y-14751000D01*
X17643500Y-14701000D02*
G75*
G03*
X17643500Y-14701000I-50000J0D01*
G01*
X17543500Y-14905000D02*
X17643500Y-15005000D01*
X17643500Y-14905000D02*
X17543500Y-15005000D01*
X17643500Y-14955000D02*
G75*
G03*
X17643500Y-14955000I-50000J0D01*
G01*
X17792400Y-10658980D02*
X17892400Y-10758980D01*
X17892400Y-10658980D02*
X17792400Y-10758980D01*
X17892400Y-10708980D02*
G75*
G03*
X17892400Y-10708980I-50000J0D01*
G01*
X17792400Y-11083160D02*
X17892400Y-11183160D01*
X17892400Y-11083160D02*
X17792400Y-11183160D01*
X17892400Y-11133160D02*
G75*
G03*
X17892400Y-11133160I-50000J0D01*
G01*
X17792400Y-11337160D02*
X17892400Y-11437160D01*
X17892400Y-11337160D02*
X17792400Y-11437160D01*
X17892400Y-11387160D02*
G75*
G03*
X17892400Y-11387160I-50000J0D01*
G01*
X17792400Y-11591160D02*
X17892400Y-11691160D01*
X17892400Y-11591160D02*
X17792400Y-11691160D01*
X17892400Y-11641160D02*
G75*
G03*
X17892400Y-11641160I-50000J0D01*
G01*
X17792400Y-11845160D02*
X17892400Y-11945160D01*
X17892400Y-11845160D02*
X17792400Y-11945160D01*
X17892400Y-11895160D02*
G75*
G03*
X17892400Y-11895160I-50000J0D01*
G01*
X17792400Y-12099160D02*
X17892400Y-12199160D01*
X17892400Y-12099160D02*
X17792400Y-12199160D01*
X17892400Y-12149160D02*
G75*
G03*
X17892400Y-12149160I-50000J0D01*
G01*
X17792400Y-12353160D02*
X17892400Y-12453160D01*
X17892400Y-12353160D02*
X17792400Y-12453160D01*
X17892400Y-12403160D02*
G75*
G03*
X17892400Y-12403160I-50000J0D01*
G01*
X17797500Y-13635000D02*
X17897500Y-13735000D01*
X17897500Y-13635000D02*
X17797500Y-13735000D01*
X17897500Y-13685000D02*
G75*
G03*
X17897500Y-13685000I-50000J0D01*
G01*
X17797500Y-13889000D02*
X17897500Y-13989000D01*
X17897500Y-13889000D02*
X17797500Y-13989000D01*
X17897500Y-13939000D02*
G75*
G03*
X17897500Y-13939000I-50000J0D01*
G01*
X17797500Y-14143000D02*
X17897500Y-14243000D01*
X17897500Y-14143000D02*
X17797500Y-14243000D01*
X17897500Y-14193000D02*
G75*
G03*
X17897500Y-14193000I-50000J0D01*
G01*
X17797500Y-14397000D02*
X17897500Y-14497000D01*
X17897500Y-14397000D02*
X17797500Y-14497000D01*
X17897500Y-14447000D02*
G75*
G03*
X17897500Y-14447000I-50000J0D01*
G01*
X17797500Y-14651000D02*
X17897500Y-14751000D01*
X17897500Y-14651000D02*
X17797500Y-14751000D01*
X17897500Y-14701000D02*
G75*
G03*
X17897500Y-14701000I-50000J0D01*
G01*
X17797500Y-14905000D02*
X17897500Y-15005000D01*
X17897500Y-14905000D02*
X17797500Y-15005000D01*
X17897500Y-14955000D02*
G75*
G03*
X17897500Y-14955000I-50000J0D01*
G01*
X17877320Y-9731040D02*
X17977320Y-9831040D01*
X17977320Y-9731040D02*
X17877320Y-9831040D01*
X17977320Y-9781040D02*
G75*
G03*
X17977320Y-9781040I-50000J0D01*
G01*
X17877320Y-9985040D02*
X17977320Y-10085040D01*
X17977320Y-9985040D02*
X17877320Y-10085040D01*
X17977320Y-10035040D02*
G75*
G03*
X17977320Y-10035040I-50000J0D01*
G01*
D18*
X11641100Y-13633300D02*
X11791100Y-13783300D01*
X11791100Y-13633300D02*
X11641100Y-13783300D01*
X11716100Y-13633300D02*
X11716100Y-13783300D01*
X11641100Y-13708300D02*
X11791100Y-13708300D01*
D11*
X11666100Y-13773300D02*
X11766100Y-13773300D01*
X11666100Y-13643300D02*
X11766100Y-13643300D01*
X11766100Y-13773300D02*
G75*
G03*
X11766100Y-13643300I0J65000D01*
G01*
X11666100Y-13643300D02*
G75*
G03*
X11666100Y-13773300I0J-65000D01*
G01*
D19*
X9986500Y-7149820D02*
X10206500Y-7369820D01*
X10206500Y-7149820D02*
X9986500Y-7369820D01*
X10174283Y-7337602D02*
X10174283Y-7182037D01*
X10018718Y-7182037D01*
X10018718Y-7337602D01*
X10174283Y-7337602D01*
X9986500Y-15892000D02*
X10206500Y-16112000D01*
X10206500Y-15892000D02*
X9986500Y-16112000D01*
X10174283Y-16079782D02*
X10174283Y-15924217D01*
X10018718Y-15924217D01*
X10018718Y-16079782D01*
X10174283Y-16079782D01*
X15765000Y-8843500D02*
X15985000Y-9063500D01*
X15985000Y-8843500D02*
X15765000Y-9063500D01*
X15952782Y-9031283D02*
X15952782Y-8875718D01*
X15797217Y-8875718D01*
X15797217Y-9031283D01*
X15952782Y-9031283D01*
D11*
X15975000Y-9073500D02*
X15975000Y-8833500D01*
X15775000Y-9073500D02*
X15775000Y-8833500D01*
X15975000Y-8833500D02*
G75*
G03*
X15775000Y-8833500I-100000J0D01*
G01*
X15775000Y-9073500D02*
G75*
G03*
X15975000Y-9073500I100000J0D01*
G01*
D19*
X16273000Y-8843500D02*
X16493000Y-9063500D01*
X16493000Y-8843500D02*
X16273000Y-9063500D01*
X16460782Y-9031283D02*
X16460782Y-8875718D01*
X16305217Y-8875718D01*
X16305217Y-9031283D01*
X16460782Y-9031283D01*
D11*
X16483000Y-9073500D02*
X16483000Y-8833500D01*
X16283000Y-9073500D02*
X16283000Y-8833500D01*
X16483000Y-8833500D02*
G75*
G03*
X16283000Y-8833500I-100000J0D01*
G01*
X16283000Y-9073500D02*
G75*
G03*
X16483000Y-9073500I100000J0D01*
G01*
D19*
X18000200Y-7149820D02*
X18220200Y-7369820D01*
X18220200Y-7149820D02*
X18000200Y-7369820D01*
X18187983Y-7337602D02*
X18187983Y-7182037D01*
X18032418Y-7182037D01*
X18032418Y-7337602D01*
X18187983Y-7337602D01*
X18000200Y-15892000D02*
X18220200Y-16112000D01*
X18220200Y-15892000D02*
X18000200Y-16112000D01*
X18187983Y-16079782D02*
X18187983Y-15924217D01*
X18032418Y-15924217D01*
X18032418Y-16079782D01*
X18187983Y-16079782D01*
D11*
X10031619Y-16609576D02*
X10031619Y-16409576D01*
X10079238Y-16409576D01*
X10107810Y-16419100D01*
X10126857Y-16438148D01*
X10136381Y-16457195D01*
X10145905Y-16495290D01*
X10145905Y-16523862D01*
X10136381Y-16561957D01*
X10126857Y-16581005D01*
X10107810Y-16600052D01*
X10079238Y-16609576D01*
X10031619Y-16609576D01*
X10231619Y-16609576D02*
X10231619Y-16476243D01*
X10231619Y-16514338D02*
X10241143Y-16495290D01*
X10250667Y-16485767D01*
X10269714Y-16476243D01*
X10288762Y-16476243D01*
X10355429Y-16609576D02*
X10355429Y-16476243D01*
X10355429Y-16409576D02*
X10345905Y-16419100D01*
X10355429Y-16428624D01*
X10364952Y-16419100D01*
X10355429Y-16409576D01*
X10355429Y-16428624D01*
X10479238Y-16609576D02*
X10460190Y-16600052D01*
X10450667Y-16581005D01*
X10450667Y-16409576D01*
X10584000Y-16609576D02*
X10564952Y-16600052D01*
X10555429Y-16581005D01*
X10555429Y-16409576D01*
X10812571Y-16609576D02*
X10812571Y-16409576D01*
X10879238Y-16552433D01*
X10945905Y-16409576D01*
X10945905Y-16609576D01*
X11126857Y-16609576D02*
X11126857Y-16504814D01*
X11117333Y-16485767D01*
X11098286Y-16476243D01*
X11060190Y-16476243D01*
X11041143Y-16485767D01*
X11126857Y-16600052D02*
X11107810Y-16609576D01*
X11060190Y-16609576D01*
X11041143Y-16600052D01*
X11031619Y-16581005D01*
X11031619Y-16561957D01*
X11041143Y-16542909D01*
X11060190Y-16533386D01*
X11107810Y-16533386D01*
X11126857Y-16523862D01*
X11222095Y-16476243D02*
X11222095Y-16676243D01*
X11222095Y-16485767D02*
X11241143Y-16476243D01*
X11279238Y-16476243D01*
X11298286Y-16485767D01*
X11307809Y-16495290D01*
X11317333Y-16514338D01*
X11317333Y-16571481D01*
X11307809Y-16590528D01*
X11298286Y-16600052D01*
X11279238Y-16609576D01*
X11241143Y-16609576D01*
X11222095Y-16600052D01*
X11403048Y-16590528D02*
X11412571Y-16600052D01*
X11403048Y-16609576D01*
X11393524Y-16600052D01*
X11403048Y-16590528D01*
X11403048Y-16609576D01*
X11403048Y-16485767D02*
X11412571Y-16495290D01*
X11403048Y-16504814D01*
X11393524Y-16495290D01*
X11403048Y-16485767D01*
X11403048Y-16504814D01*
D12*
X9749000Y-16926600D02*
X9774000Y-16951600D01*
X9774000Y-16926600D02*
X9749000Y-16951600D01*
D11*
X10069714Y-16829576D02*
X10088762Y-16829576D01*
X10107810Y-16839100D01*
X10117333Y-16848624D01*
X10126857Y-16867671D01*
X10136381Y-16905767D01*
X10136381Y-16953386D01*
X10126857Y-16991481D01*
X10117333Y-17010529D01*
X10107810Y-17020052D01*
X10088762Y-17029576D01*
X10069714Y-17029576D01*
X10050667Y-17020052D01*
X10041143Y-17010529D01*
X10031619Y-16991481D01*
X10022095Y-16953386D01*
X10022095Y-16905767D01*
X10031619Y-16867671D01*
X10041143Y-16848624D01*
X10050667Y-16839100D01*
X10069714Y-16829576D01*
X10222095Y-17010529D02*
X10231619Y-17020052D01*
X10222095Y-17029576D01*
X10212571Y-17020052D01*
X10222095Y-17010529D01*
X10222095Y-17029576D01*
X10307810Y-16848624D02*
X10317333Y-16839100D01*
X10336381Y-16829576D01*
X10384000Y-16829576D01*
X10403048Y-16839100D01*
X10412571Y-16848624D01*
X10422095Y-16867671D01*
X10422095Y-16886719D01*
X10412571Y-16915290D01*
X10298286Y-17029576D01*
X10422095Y-17029576D01*
X10603048Y-16829576D02*
X10507810Y-16829576D01*
X10498286Y-16924814D01*
X10507810Y-16915290D01*
X10526857Y-16905767D01*
X10574476Y-16905767D01*
X10593524Y-16915290D01*
X10603048Y-16924814D01*
X10612571Y-16943862D01*
X10612571Y-16991481D01*
X10603048Y-17010529D01*
X10593524Y-17020052D01*
X10574476Y-17029576D01*
X10526857Y-17029576D01*
X10507810Y-17020052D01*
X10498286Y-17010529D01*
X10736381Y-16829576D02*
X10755429Y-16829576D01*
X10774476Y-16839100D01*
X10784000Y-16848624D01*
X10793524Y-16867671D01*
X10803048Y-16905767D01*
X10803048Y-16953386D01*
X10793524Y-16991481D01*
X10784000Y-17010529D01*
X10774476Y-17020052D01*
X10755429Y-17029576D01*
X10736381Y-17029576D01*
X10717333Y-17020052D01*
X10707810Y-17010529D01*
X10698286Y-16991481D01*
X10688762Y-16953386D01*
X10688762Y-16905767D01*
X10698286Y-16867671D01*
X10707810Y-16848624D01*
X10717333Y-16839100D01*
X10736381Y-16829576D01*
X10888762Y-17029576D02*
X10888762Y-16896243D01*
X10888762Y-16915290D02*
X10898286Y-16905767D01*
X10917333Y-16896243D01*
X10945905Y-16896243D01*
X10964952Y-16905767D01*
X10974476Y-16924814D01*
X10974476Y-17029576D01*
X10974476Y-16924814D02*
X10984000Y-16905767D01*
X11003048Y-16896243D01*
X11031619Y-16896243D01*
X11050667Y-16905767D01*
X11060190Y-16924814D01*
X11060190Y-17029576D01*
X11155429Y-17029576D02*
X11155429Y-16896243D01*
X11155429Y-16915290D02*
X11164952Y-16905767D01*
X11184000Y-16896243D01*
X11212571Y-16896243D01*
X11231619Y-16905767D01*
X11241143Y-16924814D01*
X11241143Y-17029576D01*
X11241143Y-16924814D02*
X11250667Y-16905767D01*
X11269714Y-16896243D01*
X11298286Y-16896243D01*
X11317333Y-16905767D01*
X11326857Y-16924814D01*
X11326857Y-17029576D01*
X11717333Y-16820052D02*
X11545905Y-17077195D01*
X11974476Y-16829576D02*
X11993524Y-16829576D01*
X12012571Y-16839100D01*
X12022095Y-16848624D01*
X12031619Y-16867671D01*
X12041143Y-16905767D01*
X12041143Y-16953386D01*
X12031619Y-16991481D01*
X12022095Y-17010529D01*
X12012571Y-17020052D01*
X11993524Y-17029576D01*
X11974476Y-17029576D01*
X11955428Y-17020052D01*
X11945905Y-17010529D01*
X11936381Y-16991481D01*
X11926857Y-16953386D01*
X11926857Y-16905767D01*
X11936381Y-16867671D01*
X11945905Y-16848624D01*
X11955428Y-16839100D01*
X11974476Y-16829576D01*
X12126857Y-17010529D02*
X12136381Y-17020052D01*
X12126857Y-17029576D01*
X12117333Y-17020052D01*
X12126857Y-17010529D01*
X12126857Y-17029576D01*
X12260190Y-16829576D02*
X12279238Y-16829576D01*
X12298286Y-16839100D01*
X12307809Y-16848624D01*
X12317333Y-16867671D01*
X12326857Y-16905767D01*
X12326857Y-16953386D01*
X12317333Y-16991481D01*
X12307809Y-17010529D01*
X12298286Y-17020052D01*
X12279238Y-17029576D01*
X12260190Y-17029576D01*
X12241143Y-17020052D01*
X12231619Y-17010529D01*
X12222095Y-16991481D01*
X12212571Y-16953386D01*
X12212571Y-16905767D01*
X12222095Y-16867671D01*
X12231619Y-16848624D01*
X12241143Y-16839100D01*
X12260190Y-16829576D01*
X12450667Y-16829576D02*
X12469714Y-16829576D01*
X12488762Y-16839100D01*
X12498286Y-16848624D01*
X12507809Y-16867671D01*
X12517333Y-16905767D01*
X12517333Y-16953386D01*
X12507809Y-16991481D01*
X12498286Y-17010529D01*
X12488762Y-17020052D01*
X12469714Y-17029576D01*
X12450667Y-17029576D01*
X12431619Y-17020052D01*
X12422095Y-17010529D01*
X12412571Y-16991481D01*
X12403048Y-16953386D01*
X12403048Y-16905767D01*
X12412571Y-16867671D01*
X12422095Y-16848624D01*
X12431619Y-16839100D01*
X12450667Y-16829576D01*
X12612571Y-17029576D02*
X12650667Y-17029576D01*
X12669714Y-17020052D01*
X12679238Y-17010529D01*
X12698286Y-16981957D01*
X12707809Y-16943862D01*
X12707809Y-16867671D01*
X12698286Y-16848624D01*
X12688762Y-16839100D01*
X12669714Y-16829576D01*
X12631619Y-16829576D01*
X12612571Y-16839100D01*
X12603048Y-16848624D01*
X12593524Y-16867671D01*
X12593524Y-16915290D01*
X12603048Y-16934338D01*
X12612571Y-16943862D01*
X12631619Y-16953386D01*
X12669714Y-16953386D01*
X12688762Y-16943862D01*
X12698286Y-16934338D01*
X12707809Y-16915290D01*
X12822095Y-16915290D02*
X12803048Y-16905767D01*
X12793524Y-16896243D01*
X12784000Y-16877195D01*
X12784000Y-16867671D01*
X12793524Y-16848624D01*
X12803048Y-16839100D01*
X12822095Y-16829576D01*
X12860190Y-16829576D01*
X12879238Y-16839100D01*
X12888762Y-16848624D01*
X12898286Y-16867671D01*
X12898286Y-16877195D01*
X12888762Y-16896243D01*
X12879238Y-16905767D01*
X12860190Y-16915290D01*
X12822095Y-16915290D01*
X12803048Y-16924814D01*
X12793524Y-16934338D01*
X12784000Y-16953386D01*
X12784000Y-16991481D01*
X12793524Y-17010529D01*
X12803048Y-17020052D01*
X12822095Y-17029576D01*
X12860190Y-17029576D01*
X12879238Y-17020052D01*
X12888762Y-17010529D01*
X12898286Y-16991481D01*
X12898286Y-16953386D01*
X12888762Y-16934338D01*
X12879238Y-16924814D01*
X12860190Y-16915290D01*
X12974476Y-16829576D02*
X12974476Y-16867671D01*
X13050667Y-16829576D02*
X13050667Y-16867671D01*
X13345905Y-17105767D02*
X13336381Y-17096243D01*
X13317333Y-17067671D01*
X13307809Y-17048624D01*
X13298286Y-17020052D01*
X13288762Y-16972433D01*
X13288762Y-16934338D01*
X13298286Y-16886719D01*
X13307809Y-16858148D01*
X13317333Y-16839100D01*
X13336381Y-16810529D01*
X13345905Y-16801005D01*
X13526857Y-17029576D02*
X13412571Y-17029576D01*
X13469714Y-17029576D02*
X13469714Y-16829576D01*
X13450667Y-16858148D01*
X13431619Y-16877195D01*
X13412571Y-16886719D01*
X13603048Y-16848624D02*
X13612571Y-16839100D01*
X13631619Y-16829576D01*
X13679238Y-16829576D01*
X13698286Y-16839100D01*
X13707809Y-16848624D01*
X13717333Y-16867671D01*
X13717333Y-16886719D01*
X13707809Y-16915290D01*
X13593524Y-17029576D01*
X13717333Y-17029576D01*
X13907809Y-17029576D02*
X13793524Y-17029576D01*
X13850667Y-17029576D02*
X13850667Y-16829576D01*
X13831619Y-16858148D01*
X13812571Y-16877195D01*
X13793524Y-16886719D01*
X14145905Y-17029576D02*
X14145905Y-16829576D01*
X14231619Y-17029576D02*
X14231619Y-16924814D01*
X14222095Y-16905767D01*
X14203048Y-16896243D01*
X14174476Y-16896243D01*
X14155428Y-16905767D01*
X14145905Y-16915290D01*
X14355428Y-17029576D02*
X14336381Y-17020052D01*
X14326857Y-17010529D01*
X14317333Y-16991481D01*
X14317333Y-16934338D01*
X14326857Y-16915290D01*
X14336381Y-16905767D01*
X14355428Y-16896243D01*
X14384000Y-16896243D01*
X14403048Y-16905767D01*
X14412571Y-16915290D01*
X14422095Y-16934338D01*
X14422095Y-16991481D01*
X14412571Y-17010529D01*
X14403048Y-17020052D01*
X14384000Y-17029576D01*
X14355428Y-17029576D01*
X14536381Y-17029576D02*
X14517333Y-17020052D01*
X14507809Y-17001005D01*
X14507809Y-16829576D01*
X14688762Y-17020052D02*
X14669714Y-17029576D01*
X14631619Y-17029576D01*
X14612571Y-17020052D01*
X14603048Y-17001005D01*
X14603048Y-16924814D01*
X14612571Y-16905767D01*
X14631619Y-16896243D01*
X14669714Y-16896243D01*
X14688762Y-16905767D01*
X14698286Y-16924814D01*
X14698286Y-16943862D01*
X14603048Y-16962910D01*
X14774476Y-17020052D02*
X14793524Y-17029576D01*
X14831619Y-17029576D01*
X14850667Y-17020052D01*
X14860190Y-17001005D01*
X14860190Y-16991481D01*
X14850667Y-16972433D01*
X14831619Y-16962910D01*
X14803048Y-16962910D01*
X14784000Y-16953386D01*
X14774476Y-16934338D01*
X14774476Y-16924814D01*
X14784000Y-16905767D01*
X14803048Y-16896243D01*
X14831619Y-16896243D01*
X14850667Y-16905767D01*
X14926857Y-17105767D02*
X14936381Y-17096243D01*
X14955428Y-17067671D01*
X14964952Y-17048624D01*
X14974476Y-17020052D01*
X14984000Y-16972433D01*
X14984000Y-16934338D01*
X14974476Y-16886719D01*
X14964952Y-16858148D01*
X14955428Y-16839100D01*
X14936381Y-16810529D01*
X14926857Y-16801005D01*
D13*
X9774000Y-17203100D02*
G75*
G03*
X9774000Y-17203100I-20000J0D01*
G01*
D11*
X10069714Y-17093576D02*
X10088762Y-17093576D01*
X10107810Y-17103100D01*
X10117333Y-17112624D01*
X10126857Y-17131671D01*
X10136381Y-17169767D01*
X10136381Y-17217386D01*
X10126857Y-17255481D01*
X10117333Y-17274529D01*
X10107810Y-17284052D01*
X10088762Y-17293576D01*
X10069714Y-17293576D01*
X10050667Y-17284052D01*
X10041143Y-17274529D01*
X10031619Y-17255481D01*
X10022095Y-17217386D01*
X10022095Y-17169767D01*
X10031619Y-17131671D01*
X10041143Y-17112624D01*
X10050667Y-17103100D01*
X10069714Y-17093576D01*
X10222095Y-17274529D02*
X10231619Y-17284052D01*
X10222095Y-17293576D01*
X10212571Y-17284052D01*
X10222095Y-17274529D01*
X10222095Y-17293576D01*
X10403048Y-17160243D02*
X10403048Y-17293576D01*
X10355429Y-17084052D02*
X10307810Y-17226910D01*
X10431619Y-17226910D01*
X10545905Y-17093576D02*
X10564952Y-17093576D01*
X10584000Y-17103100D01*
X10593524Y-17112624D01*
X10603048Y-17131671D01*
X10612571Y-17169767D01*
X10612571Y-17217386D01*
X10603048Y-17255481D01*
X10593524Y-17274529D01*
X10584000Y-17284052D01*
X10564952Y-17293576D01*
X10545905Y-17293576D01*
X10526857Y-17284052D01*
X10517333Y-17274529D01*
X10507810Y-17255481D01*
X10498286Y-17217386D01*
X10498286Y-17169767D01*
X10507810Y-17131671D01*
X10517333Y-17112624D01*
X10526857Y-17103100D01*
X10545905Y-17093576D01*
X10736381Y-17093576D02*
X10755429Y-17093576D01*
X10774476Y-17103100D01*
X10784000Y-17112624D01*
X10793524Y-17131671D01*
X10803048Y-17169767D01*
X10803048Y-17217386D01*
X10793524Y-17255481D01*
X10784000Y-17274529D01*
X10774476Y-17284052D01*
X10755429Y-17293576D01*
X10736381Y-17293576D01*
X10717333Y-17284052D01*
X10707810Y-17274529D01*
X10698286Y-17255481D01*
X10688762Y-17217386D01*
X10688762Y-17169767D01*
X10698286Y-17131671D01*
X10707810Y-17112624D01*
X10717333Y-17103100D01*
X10736381Y-17093576D01*
X10888762Y-17293576D02*
X10888762Y-17160243D01*
X10888762Y-17179290D02*
X10898286Y-17169767D01*
X10917333Y-17160243D01*
X10945905Y-17160243D01*
X10964952Y-17169767D01*
X10974476Y-17188814D01*
X10974476Y-17293576D01*
X10974476Y-17188814D02*
X10984000Y-17169767D01*
X11003048Y-17160243D01*
X11031619Y-17160243D01*
X11050667Y-17169767D01*
X11060190Y-17188814D01*
X11060190Y-17293576D01*
X11155429Y-17293576D02*
X11155429Y-17160243D01*
X11155429Y-17179290D02*
X11164952Y-17169767D01*
X11184000Y-17160243D01*
X11212571Y-17160243D01*
X11231619Y-17169767D01*
X11241143Y-17188814D01*
X11241143Y-17293576D01*
X11241143Y-17188814D02*
X11250667Y-17169767D01*
X11269714Y-17160243D01*
X11298286Y-17160243D01*
X11317333Y-17169767D01*
X11326857Y-17188814D01*
X11326857Y-17293576D01*
X11717333Y-17084052D02*
X11545905Y-17341195D01*
X11974476Y-17093576D02*
X11993524Y-17093576D01*
X12012571Y-17103100D01*
X12022095Y-17112624D01*
X12031619Y-17131671D01*
X12041143Y-17169767D01*
X12041143Y-17217386D01*
X12031619Y-17255481D01*
X12022095Y-17274529D01*
X12012571Y-17284052D01*
X11993524Y-17293576D01*
X11974476Y-17293576D01*
X11955428Y-17284052D01*
X11945905Y-17274529D01*
X11936381Y-17255481D01*
X11926857Y-17217386D01*
X11926857Y-17169767D01*
X11936381Y-17131671D01*
X11945905Y-17112624D01*
X11955428Y-17103100D01*
X11974476Y-17093576D01*
X12126857Y-17274529D02*
X12136381Y-17284052D01*
X12126857Y-17293576D01*
X12117333Y-17284052D01*
X12126857Y-17274529D01*
X12126857Y-17293576D01*
X12260190Y-17093576D02*
X12279238Y-17093576D01*
X12298286Y-17103100D01*
X12307809Y-17112624D01*
X12317333Y-17131671D01*
X12326857Y-17169767D01*
X12326857Y-17217386D01*
X12317333Y-17255481D01*
X12307809Y-17274529D01*
X12298286Y-17284052D01*
X12279238Y-17293576D01*
X12260190Y-17293576D01*
X12241143Y-17284052D01*
X12231619Y-17274529D01*
X12222095Y-17255481D01*
X12212571Y-17217386D01*
X12212571Y-17169767D01*
X12222095Y-17131671D01*
X12231619Y-17112624D01*
X12241143Y-17103100D01*
X12260190Y-17093576D01*
X12517333Y-17293576D02*
X12403048Y-17293576D01*
X12460190Y-17293576D02*
X12460190Y-17093576D01*
X12441143Y-17122148D01*
X12422095Y-17141195D01*
X12403048Y-17150719D01*
X12698286Y-17093576D02*
X12603048Y-17093576D01*
X12593524Y-17188814D01*
X12603048Y-17179290D01*
X12622095Y-17169767D01*
X12669714Y-17169767D01*
X12688762Y-17179290D01*
X12698286Y-17188814D01*
X12707809Y-17207862D01*
X12707809Y-17255481D01*
X12698286Y-17274529D01*
X12688762Y-17284052D01*
X12669714Y-17293576D01*
X12622095Y-17293576D01*
X12603048Y-17284052D01*
X12593524Y-17274529D01*
X12774476Y-17093576D02*
X12907809Y-17093576D01*
X12822095Y-17293576D01*
X12974476Y-17093576D02*
X12974476Y-17131671D01*
X13050667Y-17093576D02*
X13050667Y-17131671D01*
X13345905Y-17369767D02*
X13336381Y-17360243D01*
X13317333Y-17331671D01*
X13307809Y-17312624D01*
X13298286Y-17284052D01*
X13288762Y-17236433D01*
X13288762Y-17198338D01*
X13298286Y-17150719D01*
X13307809Y-17122148D01*
X13317333Y-17103100D01*
X13336381Y-17074529D01*
X13345905Y-17065005D01*
X13507809Y-17160243D02*
X13507809Y-17293576D01*
X13460190Y-17084052D02*
X13412571Y-17226910D01*
X13536381Y-17226910D01*
X13593524Y-17093576D02*
X13726857Y-17093576D01*
X13641143Y-17293576D01*
X13955428Y-17293576D02*
X13955428Y-17093576D01*
X14041143Y-17293576D02*
X14041143Y-17188814D01*
X14031619Y-17169767D01*
X14012571Y-17160243D01*
X13984000Y-17160243D01*
X13964952Y-17169767D01*
X13955428Y-17179290D01*
X14164952Y-17293576D02*
X14145905Y-17284052D01*
X14136381Y-17274529D01*
X14126857Y-17255481D01*
X14126857Y-17198338D01*
X14136381Y-17179290D01*
X14145905Y-17169767D01*
X14164952Y-17160243D01*
X14193524Y-17160243D01*
X14212571Y-17169767D01*
X14222095Y-17179290D01*
X14231619Y-17198338D01*
X14231619Y-17255481D01*
X14222095Y-17274529D01*
X14212571Y-17284052D01*
X14193524Y-17293576D01*
X14164952Y-17293576D01*
X14345905Y-17293576D02*
X14326857Y-17284052D01*
X14317333Y-17265005D01*
X14317333Y-17093576D01*
X14498286Y-17284052D02*
X14479238Y-17293576D01*
X14441143Y-17293576D01*
X14422095Y-17284052D01*
X14412571Y-17265005D01*
X14412571Y-17188814D01*
X14422095Y-17169767D01*
X14441143Y-17160243D01*
X14479238Y-17160243D01*
X14498286Y-17169767D01*
X14507809Y-17188814D01*
X14507809Y-17207862D01*
X14412571Y-17226910D01*
X14584000Y-17284052D02*
X14603048Y-17293576D01*
X14641143Y-17293576D01*
X14660190Y-17284052D01*
X14669714Y-17265005D01*
X14669714Y-17255481D01*
X14660190Y-17236433D01*
X14641143Y-17226910D01*
X14612571Y-17226910D01*
X14593524Y-17217386D01*
X14584000Y-17198338D01*
X14584000Y-17188814D01*
X14593524Y-17169767D01*
X14612571Y-17160243D01*
X14641143Y-17160243D01*
X14660190Y-17169767D01*
X14736381Y-17369767D02*
X14745905Y-17360243D01*
X14764952Y-17331671D01*
X14774476Y-17312624D01*
X14784000Y-17284052D01*
X14793524Y-17236433D01*
X14793524Y-17198338D01*
X14784000Y-17150719D01*
X14774476Y-17122148D01*
X14764952Y-17103100D01*
X14745905Y-17074529D01*
X14736381Y-17065005D01*
D14*
X9744000Y-17437100D02*
X9744000Y-17497100D01*
X9714000Y-17467100D02*
X9774000Y-17467100D01*
D11*
X10069714Y-17357576D02*
X10088762Y-17357576D01*
X10107810Y-17367100D01*
X10117333Y-17376624D01*
X10126857Y-17395671D01*
X10136381Y-17433767D01*
X10136381Y-17481386D01*
X10126857Y-17519481D01*
X10117333Y-17538529D01*
X10107810Y-17548052D01*
X10088762Y-17557576D01*
X10069714Y-17557576D01*
X10050667Y-17548052D01*
X10041143Y-17538529D01*
X10031619Y-17519481D01*
X10022095Y-17481386D01*
X10022095Y-17433767D01*
X10031619Y-17395671D01*
X10041143Y-17376624D01*
X10050667Y-17367100D01*
X10069714Y-17357576D01*
X10222095Y-17538529D02*
X10231619Y-17548052D01*
X10222095Y-17557576D01*
X10212571Y-17548052D01*
X10222095Y-17538529D01*
X10222095Y-17557576D01*
X10403048Y-17357576D02*
X10364952Y-17357576D01*
X10345905Y-17367100D01*
X10336381Y-17376624D01*
X10317333Y-17405195D01*
X10307810Y-17443290D01*
X10307810Y-17519481D01*
X10317333Y-17538529D01*
X10326857Y-17548052D01*
X10345905Y-17557576D01*
X10384000Y-17557576D01*
X10403048Y-17548052D01*
X10412571Y-17538529D01*
X10422095Y-17519481D01*
X10422095Y-17471862D01*
X10412571Y-17452814D01*
X10403048Y-17443290D01*
X10384000Y-17433767D01*
X10345905Y-17433767D01*
X10326857Y-17443290D01*
X10317333Y-17452814D01*
X10307810Y-17471862D01*
X10545905Y-17357576D02*
X10564952Y-17357576D01*
X10584000Y-17367100D01*
X10593524Y-17376624D01*
X10603048Y-17395671D01*
X10612571Y-17433767D01*
X10612571Y-17481386D01*
X10603048Y-17519481D01*
X10593524Y-17538529D01*
X10584000Y-17548052D01*
X10564952Y-17557576D01*
X10545905Y-17557576D01*
X10526857Y-17548052D01*
X10517333Y-17538529D01*
X10507810Y-17519481D01*
X10498286Y-17481386D01*
X10498286Y-17433767D01*
X10507810Y-17395671D01*
X10517333Y-17376624D01*
X10526857Y-17367100D01*
X10545905Y-17357576D01*
X10736381Y-17357576D02*
X10755429Y-17357576D01*
X10774476Y-17367100D01*
X10784000Y-17376624D01*
X10793524Y-17395671D01*
X10803048Y-17433767D01*
X10803048Y-17481386D01*
X10793524Y-17519481D01*
X10784000Y-17538529D01*
X10774476Y-17548052D01*
X10755429Y-17557576D01*
X10736381Y-17557576D01*
X10717333Y-17548052D01*
X10707810Y-17538529D01*
X10698286Y-17519481D01*
X10688762Y-17481386D01*
X10688762Y-17433767D01*
X10698286Y-17395671D01*
X10707810Y-17376624D01*
X10717333Y-17367100D01*
X10736381Y-17357576D01*
X10888762Y-17557576D02*
X10888762Y-17424243D01*
X10888762Y-17443290D02*
X10898286Y-17433767D01*
X10917333Y-17424243D01*
X10945905Y-17424243D01*
X10964952Y-17433767D01*
X10974476Y-17452814D01*
X10974476Y-17557576D01*
X10974476Y-17452814D02*
X10984000Y-17433767D01*
X11003048Y-17424243D01*
X11031619Y-17424243D01*
X11050667Y-17433767D01*
X11060190Y-17452814D01*
X11060190Y-17557576D01*
X11155429Y-17557576D02*
X11155429Y-17424243D01*
X11155429Y-17443290D02*
X11164952Y-17433767D01*
X11184000Y-17424243D01*
X11212571Y-17424243D01*
X11231619Y-17433767D01*
X11241143Y-17452814D01*
X11241143Y-17557576D01*
X11241143Y-17452814D02*
X11250667Y-17433767D01*
X11269714Y-17424243D01*
X11298286Y-17424243D01*
X11317333Y-17433767D01*
X11326857Y-17452814D01*
X11326857Y-17557576D01*
X11717333Y-17348052D02*
X11545905Y-17605195D01*
X11974476Y-17357576D02*
X11993524Y-17357576D01*
X12012571Y-17367100D01*
X12022095Y-17376624D01*
X12031619Y-17395671D01*
X12041143Y-17433767D01*
X12041143Y-17481386D01*
X12031619Y-17519481D01*
X12022095Y-17538529D01*
X12012571Y-17548052D01*
X11993524Y-17557576D01*
X11974476Y-17557576D01*
X11955428Y-17548052D01*
X11945905Y-17538529D01*
X11936381Y-17519481D01*
X11926857Y-17481386D01*
X11926857Y-17433767D01*
X11936381Y-17395671D01*
X11945905Y-17376624D01*
X11955428Y-17367100D01*
X11974476Y-17357576D01*
X12126857Y-17538529D02*
X12136381Y-17548052D01*
X12126857Y-17557576D01*
X12117333Y-17548052D01*
X12126857Y-17538529D01*
X12126857Y-17557576D01*
X12260190Y-17357576D02*
X12279238Y-17357576D01*
X12298286Y-17367100D01*
X12307809Y-17376624D01*
X12317333Y-17395671D01*
X12326857Y-17433767D01*
X12326857Y-17481386D01*
X12317333Y-17519481D01*
X12307809Y-17538529D01*
X12298286Y-17548052D01*
X12279238Y-17557576D01*
X12260190Y-17557576D01*
X12241143Y-17548052D01*
X12231619Y-17538529D01*
X12222095Y-17519481D01*
X12212571Y-17481386D01*
X12212571Y-17433767D01*
X12222095Y-17395671D01*
X12231619Y-17376624D01*
X12241143Y-17367100D01*
X12260190Y-17357576D01*
X12403048Y-17376624D02*
X12412571Y-17367100D01*
X12431619Y-17357576D01*
X12479238Y-17357576D01*
X12498286Y-17367100D01*
X12507809Y-17376624D01*
X12517333Y-17395671D01*
X12517333Y-17414719D01*
X12507809Y-17443290D01*
X12393524Y-17557576D01*
X12517333Y-17557576D01*
X12584000Y-17357576D02*
X12707809Y-17357576D01*
X12641143Y-17433767D01*
X12669714Y-17433767D01*
X12688762Y-17443290D01*
X12698286Y-17452814D01*
X12707809Y-17471862D01*
X12707809Y-17519481D01*
X12698286Y-17538529D01*
X12688762Y-17548052D01*
X12669714Y-17557576D01*
X12612571Y-17557576D01*
X12593524Y-17548052D01*
X12584000Y-17538529D01*
X12879238Y-17357576D02*
X12841143Y-17357576D01*
X12822095Y-17367100D01*
X12812571Y-17376624D01*
X12793524Y-17405195D01*
X12784000Y-17443290D01*
X12784000Y-17519481D01*
X12793524Y-17538529D01*
X12803048Y-17548052D01*
X12822095Y-17557576D01*
X12860190Y-17557576D01*
X12879238Y-17548052D01*
X12888762Y-17538529D01*
X12898286Y-17519481D01*
X12898286Y-17471862D01*
X12888762Y-17452814D01*
X12879238Y-17443290D01*
X12860190Y-17433767D01*
X12822095Y-17433767D01*
X12803048Y-17443290D01*
X12793524Y-17452814D01*
X12784000Y-17471862D01*
X12974476Y-17357576D02*
X12974476Y-17395671D01*
X13050667Y-17357576D02*
X13050667Y-17395671D01*
X13345905Y-17633767D02*
X13336381Y-17624243D01*
X13317333Y-17595671D01*
X13307809Y-17576624D01*
X13298286Y-17548052D01*
X13288762Y-17500433D01*
X13288762Y-17462338D01*
X13298286Y-17414719D01*
X13307809Y-17386148D01*
X13317333Y-17367100D01*
X13336381Y-17338529D01*
X13345905Y-17329005D01*
X13460190Y-17357576D02*
X13479238Y-17357576D01*
X13498286Y-17367100D01*
X13507809Y-17376624D01*
X13517333Y-17395671D01*
X13526857Y-17433767D01*
X13526857Y-17481386D01*
X13517333Y-17519481D01*
X13507809Y-17538529D01*
X13498286Y-17548052D01*
X13479238Y-17557576D01*
X13460190Y-17557576D01*
X13441143Y-17548052D01*
X13431619Y-17538529D01*
X13422095Y-17519481D01*
X13412571Y-17481386D01*
X13412571Y-17433767D01*
X13422095Y-17395671D01*
X13431619Y-17376624D01*
X13441143Y-17367100D01*
X13460190Y-17357576D01*
X13764952Y-17557576D02*
X13764952Y-17357576D01*
X13850667Y-17557576D02*
X13850667Y-17452814D01*
X13841143Y-17433767D01*
X13822095Y-17424243D01*
X13793524Y-17424243D01*
X13774476Y-17433767D01*
X13764952Y-17443290D01*
X13974476Y-17557576D02*
X13955428Y-17548052D01*
X13945905Y-17538529D01*
X13936381Y-17519481D01*
X13936381Y-17462338D01*
X13945905Y-17443290D01*
X13955428Y-17433767D01*
X13974476Y-17424243D01*
X14003048Y-17424243D01*
X14022095Y-17433767D01*
X14031619Y-17443290D01*
X14041143Y-17462338D01*
X14041143Y-17519481D01*
X14031619Y-17538529D01*
X14022095Y-17548052D01*
X14003048Y-17557576D01*
X13974476Y-17557576D01*
X14155428Y-17557576D02*
X14136381Y-17548052D01*
X14126857Y-17529005D01*
X14126857Y-17357576D01*
X14307809Y-17548052D02*
X14288762Y-17557576D01*
X14250667Y-17557576D01*
X14231619Y-17548052D01*
X14222095Y-17529005D01*
X14222095Y-17452814D01*
X14231619Y-17433767D01*
X14250667Y-17424243D01*
X14288762Y-17424243D01*
X14307809Y-17433767D01*
X14317333Y-17452814D01*
X14317333Y-17471862D01*
X14222095Y-17490910D01*
X14393524Y-17548052D02*
X14412571Y-17557576D01*
X14450667Y-17557576D01*
X14469714Y-17548052D01*
X14479238Y-17529005D01*
X14479238Y-17519481D01*
X14469714Y-17500433D01*
X14450667Y-17490910D01*
X14422095Y-17490910D01*
X14403048Y-17481386D01*
X14393524Y-17462338D01*
X14393524Y-17452814D01*
X14403048Y-17433767D01*
X14422095Y-17424243D01*
X14450667Y-17424243D01*
X14469714Y-17433767D01*
X14717333Y-17481386D02*
X14869714Y-17481386D01*
X14793524Y-17557576D02*
X14793524Y-17405195D01*
X15145905Y-17443290D02*
X15126857Y-17433767D01*
X15117333Y-17424243D01*
X15107809Y-17405195D01*
X15107809Y-17395671D01*
X15117333Y-17376624D01*
X15126857Y-17367100D01*
X15145905Y-17357576D01*
X15184000Y-17357576D01*
X15203048Y-17367100D01*
X15212571Y-17376624D01*
X15222095Y-17395671D01*
X15222095Y-17405195D01*
X15212571Y-17424243D01*
X15203048Y-17433767D01*
X15184000Y-17443290D01*
X15145905Y-17443290D01*
X15126857Y-17452814D01*
X15117333Y-17462338D01*
X15107809Y-17481386D01*
X15107809Y-17519481D01*
X15117333Y-17538529D01*
X15126857Y-17548052D01*
X15145905Y-17557576D01*
X15184000Y-17557576D01*
X15203048Y-17548052D01*
X15212571Y-17538529D01*
X15222095Y-17519481D01*
X15222095Y-17481386D01*
X15212571Y-17462338D01*
X15203048Y-17452814D01*
X15184000Y-17443290D01*
X15450667Y-17548052D02*
X15469714Y-17557576D01*
X15507809Y-17557576D01*
X15526857Y-17548052D01*
X15536381Y-17529005D01*
X15536381Y-17519481D01*
X15526857Y-17500433D01*
X15507809Y-17490910D01*
X15479238Y-17490910D01*
X15460190Y-17481386D01*
X15450667Y-17462338D01*
X15450667Y-17452814D01*
X15460190Y-17433767D01*
X15479238Y-17424243D01*
X15507809Y-17424243D01*
X15526857Y-17433767D01*
X15650667Y-17557576D02*
X15631619Y-17548052D01*
X15622095Y-17529005D01*
X15622095Y-17357576D01*
X15755428Y-17557576D02*
X15736381Y-17548052D01*
X15726857Y-17538529D01*
X15717333Y-17519481D01*
X15717333Y-17462338D01*
X15726857Y-17443290D01*
X15736381Y-17433767D01*
X15755428Y-17424243D01*
X15784000Y-17424243D01*
X15803048Y-17433767D01*
X15812571Y-17443290D01*
X15822095Y-17462338D01*
X15822095Y-17519481D01*
X15812571Y-17538529D01*
X15803048Y-17548052D01*
X15784000Y-17557576D01*
X15755428Y-17557576D01*
X15879238Y-17424243D02*
X15955428Y-17424243D01*
X15907809Y-17357576D02*
X15907809Y-17529005D01*
X15917333Y-17548052D01*
X15936381Y-17557576D01*
X15955428Y-17557576D01*
X16012571Y-17548052D02*
X16031619Y-17557576D01*
X16069714Y-17557576D01*
X16088762Y-17548052D01*
X16098286Y-17529005D01*
X16098286Y-17519481D01*
X16088762Y-17500433D01*
X16069714Y-17490910D01*
X16041143Y-17490910D01*
X16022095Y-17481386D01*
X16012571Y-17462338D01*
X16012571Y-17452814D01*
X16022095Y-17433767D01*
X16041143Y-17424243D01*
X16069714Y-17424243D01*
X16088762Y-17433767D01*
X16164952Y-17633767D02*
X16174476Y-17624243D01*
X16193524Y-17595671D01*
X16203048Y-17576624D01*
X16212571Y-17548052D01*
X16222095Y-17500433D01*
X16222095Y-17462338D01*
X16212571Y-17414719D01*
X16203048Y-17386148D01*
X16193524Y-17367100D01*
X16174476Y-17338529D01*
X16164952Y-17329005D01*
D15*
X9763017Y-17757617D02*
X9763017Y-17704583D01*
X9709983Y-17704583D01*
X9709983Y-17757617D01*
X9763017Y-17757617D01*
D11*
X10069714Y-17621576D02*
X10088762Y-17621576D01*
X10107810Y-17631100D01*
X10117333Y-17640624D01*
X10126857Y-17659671D01*
X10136381Y-17697767D01*
X10136381Y-17745386D01*
X10126857Y-17783481D01*
X10117333Y-17802529D01*
X10107810Y-17812052D01*
X10088762Y-17821576D01*
X10069714Y-17821576D01*
X10050667Y-17812052D01*
X10041143Y-17802529D01*
X10031619Y-17783481D01*
X10022095Y-17745386D01*
X10022095Y-17697767D01*
X10031619Y-17659671D01*
X10041143Y-17640624D01*
X10050667Y-17631100D01*
X10069714Y-17621576D01*
X10222095Y-17802529D02*
X10231619Y-17812052D01*
X10222095Y-17821576D01*
X10212571Y-17812052D01*
X10222095Y-17802529D01*
X10222095Y-17821576D01*
X10298286Y-17621576D02*
X10431619Y-17621576D01*
X10345905Y-17821576D01*
X10603048Y-17621576D02*
X10507810Y-17621576D01*
X10498286Y-17716814D01*
X10507810Y-17707290D01*
X10526857Y-17697767D01*
X10574476Y-17697767D01*
X10593524Y-17707290D01*
X10603048Y-17716814D01*
X10612571Y-17735862D01*
X10612571Y-17783481D01*
X10603048Y-17802529D01*
X10593524Y-17812052D01*
X10574476Y-17821576D01*
X10526857Y-17821576D01*
X10507810Y-17812052D01*
X10498286Y-17802529D01*
X10736381Y-17621576D02*
X10755429Y-17621576D01*
X10774476Y-17631100D01*
X10784000Y-17640624D01*
X10793524Y-17659671D01*
X10803048Y-17697767D01*
X10803048Y-17745386D01*
X10793524Y-17783481D01*
X10784000Y-17802529D01*
X10774476Y-17812052D01*
X10755429Y-17821576D01*
X10736381Y-17821576D01*
X10717333Y-17812052D01*
X10707810Y-17802529D01*
X10698286Y-17783481D01*
X10688762Y-17745386D01*
X10688762Y-17697767D01*
X10698286Y-17659671D01*
X10707810Y-17640624D01*
X10717333Y-17631100D01*
X10736381Y-17621576D01*
X10888762Y-17821576D02*
X10888762Y-17688243D01*
X10888762Y-17707290D02*
X10898286Y-17697767D01*
X10917333Y-17688243D01*
X10945905Y-17688243D01*
X10964952Y-17697767D01*
X10974476Y-17716814D01*
X10974476Y-17821576D01*
X10974476Y-17716814D02*
X10984000Y-17697767D01*
X11003048Y-17688243D01*
X11031619Y-17688243D01*
X11050667Y-17697767D01*
X11060190Y-17716814D01*
X11060190Y-17821576D01*
X11155429Y-17821576D02*
X11155429Y-17688243D01*
X11155429Y-17707290D02*
X11164952Y-17697767D01*
X11184000Y-17688243D01*
X11212571Y-17688243D01*
X11231619Y-17697767D01*
X11241143Y-17716814D01*
X11241143Y-17821576D01*
X11241143Y-17716814D02*
X11250667Y-17697767D01*
X11269714Y-17688243D01*
X11298286Y-17688243D01*
X11317333Y-17697767D01*
X11326857Y-17716814D01*
X11326857Y-17821576D01*
X11717333Y-17612052D02*
X11545905Y-17869195D01*
X11974476Y-17621576D02*
X11993524Y-17621576D01*
X12012571Y-17631100D01*
X12022095Y-17640624D01*
X12031619Y-17659671D01*
X12041143Y-17697767D01*
X12041143Y-17745386D01*
X12031619Y-17783481D01*
X12022095Y-17802529D01*
X12012571Y-17812052D01*
X11993524Y-17821576D01*
X11974476Y-17821576D01*
X11955428Y-17812052D01*
X11945905Y-17802529D01*
X11936381Y-17783481D01*
X11926857Y-17745386D01*
X11926857Y-17697767D01*
X11936381Y-17659671D01*
X11945905Y-17640624D01*
X11955428Y-17631100D01*
X11974476Y-17621576D01*
X12126857Y-17802529D02*
X12136381Y-17812052D01*
X12126857Y-17821576D01*
X12117333Y-17812052D01*
X12126857Y-17802529D01*
X12126857Y-17821576D01*
X12260190Y-17621576D02*
X12279238Y-17621576D01*
X12298286Y-17631100D01*
X12307809Y-17640624D01*
X12317333Y-17659671D01*
X12326857Y-17697767D01*
X12326857Y-17745386D01*
X12317333Y-17783481D01*
X12307809Y-17802529D01*
X12298286Y-17812052D01*
X12279238Y-17821576D01*
X12260190Y-17821576D01*
X12241143Y-17812052D01*
X12231619Y-17802529D01*
X12222095Y-17783481D01*
X12212571Y-17745386D01*
X12212571Y-17697767D01*
X12222095Y-17659671D01*
X12231619Y-17640624D01*
X12241143Y-17631100D01*
X12260190Y-17621576D01*
X12403048Y-17640624D02*
X12412571Y-17631100D01*
X12431619Y-17621576D01*
X12479238Y-17621576D01*
X12498286Y-17631100D01*
X12507809Y-17640624D01*
X12517333Y-17659671D01*
X12517333Y-17678719D01*
X12507809Y-17707290D01*
X12393524Y-17821576D01*
X12517333Y-17821576D01*
X12612571Y-17821576D02*
X12650667Y-17821576D01*
X12669714Y-17812052D01*
X12679238Y-17802529D01*
X12698286Y-17773957D01*
X12707809Y-17735862D01*
X12707809Y-17659671D01*
X12698286Y-17640624D01*
X12688762Y-17631100D01*
X12669714Y-17621576D01*
X12631619Y-17621576D01*
X12612571Y-17631100D01*
X12603048Y-17640624D01*
X12593524Y-17659671D01*
X12593524Y-17707290D01*
X12603048Y-17726338D01*
X12612571Y-17735862D01*
X12631619Y-17745386D01*
X12669714Y-17745386D01*
X12688762Y-17735862D01*
X12698286Y-17726338D01*
X12707809Y-17707290D01*
X12888762Y-17621576D02*
X12793524Y-17621576D01*
X12784000Y-17716814D01*
X12793524Y-17707290D01*
X12812571Y-17697767D01*
X12860190Y-17697767D01*
X12879238Y-17707290D01*
X12888762Y-17716814D01*
X12898286Y-17735862D01*
X12898286Y-17783481D01*
X12888762Y-17802529D01*
X12879238Y-17812052D01*
X12860190Y-17821576D01*
X12812571Y-17821576D01*
X12793524Y-17812052D01*
X12784000Y-17802529D01*
X12974476Y-17621576D02*
X12974476Y-17659671D01*
X13050667Y-17621576D02*
X13050667Y-17659671D01*
X13345905Y-17897767D02*
X13336381Y-17888243D01*
X13317333Y-17859671D01*
X13307809Y-17840624D01*
X13298286Y-17812052D01*
X13288762Y-17764433D01*
X13288762Y-17726338D01*
X13298286Y-17678719D01*
X13307809Y-17650148D01*
X13317333Y-17631100D01*
X13336381Y-17602529D01*
X13345905Y-17593005D01*
X13507809Y-17621576D02*
X13469714Y-17621576D01*
X13450667Y-17631100D01*
X13441143Y-17640624D01*
X13422095Y-17669195D01*
X13412571Y-17707290D01*
X13412571Y-17783481D01*
X13422095Y-17802529D01*
X13431619Y-17812052D01*
X13450667Y-17821576D01*
X13488762Y-17821576D01*
X13507809Y-17812052D01*
X13517333Y-17802529D01*
X13526857Y-17783481D01*
X13526857Y-17735862D01*
X13517333Y-17716814D01*
X13507809Y-17707290D01*
X13488762Y-17697767D01*
X13450667Y-17697767D01*
X13431619Y-17707290D01*
X13422095Y-17716814D01*
X13412571Y-17735862D01*
X13764952Y-17821576D02*
X13764952Y-17621576D01*
X13850667Y-17821576D02*
X13850667Y-17716814D01*
X13841143Y-17697767D01*
X13822095Y-17688243D01*
X13793524Y-17688243D01*
X13774476Y-17697767D01*
X13764952Y-17707290D01*
X13974476Y-17821576D02*
X13955428Y-17812052D01*
X13945905Y-17802529D01*
X13936381Y-17783481D01*
X13936381Y-17726338D01*
X13945905Y-17707290D01*
X13955428Y-17697767D01*
X13974476Y-17688243D01*
X14003048Y-17688243D01*
X14022095Y-17697767D01*
X14031619Y-17707290D01*
X14041143Y-17726338D01*
X14041143Y-17783481D01*
X14031619Y-17802529D01*
X14022095Y-17812052D01*
X14003048Y-17821576D01*
X13974476Y-17821576D01*
X14155428Y-17821576D02*
X14136381Y-17812052D01*
X14126857Y-17793005D01*
X14126857Y-17621576D01*
X14307809Y-17812052D02*
X14288762Y-17821576D01*
X14250667Y-17821576D01*
X14231619Y-17812052D01*
X14222095Y-17793005D01*
X14222095Y-17716814D01*
X14231619Y-17697767D01*
X14250667Y-17688243D01*
X14288762Y-17688243D01*
X14307809Y-17697767D01*
X14317333Y-17716814D01*
X14317333Y-17735862D01*
X14222095Y-17754910D01*
X14393524Y-17812052D02*
X14412571Y-17821576D01*
X14450667Y-17821576D01*
X14469714Y-17812052D01*
X14479238Y-17793005D01*
X14479238Y-17783481D01*
X14469714Y-17764433D01*
X14450667Y-17754910D01*
X14422095Y-17754910D01*
X14403048Y-17745386D01*
X14393524Y-17726338D01*
X14393524Y-17716814D01*
X14403048Y-17697767D01*
X14422095Y-17688243D01*
X14450667Y-17688243D01*
X14469714Y-17697767D01*
X14545905Y-17897767D02*
X14555428Y-17888243D01*
X14574476Y-17859671D01*
X14584000Y-17840624D01*
X14593524Y-17812052D01*
X14603048Y-17764433D01*
X14603048Y-17726338D01*
X14593524Y-17678719D01*
X14584000Y-17650148D01*
X14574476Y-17631100D01*
X14555428Y-17602529D01*
X14545905Y-17593005D01*
D16*
X9734000Y-18035100D02*
X9774000Y-17995100D01*
X9734000Y-17955100D01*
X9694000Y-17995100D01*
X9734000Y-18035100D01*
D11*
X10069714Y-17885576D02*
X10088762Y-17885576D01*
X10107810Y-17895100D01*
X10117333Y-17904624D01*
X10126857Y-17923671D01*
X10136381Y-17961767D01*
X10136381Y-18009386D01*
X10126857Y-18047481D01*
X10117333Y-18066529D01*
X10107810Y-18076052D01*
X10088762Y-18085576D01*
X10069714Y-18085576D01*
X10050667Y-18076052D01*
X10041143Y-18066529D01*
X10031619Y-18047481D01*
X10022095Y-18009386D01*
X10022095Y-17961767D01*
X10031619Y-17923671D01*
X10041143Y-17904624D01*
X10050667Y-17895100D01*
X10069714Y-17885576D01*
X10222095Y-18066529D02*
X10231619Y-18076052D01*
X10222095Y-18085576D01*
X10212571Y-18076052D01*
X10222095Y-18066529D01*
X10222095Y-18085576D01*
X10345905Y-17971290D02*
X10326857Y-17961767D01*
X10317333Y-17952243D01*
X10307810Y-17933195D01*
X10307810Y-17923671D01*
X10317333Y-17904624D01*
X10326857Y-17895100D01*
X10345905Y-17885576D01*
X10384000Y-17885576D01*
X10403048Y-17895100D01*
X10412571Y-17904624D01*
X10422095Y-17923671D01*
X10422095Y-17933195D01*
X10412571Y-17952243D01*
X10403048Y-17961767D01*
X10384000Y-17971290D01*
X10345905Y-17971290D01*
X10326857Y-17980814D01*
X10317333Y-17990338D01*
X10307810Y-18009386D01*
X10307810Y-18047481D01*
X10317333Y-18066529D01*
X10326857Y-18076052D01*
X10345905Y-18085576D01*
X10384000Y-18085576D01*
X10403048Y-18076052D01*
X10412571Y-18066529D01*
X10422095Y-18047481D01*
X10422095Y-18009386D01*
X10412571Y-17990338D01*
X10403048Y-17980814D01*
X10384000Y-17971290D01*
X10545905Y-17885576D02*
X10564952Y-17885576D01*
X10584000Y-17895100D01*
X10593524Y-17904624D01*
X10603048Y-17923671D01*
X10612571Y-17961767D01*
X10612571Y-18009386D01*
X10603048Y-18047481D01*
X10593524Y-18066529D01*
X10584000Y-18076052D01*
X10564952Y-18085576D01*
X10545905Y-18085576D01*
X10526857Y-18076052D01*
X10517333Y-18066529D01*
X10507810Y-18047481D01*
X10498286Y-18009386D01*
X10498286Y-17961767D01*
X10507810Y-17923671D01*
X10517333Y-17904624D01*
X10526857Y-17895100D01*
X10545905Y-17885576D01*
X10736381Y-17885576D02*
X10755429Y-17885576D01*
X10774476Y-17895100D01*
X10784000Y-17904624D01*
X10793524Y-17923671D01*
X10803048Y-17961767D01*
X10803048Y-18009386D01*
X10793524Y-18047481D01*
X10784000Y-18066529D01*
X10774476Y-18076052D01*
X10755429Y-18085576D01*
X10736381Y-18085576D01*
X10717333Y-18076052D01*
X10707810Y-18066529D01*
X10698286Y-18047481D01*
X10688762Y-18009386D01*
X10688762Y-17961767D01*
X10698286Y-17923671D01*
X10707810Y-17904624D01*
X10717333Y-17895100D01*
X10736381Y-17885576D01*
X10888762Y-18085576D02*
X10888762Y-17952243D01*
X10888762Y-17971290D02*
X10898286Y-17961767D01*
X10917333Y-17952243D01*
X10945905Y-17952243D01*
X10964952Y-17961767D01*
X10974476Y-17980814D01*
X10974476Y-18085576D01*
X10974476Y-17980814D02*
X10984000Y-17961767D01*
X11003048Y-17952243D01*
X11031619Y-17952243D01*
X11050667Y-17961767D01*
X11060190Y-17980814D01*
X11060190Y-18085576D01*
X11155429Y-18085576D02*
X11155429Y-17952243D01*
X11155429Y-17971290D02*
X11164952Y-17961767D01*
X11184000Y-17952243D01*
X11212571Y-17952243D01*
X11231619Y-17961767D01*
X11241143Y-17980814D01*
X11241143Y-18085576D01*
X11241143Y-17980814D02*
X11250667Y-17961767D01*
X11269714Y-17952243D01*
X11298286Y-17952243D01*
X11317333Y-17961767D01*
X11326857Y-17980814D01*
X11326857Y-18085576D01*
X11717333Y-17876052D02*
X11545905Y-18133195D01*
X11974476Y-17885576D02*
X11993524Y-17885576D01*
X12012571Y-17895100D01*
X12022095Y-17904624D01*
X12031619Y-17923671D01*
X12041143Y-17961767D01*
X12041143Y-18009386D01*
X12031619Y-18047481D01*
X12022095Y-18066529D01*
X12012571Y-18076052D01*
X11993524Y-18085576D01*
X11974476Y-18085576D01*
X11955428Y-18076052D01*
X11945905Y-18066529D01*
X11936381Y-18047481D01*
X11926857Y-18009386D01*
X11926857Y-17961767D01*
X11936381Y-17923671D01*
X11945905Y-17904624D01*
X11955428Y-17895100D01*
X11974476Y-17885576D01*
X12126857Y-18066529D02*
X12136381Y-18076052D01*
X12126857Y-18085576D01*
X12117333Y-18076052D01*
X12126857Y-18066529D01*
X12126857Y-18085576D01*
X12260190Y-17885576D02*
X12279238Y-17885576D01*
X12298286Y-17895100D01*
X12307809Y-17904624D01*
X12317333Y-17923671D01*
X12326857Y-17961767D01*
X12326857Y-18009386D01*
X12317333Y-18047481D01*
X12307809Y-18066529D01*
X12298286Y-18076052D01*
X12279238Y-18085576D01*
X12260190Y-18085576D01*
X12241143Y-18076052D01*
X12231619Y-18066529D01*
X12222095Y-18047481D01*
X12212571Y-18009386D01*
X12212571Y-17961767D01*
X12222095Y-17923671D01*
X12231619Y-17904624D01*
X12241143Y-17895100D01*
X12260190Y-17885576D01*
X12393524Y-17885576D02*
X12517333Y-17885576D01*
X12450667Y-17961767D01*
X12479238Y-17961767D01*
X12498286Y-17971290D01*
X12507809Y-17980814D01*
X12517333Y-17999862D01*
X12517333Y-18047481D01*
X12507809Y-18066529D01*
X12498286Y-18076052D01*
X12479238Y-18085576D01*
X12422095Y-18085576D01*
X12403048Y-18076052D01*
X12393524Y-18066529D01*
X12707809Y-18085576D02*
X12593524Y-18085576D01*
X12650667Y-18085576D02*
X12650667Y-17885576D01*
X12631619Y-17914148D01*
X12612571Y-17933195D01*
X12593524Y-17942719D01*
X12888762Y-17885576D02*
X12793524Y-17885576D01*
X12784000Y-17980814D01*
X12793524Y-17971290D01*
X12812571Y-17961767D01*
X12860190Y-17961767D01*
X12879238Y-17971290D01*
X12888762Y-17980814D01*
X12898286Y-17999862D01*
X12898286Y-18047481D01*
X12888762Y-18066529D01*
X12879238Y-18076052D01*
X12860190Y-18085576D01*
X12812571Y-18085576D01*
X12793524Y-18076052D01*
X12784000Y-18066529D01*
X12974476Y-17885576D02*
X12974476Y-17923671D01*
X13050667Y-17885576D02*
X13050667Y-17923671D01*
X13345905Y-18161767D02*
X13336381Y-18152243D01*
X13317333Y-18123671D01*
X13307809Y-18104624D01*
X13298286Y-18076052D01*
X13288762Y-18028433D01*
X13288762Y-17990338D01*
X13298286Y-17942719D01*
X13307809Y-17914148D01*
X13317333Y-17895100D01*
X13336381Y-17866529D01*
X13345905Y-17857005D01*
X13526857Y-18085576D02*
X13412571Y-18085576D01*
X13469714Y-18085576D02*
X13469714Y-17885576D01*
X13450667Y-17914148D01*
X13431619Y-17933195D01*
X13412571Y-17942719D01*
X13755428Y-18076052D02*
X13774476Y-18085576D01*
X13812571Y-18085576D01*
X13831619Y-18076052D01*
X13841143Y-18057005D01*
X13841143Y-18047481D01*
X13831619Y-18028433D01*
X13812571Y-18018910D01*
X13784000Y-18018910D01*
X13764952Y-18009386D01*
X13755428Y-17990338D01*
X13755428Y-17980814D01*
X13764952Y-17961767D01*
X13784000Y-17952243D01*
X13812571Y-17952243D01*
X13831619Y-17961767D01*
X13955428Y-18085576D02*
X13936381Y-18076052D01*
X13926857Y-18057005D01*
X13926857Y-17885576D01*
X14060190Y-18085576D02*
X14041143Y-18076052D01*
X14031619Y-18066529D01*
X14022095Y-18047481D01*
X14022095Y-17990338D01*
X14031619Y-17971290D01*
X14041143Y-17961767D01*
X14060190Y-17952243D01*
X14088762Y-17952243D01*
X14107809Y-17961767D01*
X14117333Y-17971290D01*
X14126857Y-17990338D01*
X14126857Y-18047481D01*
X14117333Y-18066529D01*
X14107809Y-18076052D01*
X14088762Y-18085576D01*
X14060190Y-18085576D01*
X14184000Y-17952243D02*
X14260190Y-17952243D01*
X14212571Y-17885576D02*
X14212571Y-18057005D01*
X14222095Y-18076052D01*
X14241143Y-18085576D01*
X14260190Y-18085576D01*
X14307809Y-18161767D02*
X14317333Y-18152243D01*
X14336381Y-18123671D01*
X14345905Y-18104624D01*
X14355428Y-18076052D01*
X14364952Y-18028433D01*
X14364952Y-17990338D01*
X14355428Y-17942719D01*
X14345905Y-17914148D01*
X14336381Y-17895100D01*
X14317333Y-17866529D01*
X14307809Y-17857005D01*
D17*
X9674000Y-18209100D02*
X9774000Y-18309100D01*
X9774000Y-18209100D02*
X9674000Y-18309100D01*
X9774000Y-18259100D02*
G75*
G03*
X9774000Y-18259100I-50000J0D01*
G01*
D11*
X10136381Y-18349576D02*
X10022095Y-18349576D01*
X10079238Y-18349576D02*
X10079238Y-18149576D01*
X10060190Y-18178148D01*
X10041143Y-18197195D01*
X10022095Y-18206719D01*
X10222095Y-18330529D02*
X10231619Y-18340052D01*
X10222095Y-18349576D01*
X10212571Y-18340052D01*
X10222095Y-18330529D01*
X10222095Y-18349576D01*
X10355429Y-18149576D02*
X10374476Y-18149576D01*
X10393524Y-18159100D01*
X10403048Y-18168624D01*
X10412571Y-18187671D01*
X10422095Y-18225767D01*
X10422095Y-18273386D01*
X10412571Y-18311481D01*
X10403048Y-18330529D01*
X10393524Y-18340052D01*
X10374476Y-18349576D01*
X10355429Y-18349576D01*
X10336381Y-18340052D01*
X10326857Y-18330529D01*
X10317333Y-18311481D01*
X10307810Y-18273386D01*
X10307810Y-18225767D01*
X10317333Y-18187671D01*
X10326857Y-18168624D01*
X10336381Y-18159100D01*
X10355429Y-18149576D01*
X10545905Y-18149576D02*
X10564952Y-18149576D01*
X10584000Y-18159100D01*
X10593524Y-18168624D01*
X10603048Y-18187671D01*
X10612571Y-18225767D01*
X10612571Y-18273386D01*
X10603048Y-18311481D01*
X10593524Y-18330529D01*
X10584000Y-18340052D01*
X10564952Y-18349576D01*
X10545905Y-18349576D01*
X10526857Y-18340052D01*
X10517333Y-18330529D01*
X10507810Y-18311481D01*
X10498286Y-18273386D01*
X10498286Y-18225767D01*
X10507810Y-18187671D01*
X10517333Y-18168624D01*
X10526857Y-18159100D01*
X10545905Y-18149576D01*
X10736381Y-18149576D02*
X10755429Y-18149576D01*
X10774476Y-18159100D01*
X10784000Y-18168624D01*
X10793524Y-18187671D01*
X10803048Y-18225767D01*
X10803048Y-18273386D01*
X10793524Y-18311481D01*
X10784000Y-18330529D01*
X10774476Y-18340052D01*
X10755429Y-18349576D01*
X10736381Y-18349576D01*
X10717333Y-18340052D01*
X10707810Y-18330529D01*
X10698286Y-18311481D01*
X10688762Y-18273386D01*
X10688762Y-18225767D01*
X10698286Y-18187671D01*
X10707810Y-18168624D01*
X10717333Y-18159100D01*
X10736381Y-18149576D01*
X10888762Y-18349576D02*
X10888762Y-18216243D01*
X10888762Y-18235290D02*
X10898286Y-18225767D01*
X10917333Y-18216243D01*
X10945905Y-18216243D01*
X10964952Y-18225767D01*
X10974476Y-18244814D01*
X10974476Y-18349576D01*
X10974476Y-18244814D02*
X10984000Y-18225767D01*
X11003048Y-18216243D01*
X11031619Y-18216243D01*
X11050667Y-18225767D01*
X11060190Y-18244814D01*
X11060190Y-18349576D01*
X11155429Y-18349576D02*
X11155429Y-18216243D01*
X11155429Y-18235290D02*
X11164952Y-18225767D01*
X11184000Y-18216243D01*
X11212571Y-18216243D01*
X11231619Y-18225767D01*
X11241143Y-18244814D01*
X11241143Y-18349576D01*
X11241143Y-18244814D02*
X11250667Y-18225767D01*
X11269714Y-18216243D01*
X11298286Y-18216243D01*
X11317333Y-18225767D01*
X11326857Y-18244814D01*
X11326857Y-18349576D01*
X11717333Y-18140052D02*
X11545905Y-18397195D01*
X11974476Y-18149576D02*
X11993524Y-18149576D01*
X12012571Y-18159100D01*
X12022095Y-18168624D01*
X12031619Y-18187671D01*
X12041143Y-18225767D01*
X12041143Y-18273386D01*
X12031619Y-18311481D01*
X12022095Y-18330529D01*
X12012571Y-18340052D01*
X11993524Y-18349576D01*
X11974476Y-18349576D01*
X11955428Y-18340052D01*
X11945905Y-18330529D01*
X11936381Y-18311481D01*
X11926857Y-18273386D01*
X11926857Y-18225767D01*
X11936381Y-18187671D01*
X11945905Y-18168624D01*
X11955428Y-18159100D01*
X11974476Y-18149576D01*
X12126857Y-18330529D02*
X12136381Y-18340052D01*
X12126857Y-18349576D01*
X12117333Y-18340052D01*
X12126857Y-18330529D01*
X12126857Y-18349576D01*
X12260190Y-18149576D02*
X12279238Y-18149576D01*
X12298286Y-18159100D01*
X12307809Y-18168624D01*
X12317333Y-18187671D01*
X12326857Y-18225767D01*
X12326857Y-18273386D01*
X12317333Y-18311481D01*
X12307809Y-18330529D01*
X12298286Y-18340052D01*
X12279238Y-18349576D01*
X12260190Y-18349576D01*
X12241143Y-18340052D01*
X12231619Y-18330529D01*
X12222095Y-18311481D01*
X12212571Y-18273386D01*
X12212571Y-18225767D01*
X12222095Y-18187671D01*
X12231619Y-18168624D01*
X12241143Y-18159100D01*
X12260190Y-18149576D01*
X12393524Y-18149576D02*
X12517333Y-18149576D01*
X12450667Y-18225767D01*
X12479238Y-18225767D01*
X12498286Y-18235290D01*
X12507809Y-18244814D01*
X12517333Y-18263862D01*
X12517333Y-18311481D01*
X12507809Y-18330529D01*
X12498286Y-18340052D01*
X12479238Y-18349576D01*
X12422095Y-18349576D01*
X12403048Y-18340052D01*
X12393524Y-18330529D01*
X12612571Y-18349576D02*
X12650667Y-18349576D01*
X12669714Y-18340052D01*
X12679238Y-18330529D01*
X12698286Y-18301957D01*
X12707809Y-18263862D01*
X12707809Y-18187671D01*
X12698286Y-18168624D01*
X12688762Y-18159100D01*
X12669714Y-18149576D01*
X12631619Y-18149576D01*
X12612571Y-18159100D01*
X12603048Y-18168624D01*
X12593524Y-18187671D01*
X12593524Y-18235290D01*
X12603048Y-18254338D01*
X12612571Y-18263862D01*
X12631619Y-18273386D01*
X12669714Y-18273386D01*
X12688762Y-18263862D01*
X12698286Y-18254338D01*
X12707809Y-18235290D01*
X12879238Y-18216243D02*
X12879238Y-18349576D01*
X12831619Y-18140052D02*
X12784000Y-18282910D01*
X12907809Y-18282910D01*
X12974476Y-18149576D02*
X12974476Y-18187671D01*
X13050667Y-18149576D02*
X13050667Y-18187671D01*
X13345905Y-18425767D02*
X13336381Y-18416243D01*
X13317333Y-18387671D01*
X13307809Y-18368624D01*
X13298286Y-18340052D01*
X13288762Y-18292433D01*
X13288762Y-18254338D01*
X13298286Y-18206719D01*
X13307809Y-18178148D01*
X13317333Y-18159100D01*
X13336381Y-18130529D01*
X13345905Y-18121005D01*
X13526857Y-18349576D02*
X13412571Y-18349576D01*
X13469714Y-18349576D02*
X13469714Y-18149576D01*
X13450667Y-18178148D01*
X13431619Y-18197195D01*
X13412571Y-18206719D01*
X13650667Y-18149576D02*
X13669714Y-18149576D01*
X13688762Y-18159100D01*
X13698286Y-18168624D01*
X13707809Y-18187671D01*
X13717333Y-18225767D01*
X13717333Y-18273386D01*
X13707809Y-18311481D01*
X13698286Y-18330529D01*
X13688762Y-18340052D01*
X13669714Y-18349576D01*
X13650667Y-18349576D01*
X13631619Y-18340052D01*
X13622095Y-18330529D01*
X13612571Y-18311481D01*
X13603048Y-18273386D01*
X13603048Y-18225767D01*
X13612571Y-18187671D01*
X13622095Y-18168624D01*
X13631619Y-18159100D01*
X13650667Y-18149576D01*
X13831619Y-18235290D02*
X13812571Y-18225767D01*
X13803048Y-18216243D01*
X13793524Y-18197195D01*
X13793524Y-18187671D01*
X13803048Y-18168624D01*
X13812571Y-18159100D01*
X13831619Y-18149576D01*
X13869714Y-18149576D01*
X13888762Y-18159100D01*
X13898286Y-18168624D01*
X13907809Y-18187671D01*
X13907809Y-18197195D01*
X13898286Y-18216243D01*
X13888762Y-18225767D01*
X13869714Y-18235290D01*
X13831619Y-18235290D01*
X13812571Y-18244814D01*
X13803048Y-18254338D01*
X13793524Y-18273386D01*
X13793524Y-18311481D01*
X13803048Y-18330529D01*
X13812571Y-18340052D01*
X13831619Y-18349576D01*
X13869714Y-18349576D01*
X13888762Y-18340052D01*
X13898286Y-18330529D01*
X13907809Y-18311481D01*
X13907809Y-18273386D01*
X13898286Y-18254338D01*
X13888762Y-18244814D01*
X13869714Y-18235290D01*
X14145905Y-18349576D02*
X14145905Y-18149576D01*
X14231619Y-18349576D02*
X14231619Y-18244814D01*
X14222095Y-18225767D01*
X14203048Y-18216243D01*
X14174476Y-18216243D01*
X14155428Y-18225767D01*
X14145905Y-18235290D01*
X14355428Y-18349576D02*
X14336381Y-18340052D01*
X14326857Y-18330529D01*
X14317333Y-18311481D01*
X14317333Y-18254338D01*
X14326857Y-18235290D01*
X14336381Y-18225767D01*
X14355428Y-18216243D01*
X14384000Y-18216243D01*
X14403048Y-18225767D01*
X14412571Y-18235290D01*
X14422095Y-18254338D01*
X14422095Y-18311481D01*
X14412571Y-18330529D01*
X14403048Y-18340052D01*
X14384000Y-18349576D01*
X14355428Y-18349576D01*
X14536381Y-18349576D02*
X14517333Y-18340052D01*
X14507809Y-18321005D01*
X14507809Y-18149576D01*
X14688762Y-18340052D02*
X14669714Y-18349576D01*
X14631619Y-18349576D01*
X14612571Y-18340052D01*
X14603048Y-18321005D01*
X14603048Y-18244814D01*
X14612571Y-18225767D01*
X14631619Y-18216243D01*
X14669714Y-18216243D01*
X14688762Y-18225767D01*
X14698286Y-18244814D01*
X14698286Y-18263862D01*
X14603048Y-18282910D01*
X14774476Y-18340052D02*
X14793524Y-18349576D01*
X14831619Y-18349576D01*
X14850667Y-18340052D01*
X14860190Y-18321005D01*
X14860190Y-18311481D01*
X14850667Y-18292433D01*
X14831619Y-18282910D01*
X14803048Y-18282910D01*
X14784000Y-18273386D01*
X14774476Y-18254338D01*
X14774476Y-18244814D01*
X14784000Y-18225767D01*
X14803048Y-18216243D01*
X14831619Y-18216243D01*
X14850667Y-18225767D01*
X14926857Y-18425767D02*
X14936381Y-18416243D01*
X14955428Y-18387671D01*
X14964952Y-18368624D01*
X14974476Y-18340052D01*
X14984000Y-18292433D01*
X14984000Y-18254338D01*
X14974476Y-18206719D01*
X14964952Y-18178148D01*
X14955428Y-18159100D01*
X14936381Y-18130529D01*
X14926857Y-18121005D01*
D18*
X9624000Y-18448100D02*
X9774000Y-18598100D01*
X9774000Y-18448100D02*
X9624000Y-18598100D01*
X9699000Y-18448100D02*
X9699000Y-18598100D01*
X9624000Y-18523100D02*
X9774000Y-18523100D01*
D11*
X10136381Y-18613576D02*
X10022095Y-18613576D01*
X10079238Y-18613576D02*
X10079238Y-18413576D01*
X10060190Y-18442148D01*
X10041143Y-18461195D01*
X10022095Y-18470719D01*
X10222095Y-18594529D02*
X10231619Y-18604052D01*
X10222095Y-18613576D01*
X10212571Y-18604052D01*
X10222095Y-18594529D01*
X10222095Y-18613576D01*
X10412571Y-18413576D02*
X10317333Y-18413576D01*
X10307810Y-18508814D01*
X10317333Y-18499290D01*
X10336381Y-18489767D01*
X10384000Y-18489767D01*
X10403048Y-18499290D01*
X10412571Y-18508814D01*
X10422095Y-18527862D01*
X10422095Y-18575481D01*
X10412571Y-18594529D01*
X10403048Y-18604052D01*
X10384000Y-18613576D01*
X10336381Y-18613576D01*
X10317333Y-18604052D01*
X10307810Y-18594529D01*
X10545905Y-18413576D02*
X10564952Y-18413576D01*
X10584000Y-18423100D01*
X10593524Y-18432624D01*
X10603048Y-18451671D01*
X10612571Y-18489767D01*
X10612571Y-18537386D01*
X10603048Y-18575481D01*
X10593524Y-18594529D01*
X10584000Y-18604052D01*
X10564952Y-18613576D01*
X10545905Y-18613576D01*
X10526857Y-18604052D01*
X10517333Y-18594529D01*
X10507810Y-18575481D01*
X10498286Y-18537386D01*
X10498286Y-18489767D01*
X10507810Y-18451671D01*
X10517333Y-18432624D01*
X10526857Y-18423100D01*
X10545905Y-18413576D01*
X10736381Y-18413576D02*
X10755429Y-18413576D01*
X10774476Y-18423100D01*
X10784000Y-18432624D01*
X10793524Y-18451671D01*
X10803048Y-18489767D01*
X10803048Y-18537386D01*
X10793524Y-18575481D01*
X10784000Y-18594529D01*
X10774476Y-18604052D01*
X10755429Y-18613576D01*
X10736381Y-18613576D01*
X10717333Y-18604052D01*
X10707810Y-18594529D01*
X10698286Y-18575481D01*
X10688762Y-18537386D01*
X10688762Y-18489767D01*
X10698286Y-18451671D01*
X10707810Y-18432624D01*
X10717333Y-18423100D01*
X10736381Y-18413576D01*
X10888762Y-18613576D02*
X10888762Y-18480243D01*
X10888762Y-18499290D02*
X10898286Y-18489767D01*
X10917333Y-18480243D01*
X10945905Y-18480243D01*
X10964952Y-18489767D01*
X10974476Y-18508814D01*
X10974476Y-18613576D01*
X10974476Y-18508814D02*
X10984000Y-18489767D01*
X11003048Y-18480243D01*
X11031619Y-18480243D01*
X11050667Y-18489767D01*
X11060190Y-18508814D01*
X11060190Y-18613576D01*
X11155429Y-18613576D02*
X11155429Y-18480243D01*
X11155429Y-18499290D02*
X11164952Y-18489767D01*
X11184000Y-18480243D01*
X11212571Y-18480243D01*
X11231619Y-18489767D01*
X11241143Y-18508814D01*
X11241143Y-18613576D01*
X11241143Y-18508814D02*
X11250667Y-18489767D01*
X11269714Y-18480243D01*
X11298286Y-18480243D01*
X11317333Y-18489767D01*
X11326857Y-18508814D01*
X11326857Y-18613576D01*
X11717333Y-18404052D02*
X11545905Y-18661195D01*
X11974476Y-18413576D02*
X11993524Y-18413576D01*
X12012571Y-18423100D01*
X12022095Y-18432624D01*
X12031619Y-18451671D01*
X12041143Y-18489767D01*
X12041143Y-18537386D01*
X12031619Y-18575481D01*
X12022095Y-18594529D01*
X12012571Y-18604052D01*
X11993524Y-18613576D01*
X11974476Y-18613576D01*
X11955428Y-18604052D01*
X11945905Y-18594529D01*
X11936381Y-18575481D01*
X11926857Y-18537386D01*
X11926857Y-18489767D01*
X11936381Y-18451671D01*
X11945905Y-18432624D01*
X11955428Y-18423100D01*
X11974476Y-18413576D01*
X12126857Y-18594529D02*
X12136381Y-18604052D01*
X12126857Y-18613576D01*
X12117333Y-18604052D01*
X12126857Y-18594529D01*
X12126857Y-18613576D01*
X12260190Y-18413576D02*
X12279238Y-18413576D01*
X12298286Y-18423100D01*
X12307809Y-18432624D01*
X12317333Y-18451671D01*
X12326857Y-18489767D01*
X12326857Y-18537386D01*
X12317333Y-18575481D01*
X12307809Y-18594529D01*
X12298286Y-18604052D01*
X12279238Y-18613576D01*
X12260190Y-18613576D01*
X12241143Y-18604052D01*
X12231619Y-18594529D01*
X12222095Y-18575481D01*
X12212571Y-18537386D01*
X12212571Y-18489767D01*
X12222095Y-18451671D01*
X12231619Y-18432624D01*
X12241143Y-18423100D01*
X12260190Y-18413576D01*
X12507809Y-18413576D02*
X12412571Y-18413576D01*
X12403048Y-18508814D01*
X12412571Y-18499290D01*
X12431619Y-18489767D01*
X12479238Y-18489767D01*
X12498286Y-18499290D01*
X12507809Y-18508814D01*
X12517333Y-18527862D01*
X12517333Y-18575481D01*
X12507809Y-18594529D01*
X12498286Y-18604052D01*
X12479238Y-18613576D01*
X12431619Y-18613576D01*
X12412571Y-18604052D01*
X12403048Y-18594529D01*
X12612571Y-18613576D02*
X12650667Y-18613576D01*
X12669714Y-18604052D01*
X12679238Y-18594529D01*
X12698286Y-18565957D01*
X12707809Y-18527862D01*
X12707809Y-18451671D01*
X12698286Y-18432624D01*
X12688762Y-18423100D01*
X12669714Y-18413576D01*
X12631619Y-18413576D01*
X12612571Y-18423100D01*
X12603048Y-18432624D01*
X12593524Y-18451671D01*
X12593524Y-18499290D01*
X12603048Y-18518338D01*
X12612571Y-18527862D01*
X12631619Y-18537386D01*
X12669714Y-18537386D01*
X12688762Y-18527862D01*
X12698286Y-18518338D01*
X12707809Y-18499290D01*
X12898286Y-18613576D02*
X12784000Y-18613576D01*
X12841143Y-18613576D02*
X12841143Y-18413576D01*
X12822095Y-18442148D01*
X12803048Y-18461195D01*
X12784000Y-18470719D01*
X12974476Y-18413576D02*
X12974476Y-18451671D01*
X13050667Y-18413576D02*
X13050667Y-18451671D01*
X13345905Y-18689767D02*
X13336381Y-18680243D01*
X13317333Y-18651671D01*
X13307809Y-18632624D01*
X13298286Y-18604052D01*
X13288762Y-18556433D01*
X13288762Y-18518338D01*
X13298286Y-18470719D01*
X13307809Y-18442148D01*
X13317333Y-18423100D01*
X13336381Y-18394529D01*
X13345905Y-18385005D01*
X13526857Y-18613576D02*
X13412571Y-18613576D01*
X13469714Y-18613576D02*
X13469714Y-18413576D01*
X13450667Y-18442148D01*
X13431619Y-18461195D01*
X13412571Y-18470719D01*
X13755428Y-18604052D02*
X13774476Y-18613576D01*
X13812571Y-18613576D01*
X13831619Y-18604052D01*
X13841143Y-18585005D01*
X13841143Y-18575481D01*
X13831619Y-18556433D01*
X13812571Y-18546910D01*
X13784000Y-18546910D01*
X13764952Y-18537386D01*
X13755428Y-18518338D01*
X13755428Y-18508814D01*
X13764952Y-18489767D01*
X13784000Y-18480243D01*
X13812571Y-18480243D01*
X13831619Y-18489767D01*
X13955428Y-18613576D02*
X13936381Y-18604052D01*
X13926857Y-18585005D01*
X13926857Y-18413576D01*
X14060190Y-18613576D02*
X14041143Y-18604052D01*
X14031619Y-18594529D01*
X14022095Y-18575481D01*
X14022095Y-18518338D01*
X14031619Y-18499290D01*
X14041143Y-18489767D01*
X14060190Y-18480243D01*
X14088762Y-18480243D01*
X14107809Y-18489767D01*
X14117333Y-18499290D01*
X14126857Y-18518338D01*
X14126857Y-18575481D01*
X14117333Y-18594529D01*
X14107809Y-18604052D01*
X14088762Y-18613576D01*
X14060190Y-18613576D01*
X14184000Y-18480243D02*
X14260190Y-18480243D01*
X14212571Y-18413576D02*
X14212571Y-18585005D01*
X14222095Y-18604052D01*
X14241143Y-18613576D01*
X14260190Y-18613576D01*
X14307809Y-18689767D02*
X14317333Y-18680243D01*
X14336381Y-18651671D01*
X14345905Y-18632624D01*
X14355428Y-18604052D01*
X14364952Y-18556433D01*
X14364952Y-18518338D01*
X14355428Y-18470719D01*
X14345905Y-18442148D01*
X14336381Y-18423100D01*
X14317333Y-18394529D01*
X14307809Y-18385005D01*
X9574000Y-18693100D02*
X9774000Y-18893100D01*
X9774000Y-18693100D02*
X9574000Y-18893100D01*
X9744711Y-18863811D02*
X9744711Y-18722389D01*
X9603289Y-18722389D01*
X9603289Y-18863811D01*
X9744711Y-18863811D01*
X10022095Y-18702624D02*
X10031619Y-18693100D01*
X10050667Y-18683576D01*
X10098286Y-18683576D01*
X10117333Y-18693100D01*
X10126857Y-18702624D01*
X10136381Y-18721671D01*
X10136381Y-18740719D01*
X10126857Y-18769290D01*
X10012571Y-18883576D01*
X10136381Y-18883576D01*
X10222095Y-18864529D02*
X10231619Y-18874052D01*
X10222095Y-18883576D01*
X10212571Y-18874052D01*
X10222095Y-18864529D01*
X10222095Y-18883576D01*
X10307810Y-18702624D02*
X10317333Y-18693100D01*
X10336381Y-18683576D01*
X10384000Y-18683576D01*
X10403048Y-18693100D01*
X10412571Y-18702624D01*
X10422095Y-18721671D01*
X10422095Y-18740719D01*
X10412571Y-18769290D01*
X10298286Y-18883576D01*
X10422095Y-18883576D01*
X10545905Y-18683576D02*
X10564952Y-18683576D01*
X10584000Y-18693100D01*
X10593524Y-18702624D01*
X10603048Y-18721671D01*
X10612571Y-18759767D01*
X10612571Y-18807386D01*
X10603048Y-18845481D01*
X10593524Y-18864529D01*
X10584000Y-18874052D01*
X10564952Y-18883576D01*
X10545905Y-18883576D01*
X10526857Y-18874052D01*
X10517333Y-18864529D01*
X10507810Y-18845481D01*
X10498286Y-18807386D01*
X10498286Y-18759767D01*
X10507810Y-18721671D01*
X10517333Y-18702624D01*
X10526857Y-18693100D01*
X10545905Y-18683576D01*
X10736381Y-18683576D02*
X10755429Y-18683576D01*
X10774476Y-18693100D01*
X10784000Y-18702624D01*
X10793524Y-18721671D01*
X10803048Y-18759767D01*
X10803048Y-18807386D01*
X10793524Y-18845481D01*
X10784000Y-18864529D01*
X10774476Y-18874052D01*
X10755429Y-18883576D01*
X10736381Y-18883576D01*
X10717333Y-18874052D01*
X10707810Y-18864529D01*
X10698286Y-18845481D01*
X10688762Y-18807386D01*
X10688762Y-18759767D01*
X10698286Y-18721671D01*
X10707810Y-18702624D01*
X10717333Y-18693100D01*
X10736381Y-18683576D01*
X10888762Y-18883576D02*
X10888762Y-18750243D01*
X10888762Y-18769290D02*
X10898286Y-18759767D01*
X10917333Y-18750243D01*
X10945905Y-18750243D01*
X10964952Y-18759767D01*
X10974476Y-18778814D01*
X10974476Y-18883576D01*
X10974476Y-18778814D02*
X10984000Y-18759767D01*
X11003048Y-18750243D01*
X11031619Y-18750243D01*
X11050667Y-18759767D01*
X11060190Y-18778814D01*
X11060190Y-18883576D01*
X11155429Y-18883576D02*
X11155429Y-18750243D01*
X11155429Y-18769290D02*
X11164952Y-18759767D01*
X11184000Y-18750243D01*
X11212571Y-18750243D01*
X11231619Y-18759767D01*
X11241143Y-18778814D01*
X11241143Y-18883576D01*
X11241143Y-18778814D02*
X11250667Y-18759767D01*
X11269714Y-18750243D01*
X11298286Y-18750243D01*
X11317333Y-18759767D01*
X11326857Y-18778814D01*
X11326857Y-18883576D01*
X11717333Y-18674052D02*
X11545905Y-18931195D01*
X11974476Y-18683576D02*
X11993524Y-18683576D01*
X12012571Y-18693100D01*
X12022095Y-18702624D01*
X12031619Y-18721671D01*
X12041143Y-18759767D01*
X12041143Y-18807386D01*
X12031619Y-18845481D01*
X12022095Y-18864529D01*
X12012571Y-18874052D01*
X11993524Y-18883576D01*
X11974476Y-18883576D01*
X11955428Y-18874052D01*
X11945905Y-18864529D01*
X11936381Y-18845481D01*
X11926857Y-18807386D01*
X11926857Y-18759767D01*
X11936381Y-18721671D01*
X11945905Y-18702624D01*
X11955428Y-18693100D01*
X11974476Y-18683576D01*
X12126857Y-18864529D02*
X12136381Y-18874052D01*
X12126857Y-18883576D01*
X12117333Y-18874052D01*
X12126857Y-18864529D01*
X12126857Y-18883576D01*
X12260190Y-18683576D02*
X12279238Y-18683576D01*
X12298286Y-18693100D01*
X12307809Y-18702624D01*
X12317333Y-18721671D01*
X12326857Y-18759767D01*
X12326857Y-18807386D01*
X12317333Y-18845481D01*
X12307809Y-18864529D01*
X12298286Y-18874052D01*
X12279238Y-18883576D01*
X12260190Y-18883576D01*
X12241143Y-18874052D01*
X12231619Y-18864529D01*
X12222095Y-18845481D01*
X12212571Y-18807386D01*
X12212571Y-18759767D01*
X12222095Y-18721671D01*
X12231619Y-18702624D01*
X12241143Y-18693100D01*
X12260190Y-18683576D01*
X12441143Y-18769290D02*
X12422095Y-18759767D01*
X12412571Y-18750243D01*
X12403048Y-18731195D01*
X12403048Y-18721671D01*
X12412571Y-18702624D01*
X12422095Y-18693100D01*
X12441143Y-18683576D01*
X12479238Y-18683576D01*
X12498286Y-18693100D01*
X12507809Y-18702624D01*
X12517333Y-18721671D01*
X12517333Y-18731195D01*
X12507809Y-18750243D01*
X12498286Y-18759767D01*
X12479238Y-18769290D01*
X12441143Y-18769290D01*
X12422095Y-18778814D01*
X12412571Y-18788338D01*
X12403048Y-18807386D01*
X12403048Y-18845481D01*
X12412571Y-18864529D01*
X12422095Y-18874052D01*
X12441143Y-18883576D01*
X12479238Y-18883576D01*
X12498286Y-18874052D01*
X12507809Y-18864529D01*
X12517333Y-18845481D01*
X12517333Y-18807386D01*
X12507809Y-18788338D01*
X12498286Y-18778814D01*
X12479238Y-18769290D01*
X12688762Y-18683576D02*
X12650667Y-18683576D01*
X12631619Y-18693100D01*
X12622095Y-18702624D01*
X12603048Y-18731195D01*
X12593524Y-18769290D01*
X12593524Y-18845481D01*
X12603048Y-18864529D01*
X12612571Y-18874052D01*
X12631619Y-18883576D01*
X12669714Y-18883576D01*
X12688762Y-18874052D01*
X12698286Y-18864529D01*
X12707809Y-18845481D01*
X12707809Y-18797862D01*
X12698286Y-18778814D01*
X12688762Y-18769290D01*
X12669714Y-18759767D01*
X12631619Y-18759767D01*
X12612571Y-18769290D01*
X12603048Y-18778814D01*
X12593524Y-18797862D01*
X12879238Y-18683576D02*
X12841143Y-18683576D01*
X12822095Y-18693100D01*
X12812571Y-18702624D01*
X12793524Y-18731195D01*
X12784000Y-18769290D01*
X12784000Y-18845481D01*
X12793524Y-18864529D01*
X12803048Y-18874052D01*
X12822095Y-18883576D01*
X12860190Y-18883576D01*
X12879238Y-18874052D01*
X12888762Y-18864529D01*
X12898286Y-18845481D01*
X12898286Y-18797862D01*
X12888762Y-18778814D01*
X12879238Y-18769290D01*
X12860190Y-18759767D01*
X12822095Y-18759767D01*
X12803048Y-18769290D01*
X12793524Y-18778814D01*
X12784000Y-18797862D01*
X12974476Y-18683576D02*
X12974476Y-18721671D01*
X13050667Y-18683576D02*
X13050667Y-18721671D01*
X13345905Y-18959767D02*
X13336381Y-18950243D01*
X13317333Y-18921671D01*
X13307809Y-18902624D01*
X13298286Y-18874052D01*
X13288762Y-18826433D01*
X13288762Y-18788338D01*
X13298286Y-18740719D01*
X13307809Y-18712148D01*
X13317333Y-18693100D01*
X13336381Y-18664529D01*
X13345905Y-18655005D01*
X13507809Y-18750243D02*
X13507809Y-18883576D01*
X13460190Y-18674052D02*
X13412571Y-18816910D01*
X13536381Y-18816910D01*
X13764952Y-18883576D02*
X13764952Y-18683576D01*
X13850667Y-18883576D02*
X13850667Y-18778814D01*
X13841143Y-18759767D01*
X13822095Y-18750243D01*
X13793524Y-18750243D01*
X13774476Y-18759767D01*
X13764952Y-18769290D01*
X13974476Y-18883576D02*
X13955428Y-18874052D01*
X13945905Y-18864529D01*
X13936381Y-18845481D01*
X13936381Y-18788338D01*
X13945905Y-18769290D01*
X13955428Y-18759767D01*
X13974476Y-18750243D01*
X14003048Y-18750243D01*
X14022095Y-18759767D01*
X14031619Y-18769290D01*
X14041143Y-18788338D01*
X14041143Y-18845481D01*
X14031619Y-18864529D01*
X14022095Y-18874052D01*
X14003048Y-18883576D01*
X13974476Y-18883576D01*
X14155428Y-18883576D02*
X14136381Y-18874052D01*
X14126857Y-18855005D01*
X14126857Y-18683576D01*
X14307809Y-18874052D02*
X14288762Y-18883576D01*
X14250667Y-18883576D01*
X14231619Y-18874052D01*
X14222095Y-18855005D01*
X14222095Y-18778814D01*
X14231619Y-18759767D01*
X14250667Y-18750243D01*
X14288762Y-18750243D01*
X14307809Y-18759767D01*
X14317333Y-18778814D01*
X14317333Y-18797862D01*
X14222095Y-18816910D01*
X14393524Y-18874052D02*
X14412571Y-18883576D01*
X14450667Y-18883576D01*
X14469714Y-18874052D01*
X14479238Y-18855005D01*
X14479238Y-18845481D01*
X14469714Y-18826433D01*
X14450667Y-18816910D01*
X14422095Y-18816910D01*
X14403048Y-18807386D01*
X14393524Y-18788338D01*
X14393524Y-18778814D01*
X14403048Y-18759767D01*
X14422095Y-18750243D01*
X14450667Y-18750243D01*
X14469714Y-18759767D01*
X14717333Y-18807386D02*
X14869714Y-18807386D01*
X14793524Y-18883576D02*
X14793524Y-18731195D01*
X15107809Y-18702624D02*
X15117333Y-18693100D01*
X15136381Y-18683576D01*
X15184000Y-18683576D01*
X15203048Y-18693100D01*
X15212571Y-18702624D01*
X15222095Y-18721671D01*
X15222095Y-18740719D01*
X15212571Y-18769290D01*
X15098286Y-18883576D01*
X15222095Y-18883576D01*
X15450667Y-18874052D02*
X15469714Y-18883576D01*
X15507809Y-18883576D01*
X15526857Y-18874052D01*
X15536381Y-18855005D01*
X15536381Y-18845481D01*
X15526857Y-18826433D01*
X15507809Y-18816910D01*
X15479238Y-18816910D01*
X15460190Y-18807386D01*
X15450667Y-18788338D01*
X15450667Y-18778814D01*
X15460190Y-18759767D01*
X15479238Y-18750243D01*
X15507809Y-18750243D01*
X15526857Y-18759767D01*
X15650667Y-18883576D02*
X15631619Y-18874052D01*
X15622095Y-18855005D01*
X15622095Y-18683576D01*
X15755428Y-18883576D02*
X15736381Y-18874052D01*
X15726857Y-18864529D01*
X15717333Y-18845481D01*
X15717333Y-18788338D01*
X15726857Y-18769290D01*
X15736381Y-18759767D01*
X15755428Y-18750243D01*
X15784000Y-18750243D01*
X15803048Y-18759767D01*
X15812571Y-18769290D01*
X15822095Y-18788338D01*
X15822095Y-18845481D01*
X15812571Y-18864529D01*
X15803048Y-18874052D01*
X15784000Y-18883576D01*
X15755428Y-18883576D01*
X15879238Y-18750243D02*
X15955428Y-18750243D01*
X15907809Y-18683576D02*
X15907809Y-18855005D01*
X15917333Y-18874052D01*
X15936381Y-18883576D01*
X15955428Y-18883576D01*
X16012571Y-18874052D02*
X16031619Y-18883576D01*
X16069714Y-18883576D01*
X16088762Y-18874052D01*
X16098286Y-18855005D01*
X16098286Y-18845481D01*
X16088762Y-18826433D01*
X16069714Y-18816910D01*
X16041143Y-18816910D01*
X16022095Y-18807386D01*
X16012571Y-18788338D01*
X16012571Y-18778814D01*
X16022095Y-18759767D01*
X16041143Y-18750243D01*
X16069714Y-18750243D01*
X16088762Y-18759767D01*
X16164952Y-18959767D02*
X16174476Y-18950243D01*
X16193524Y-18921671D01*
X16203048Y-18902624D01*
X16212571Y-18874052D01*
X16222095Y-18826433D01*
X16222095Y-18788338D01*
X16212571Y-18740719D01*
X16203048Y-18712148D01*
X16193524Y-18693100D01*
X16174476Y-18664529D01*
X16164952Y-18655005D01*
M02*
