%TF.GenerationSoftware,KiCad,Pcbnew,(6.0.2)*%
%TF.CreationDate,2022-03-08T19:50:54+11:00*%
%TF.ProjectId,VIPBoard,56495042-6f61-4726-942e-6b696361645f,rev?*%
%TF.SameCoordinates,Original*%
%TF.FileFunction,Paste,Top*%
%TF.FilePolarity,Positive*%
%FSLAX46Y46*%
G04 Gerber Fmt 4.6, Leading zero omitted, Abs format (unit mm)*
G04 Created by KiCad (PCBNEW (6.0.2)) date 2022-03-08 19:50:54*
%MOMM*%
%LPD*%
G01*
G04 APERTURE LIST*
G04 Aperture macros list*
%AMRoundRect*
0 Rectangle with rounded corners*
0 $1 Rounding radius*
0 $2 $3 $4 $5 $6 $7 $8 $9 X,Y pos of 4 corners*
0 Add a 4 corners polygon primitive as box body*
4,1,4,$2,$3,$4,$5,$6,$7,$8,$9,$2,$3,0*
0 Add four circle primitives for the rounded corners*
1,1,$1+$1,$2,$3*
1,1,$1+$1,$4,$5*
1,1,$1+$1,$6,$7*
1,1,$1+$1,$8,$9*
0 Add four rect primitives between the rounded corners*
20,1,$1+$1,$2,$3,$4,$5,0*
20,1,$1+$1,$4,$5,$6,$7,0*
20,1,$1+$1,$6,$7,$8,$9,0*
20,1,$1+$1,$8,$9,$2,$3,0*%
G04 Aperture macros list end*
%ADD10RoundRect,0.140000X-0.170000X0.140000X-0.170000X-0.140000X0.170000X-0.140000X0.170000X0.140000X0*%
%ADD11RoundRect,0.250000X-0.475000X0.250000X-0.475000X-0.250000X0.475000X-0.250000X0.475000X0.250000X0*%
%ADD12RoundRect,0.135000X0.185000X-0.135000X0.185000X0.135000X-0.185000X0.135000X-0.185000X-0.135000X0*%
%ADD13RoundRect,0.140000X0.140000X0.170000X-0.140000X0.170000X-0.140000X-0.170000X0.140000X-0.170000X0*%
%ADD14RoundRect,0.135000X-0.185000X0.135000X-0.185000X-0.135000X0.185000X-0.135000X0.185000X0.135000X0*%
%ADD15R,1.000000X0.800000*%
%ADD16R,0.700000X1.500000*%
%ADD17RoundRect,0.250000X0.475000X-0.250000X0.475000X0.250000X-0.475000X0.250000X-0.475000X-0.250000X0*%
%ADD18RoundRect,0.135000X0.135000X0.185000X-0.135000X0.185000X-0.135000X-0.185000X0.135000X-0.185000X0*%
%ADD19RoundRect,0.200000X-0.200000X-0.275000X0.200000X-0.275000X0.200000X0.275000X-0.200000X0.275000X0*%
%ADD20RoundRect,0.140000X-0.140000X-0.170000X0.140000X-0.170000X0.140000X0.170000X-0.140000X0.170000X0*%
%ADD21RoundRect,0.135000X-0.135000X-0.185000X0.135000X-0.185000X0.135000X0.185000X-0.135000X0.185000X0*%
%ADD22RoundRect,0.250000X0.250000X0.475000X-0.250000X0.475000X-0.250000X-0.475000X0.250000X-0.475000X0*%
%ADD23RoundRect,0.250000X-0.250000X-0.475000X0.250000X-0.475000X0.250000X0.475000X-0.250000X0.475000X0*%
%ADD24RoundRect,0.218750X-0.256250X0.218750X-0.256250X-0.218750X0.256250X-0.218750X0.256250X0.218750X0*%
%ADD25R,0.450000X0.600000*%
%ADD26R,1.500000X2.500000*%
%ADD27RoundRect,0.140000X0.170000X-0.140000X0.170000X0.140000X-0.170000X0.140000X-0.170000X-0.140000X0*%
%ADD28R,1.700000X1.000000*%
%ADD29RoundRect,0.150000X0.587500X0.150000X-0.587500X0.150000X-0.587500X-0.150000X0.587500X-0.150000X0*%
%ADD30R,2.450000X0.600000*%
%ADD31R,2.450000X0.300000*%
%ADD32R,1.000000X1.700000*%
%ADD33RoundRect,0.200000X0.275000X-0.200000X0.275000X0.200000X-0.275000X0.200000X-0.275000X-0.200000X0*%
%ADD34R,0.800000X0.900000*%
%ADD35R,0.600000X2.450000*%
%ADD36R,0.300000X2.450000*%
%ADD37RoundRect,0.225000X-0.250000X0.225000X-0.250000X-0.225000X0.250000X-0.225000X0.250000X0.225000X0*%
%ADD38R,1.800000X1.000000*%
G04 APERTURE END LIST*
D10*
%TO.C,C24*%
X136024000Y-131850000D03*
X136024000Y-132810000D03*
%TD*%
D11*
%TO.C,C14*%
X128143000Y-126304000D03*
X128143000Y-128204000D03*
%TD*%
D12*
%TO.C,R40*%
X177507675Y-92345875D03*
X177507675Y-91325875D03*
%TD*%
D13*
%TO.C,C13*%
X131848800Y-121513600D03*
X130888800Y-121513600D03*
%TD*%
D11*
%TO.C,C4*%
X144074000Y-118980000D03*
X144074000Y-120880000D03*
%TD*%
D14*
%TO.C,R3*%
X153036000Y-114294000D03*
X153036000Y-115314000D03*
%TD*%
D15*
%TO.C,SW1*%
X144305000Y-113761000D03*
X151605000Y-113761000D03*
X151605000Y-115971000D03*
X144305000Y-115971000D03*
D16*
X150205000Y-116621000D03*
X147205000Y-116621000D03*
X145705000Y-116621000D03*
%TD*%
D14*
%TO.C,R10*%
X122276000Y-138523000D03*
X122276000Y-139543000D03*
%TD*%
D17*
%TO.C,C27*%
X138023600Y-138110000D03*
X138023600Y-136210000D03*
%TD*%
D18*
%TO.C,R5*%
X156234000Y-125330000D03*
X155214000Y-125330000D03*
%TD*%
D12*
%TO.C,R11*%
X115925600Y-141835600D03*
X115925600Y-140815600D03*
%TD*%
D18*
%TO.C,R32*%
X132478000Y-133350000D03*
X131458000Y-133350000D03*
%TD*%
D19*
%TO.C,R29*%
X118969400Y-120364000D03*
X120619400Y-120364000D03*
%TD*%
D20*
%TO.C,C17*%
X132971600Y-121513600D03*
X133931600Y-121513600D03*
%TD*%
D21*
%TO.C,R31*%
X155490000Y-136500000D03*
X156510000Y-136500000D03*
%TD*%
D13*
%TO.C,C26*%
X156480000Y-137650000D03*
X155520000Y-137650000D03*
%TD*%
D22*
%TO.C,C8*%
X126942000Y-141192000D03*
X125042000Y-141192000D03*
%TD*%
D23*
%TO.C,C31*%
X173509675Y-91835875D03*
X175409675Y-91835875D03*
%TD*%
D14*
%TO.C,R2*%
X153830400Y-117212400D03*
X153830400Y-118232400D03*
%TD*%
D21*
%TO.C,R21*%
X128903000Y-118491000D03*
X129923000Y-118491000D03*
%TD*%
D23*
%TO.C,C2*%
X118311000Y-132683000D03*
X120211000Y-132683000D03*
%TD*%
D18*
%TO.C,R12*%
X148295200Y-122142000D03*
X147275200Y-122142000D03*
%TD*%
D24*
%TO.C,D3*%
X136174000Y-140492500D03*
X136174000Y-142067500D03*
%TD*%
D14*
%TO.C,R34*%
X135839200Y-138174000D03*
X135839200Y-139194000D03*
%TD*%
D18*
%TO.C,R8*%
X163134000Y-125330000D03*
X162114000Y-125330000D03*
%TD*%
D25*
%TO.C,D2*%
X150474000Y-118730000D03*
X150474000Y-120830000D03*
%TD*%
D26*
%TO.C,L2*%
X126945000Y-134030000D03*
X123245000Y-134030000D03*
%TD*%
D27*
%TO.C,C22*%
X121369200Y-122774400D03*
X121369200Y-121814400D03*
%TD*%
D11*
%TO.C,C5*%
X120644000Y-136143000D03*
X120644000Y-138043000D03*
%TD*%
D21*
%TO.C,R30*%
X155490000Y-135300000D03*
X156510000Y-135300000D03*
%TD*%
D13*
%TO.C,C32*%
X177225675Y-83707875D03*
X176265675Y-83707875D03*
%TD*%
D21*
%TO.C,R33*%
X133449600Y-133350000D03*
X134469600Y-133350000D03*
%TD*%
D20*
%TO.C,C12*%
X125250000Y-114522000D03*
X126210000Y-114522000D03*
%TD*%
D28*
%TO.C,SW3*%
X180197400Y-128811800D03*
X173897400Y-128811800D03*
X180197400Y-132611800D03*
X173897400Y-132611800D03*
%TD*%
D10*
%TO.C,C15*%
X128138000Y-123284000D03*
X128138000Y-124244000D03*
%TD*%
D12*
%TO.C,R38*%
X172720000Y-83695000D03*
X172720000Y-82675000D03*
%TD*%
D14*
%TO.C,R7*%
X128405000Y-141349000D03*
X128405000Y-142369000D03*
%TD*%
D21*
%TO.C,R18*%
X125828000Y-123264000D03*
X126848000Y-123264000D03*
%TD*%
D23*
%TO.C,C9*%
X118311000Y-141483000D03*
X120211000Y-141483000D03*
%TD*%
D29*
%TO.C,Q1*%
X148411500Y-120730000D03*
X148411500Y-118830000D03*
X146536500Y-119780000D03*
%TD*%
D17*
%TO.C,C6*%
X137474000Y-120830000D03*
X137474000Y-118930000D03*
%TD*%
D21*
%TO.C,R9*%
X122434000Y-141700000D03*
X123454000Y-141700000D03*
%TD*%
D12*
%TO.C,R27*%
X115451000Y-122525000D03*
X115451000Y-121505000D03*
%TD*%
D11*
%TO.C,C10*%
X129667000Y-114493000D03*
X129667000Y-116393000D03*
%TD*%
D12*
%TO.C,R23*%
X122301000Y-118747000D03*
X122301000Y-117727000D03*
%TD*%
D20*
%TO.C,C16*%
X131727000Y-130683000D03*
X132687000Y-130683000D03*
%TD*%
D27*
%TO.C,C23*%
X136024000Y-134810000D03*
X136024000Y-133850000D03*
%TD*%
D12*
%TO.C,R24*%
X135763000Y-127891000D03*
X135763000Y-126871000D03*
%TD*%
D14*
%TO.C,R25*%
X116594000Y-121505000D03*
X116594000Y-122525000D03*
%TD*%
D24*
%TO.C,D4*%
X137824000Y-140492500D03*
X137824000Y-142067500D03*
%TD*%
D21*
%TO.C,R26*%
X115449000Y-120237000D03*
X116469000Y-120237000D03*
%TD*%
D13*
%TO.C,C21*%
X116566000Y-123666000D03*
X115606000Y-123666000D03*
%TD*%
%TO.C,C30*%
X156650000Y-131470000D03*
X155690000Y-131470000D03*
%TD*%
D21*
%TO.C,R16*%
X152152000Y-122142000D03*
X153172000Y-122142000D03*
%TD*%
%TO.C,R17*%
X123628000Y-123264000D03*
X124648000Y-123264000D03*
%TD*%
D12*
%TO.C,R20*%
X135763000Y-125859000D03*
X135763000Y-124839000D03*
%TD*%
D14*
%TO.C,R41*%
X178777675Y-91325875D03*
X178777675Y-92345875D03*
%TD*%
D30*
%TO.C,USB1*%
X156156000Y-122005000D03*
X156156000Y-121230000D03*
D31*
X156156000Y-120530000D03*
X156156000Y-120030000D03*
X156156000Y-119530000D03*
X156156000Y-119030000D03*
X156156000Y-118530000D03*
X156156000Y-118030000D03*
X156156000Y-117530000D03*
X156156000Y-117030000D03*
D30*
X156156000Y-116330000D03*
X156156000Y-115555000D03*
%TD*%
D32*
%TO.C,SW2*%
X134024000Y-141680000D03*
X134024000Y-135380000D03*
X130224000Y-141680000D03*
X130224000Y-135380000D03*
%TD*%
D18*
%TO.C,R13*%
X156500000Y-132900000D03*
X155480000Y-132900000D03*
%TD*%
D21*
%TO.C,R6*%
X155214000Y-124200000D03*
X156234000Y-124200000D03*
%TD*%
D17*
%TO.C,C28*%
X137874000Y-126680000D03*
X137874000Y-124780000D03*
%TD*%
D14*
%TO.C,R37*%
X170279000Y-82675000D03*
X170279000Y-83695000D03*
%TD*%
D12*
%TO.C,R1*%
X153830400Y-120315200D03*
X153830400Y-119295200D03*
%TD*%
D20*
%TO.C,C29*%
X155690000Y-127470000D03*
X156650000Y-127470000D03*
%TD*%
D33*
%TO.C,R28*%
X115832000Y-118801400D03*
X115832000Y-117151400D03*
%TD*%
D34*
%TO.C,Y2*%
X156820000Y-130170000D03*
X156820000Y-128770000D03*
X155720000Y-128770000D03*
X155720000Y-130170000D03*
%TD*%
D13*
%TO.C,C25*%
X130416000Y-133350000D03*
X129456000Y-133350000D03*
%TD*%
D24*
%TO.C,D1*%
X162824000Y-128192500D03*
X162824000Y-129767500D03*
%TD*%
D13*
%TO.C,C19*%
X118217000Y-118967000D03*
X117257000Y-118967000D03*
%TD*%
D23*
%TO.C,C7*%
X158574000Y-129730000D03*
X160474000Y-129730000D03*
%TD*%
D12*
%TO.C,R39*%
X171450000Y-83695000D03*
X171450000Y-82675000D03*
%TD*%
D23*
%TO.C,C11*%
X132273000Y-118364000D03*
X134173000Y-118364000D03*
%TD*%
D21*
%TO.C,R19*%
X128903000Y-119507000D03*
X129923000Y-119507000D03*
%TD*%
D10*
%TO.C,C1*%
X154186000Y-114324000D03*
X154186000Y-115284000D03*
%TD*%
D14*
%TO.C,R35*%
X135839200Y-136192800D03*
X135839200Y-137212800D03*
%TD*%
D26*
%TO.C,L1*%
X142058000Y-115570000D03*
X138358000Y-115570000D03*
%TD*%
D35*
%TO.C,USB2*%
X175310000Y-77618200D03*
X174535000Y-77618200D03*
D36*
X173835000Y-77618200D03*
X173335000Y-77618200D03*
X172835000Y-77618200D03*
X172335000Y-77618200D03*
X171835000Y-77618200D03*
X171335000Y-77618200D03*
X170835000Y-77618200D03*
X170335000Y-77618200D03*
D35*
X169635000Y-77618200D03*
X168860000Y-77618200D03*
%TD*%
D10*
%TO.C,C20*%
X120955189Y-114455000D03*
X120955189Y-115415000D03*
%TD*%
D37*
%TO.C,C3*%
X128176000Y-137274000D03*
X128176000Y-138824000D03*
%TD*%
D21*
%TO.C,R4*%
X162114000Y-126630000D03*
X163134000Y-126630000D03*
%TD*%
%TO.C,R15*%
X150018400Y-122142000D03*
X151038400Y-122142000D03*
%TD*%
D14*
%TO.C,R36*%
X173979000Y-82675000D03*
X173979000Y-83695000D03*
%TD*%
%TO.C,R22*%
X122301000Y-115568000D03*
X122301000Y-116588000D03*
%TD*%
D13*
%TO.C,C18*%
X120376000Y-118930000D03*
X119416000Y-118930000D03*
%TD*%
D38*
%TO.C,Y1*%
X137824000Y-134530000D03*
X137824000Y-132030000D03*
%TD*%
D21*
%TO.C,R14*%
X155480000Y-134150000D03*
X156500000Y-134150000D03*
%TD*%
M02*
